<?xml version="1.0" encoding="UTF-8"?>
<svg xmlns="http://www.w3.org/2000/svg" xmlns:xlink="http://www.w3.org/1999/xlink" width="1680pt" height="944.999993pt" viewBox="0 0 1680 944.999993" version="1.2">
<defs>
<clipPath id="clip1">
  <path d="M 802 400 L 1100 400 L 1100 798 L 802 798 Z M 802 400 "/>
</clipPath>
<clipPath id="clip2">
  <path d="M 785.042969 783.070312 L 1085.78125 376.792969 L 1124.363281 405.351562 L 823.625 811.625 Z M 785.042969 783.070312 "/>
</clipPath>
<clipPath id="clip3">
  <path d="M 785.328125 782.6875 L 1085.496094 377.179688 L 1124.074219 405.738281 L 823.90625 811.246094 Z M 785.328125 782.6875 "/>
</clipPath>
<clipPath id="clip4">
  <path d="M 785.328125 782.6875 L 1085.496094 377.179688 L 1124.074219 405.738281 L 823.90625 811.246094 Z M 785.328125 782.6875 "/>
</clipPath>
<clipPath id="clip5">
  <path d="M 583 146 L 959 146 L 959 472 L 583 472 Z M 583 146 "/>
</clipPath>
<clipPath id="clip6">
  <path d="M 599.660156 129.585938 L 982.226562 459.957031 L 950.855469 496.285156 L 568.289062 165.914062 Z M 599.660156 129.585938 "/>
</clipPath>
<clipPath id="clip7">
  <path d="M 600.023438 129.894531 L 981.863281 459.644531 L 950.488281 495.972656 L 568.648438 166.222656 Z M 600.023438 129.894531 "/>
</clipPath>
<clipPath id="clip8">
  <path d="M 600.023438 129.894531 L 981.863281 459.644531 L 950.488281 495.972656 L 568.648438 166.222656 Z M 600.023438 129.894531 "/>
</clipPath>
</defs>
<g id="surface1">
<rect x="0" y="0" width="1680" height="944.999993" style="fill:rgb(100%,100%,100%);fill-opacity:1;stroke:none;"/>
<rect x="0" y="0" width="1680" height="944.999993" style="fill:rgb(100%,100%,100%);fill-opacity:1;stroke:none;"/>
<rect x="0" y="0" width="1680" height="944.999993" style="fill:rgb(11.369324%,11.369324%,11.369324%);fill-opacity:1;stroke:none;"/>
<g clip-path="url(#clip1)" clip-rule="nonzero">
<g clip-path="url(#clip2)" clip-rule="nonzero">
<g clip-path="url(#clip3)" clip-rule="nonzero">
<g clip-path="url(#clip4)" clip-rule="nonzero">
<path style=" stroke:none;fill-rule:nonzero;fill:rgb(100%,53.329468%,30.198669%);fill-opacity:1;" d="M 803.96875 787.757812 C 805.929688 785.109375 809.703125 784.550781 812.355469 786.515625 C 815.007812 788.476562 815.574219 792.25 813.613281 794.898438 C 811.652344 797.546875 807.878906 798.105469 805.226562 796.144531 C 802.574219 794.179688 802.007812 790.40625 803.96875 787.757812 Z M 818.226562 768.5 C 820.183594 765.851562 823.960938 765.289062 826.613281 767.253906 C 829.265625 769.214844 829.832031 772.988281 827.871094 775.636719 C 825.910156 778.285156 822.136719 778.847656 819.484375 776.882812 C 816.832031 774.921875 816.265625 771.148438 818.226562 768.5 Z M 832.480469 749.238281 C 834.441406 746.589844 838.214844 746.03125 840.867188 747.992188 C 843.519531 749.957031 844.085938 753.730469 842.128906 756.378906 C 840.167969 759.027344 836.390625 759.585938 833.738281 757.625 C 831.085938 755.660156 830.523438 751.886719 832.480469 749.238281 Z M 846.738281 729.976562 C 848.699219 727.328125 852.472656 726.769531 855.125 728.730469 C 857.777344 730.695312 858.34375 734.46875 856.382812 737.117188 C 854.421875 739.765625 850.648438 740.324219 847.996094 738.363281 C 845.34375 736.398438 844.777344 732.625 846.738281 729.976562 Z M 860.996094 710.71875 C 862.957031 708.070312 866.730469 707.507812 869.382812 709.472656 C 872.035156 711.433594 872.601562 715.207031 870.640625 717.855469 C 868.679688 720.503906 864.90625 721.066406 862.253906 719.101562 C 859.601562 717.140625 859.035156 713.367188 860.996094 710.71875 Z M 875.253906 691.457031 C 877.214844 688.808594 880.988281 688.25 883.640625 690.210938 C 886.292969 692.175781 886.859375 695.949219 884.898438 698.597656 C 882.9375 701.246094 879.164062 701.804688 876.511719 699.839844 C 873.859375 697.878906 873.292969 694.105469 875.253906 691.457031 Z M 889.511719 672.195312 C 891.472656 669.546875 895.246094 668.988281 897.898438 670.949219 C 900.550781 672.914062 901.117188 676.6875 899.15625 679.335938 C 897.195312 681.984375 893.421875 682.542969 890.769531 680.582031 C 888.117188 678.617188 887.550781 674.84375 889.511719 672.195312 Z M 903.769531 652.9375 C 905.726562 650.289062 909.503906 649.726562 912.15625 651.691406 C 914.808594 653.652344 915.375 657.425781 913.414062 660.074219 C 911.453125 662.722656 907.679688 663.285156 905.027344 661.320312 C 902.375 659.359375 901.808594 655.585938 903.769531 652.9375 Z M 918.023438 633.675781 C 919.984375 631.027344 923.757812 630.46875 926.410156 632.429688 C 929.0625 634.394531 929.628906 638.167969 927.671875 640.816406 C 925.710938 643.464844 921.9375 644.023438 919.285156 642.058594 C 916.628906 640.097656 916.066406 636.324219 918.023438 633.675781 Z M 932.28125 614.414062 C 934.242188 611.765625 938.015625 611.207031 940.667969 613.167969 C 943.320312 615.132812 943.886719 618.90625 941.925781 621.554688 C 939.96875 624.203125 936.191406 624.761719 933.539062 622.800781 C 930.886719 620.835938 930.320312 617.0625 932.28125 614.414062 Z M 946.539062 595.15625 C 948.5 592.507812 952.273438 591.945312 954.925781 593.910156 C 957.578125 595.871094 958.144531 599.644531 956.183594 602.292969 C 954.222656 604.941406 950.449219 605.503906 947.796875 603.539062 C 945.144531 601.578125 944.578125 597.804688 946.539062 595.15625 Z M 960.796875 575.894531 C 962.757812 573.246094 966.53125 572.683594 969.183594 574.648438 C 971.835938 576.613281 972.402344 580.386719 970.441406 583.035156 C 968.480469 585.683594 964.707031 586.242188 962.054688 584.277344 C 959.402344 582.316406 958.835938 578.542969 960.796875 575.894531 Z M 975.054688 556.632812 C 977.015625 553.984375 980.789062 553.425781 983.441406 555.386719 C 986.09375 557.351562 986.660156 561.125 984.699219 563.773438 C 982.738281 566.421875 978.964844 566.980469 976.3125 565.019531 C 973.660156 563.054688 973.09375 559.28125 975.054688 556.632812 Z M 989.3125 537.375 C 991.269531 534.726562 995.046875 534.164062 997.699219 536.128906 C 1000.351562 538.089844 1000.917969 541.863281 998.957031 544.511719 C 996.996094 547.160156 993.222656 547.722656 990.570312 545.757812 C 987.917969 543.792969 987.351562 540.023438 989.3125 537.375 Z M 1003.566406 518.113281 C 1005.527344 515.464844 1009.300781 514.902344 1011.953125 516.867188 C 1014.605469 518.832031 1015.171875 522.605469 1013.214844 525.253906 C 1011.253906 527.902344 1007.480469 528.460938 1004.828125 526.496094 C 1002.175781 524.535156 1001.609375 520.761719 1003.566406 518.113281 Z M 1017.824219 498.851562 C 1019.785156 496.203125 1023.558594 495.644531 1026.210938 497.605469 C 1028.863281 499.570312 1029.429688 503.34375 1027.46875 505.992188 C 1025.511719 508.640625 1021.734375 509.199219 1019.082031 507.238281 C 1016.429688 505.273438 1015.863281 501.5 1017.824219 498.851562 Z M 1032.082031 479.59375 C 1034.042969 476.945312 1037.816406 476.382812 1040.46875 478.347656 C 1043.121094 480.308594 1043.6875 484.082031 1041.726562 486.730469 C 1039.765625 489.378906 1035.992188 489.941406 1033.339844 487.976562 C 1030.6875 486.011719 1030.121094 482.242188 1032.082031 479.59375 Z M 1046.339844 460.332031 C 1048.300781 457.683594 1052.074219 457.121094 1054.726562 459.085938 C 1057.378906 461.050781 1057.945312 464.824219 1055.984375 467.472656 C 1054.023438 470.121094 1050.25 470.679688 1047.597656 468.714844 C 1044.945312 466.753906 1044.378906 462.980469 1046.339844 460.332031 Z M 1060.597656 441.070312 C 1062.558594 438.421875 1066.332031 437.863281 1068.984375 439.824219 C 1071.636719 441.789062 1072.203125 445.5625 1070.242188 448.210938 C 1068.28125 450.859375 1064.507812 451.417969 1061.855469 449.457031 C 1059.203125 447.492188 1058.636719 443.71875 1060.597656 441.070312 Z M 1074.855469 421.8125 C 1076.8125 419.164062 1080.589844 418.601562 1083.242188 420.566406 C 1085.894531 422.527344 1086.460938 426.300781 1084.5 428.949219 C 1082.539062 431.597656 1078.765625 432.160156 1076.113281 430.195312 C 1073.460938 428.230469 1072.894531 424.460938 1074.855469 421.8125 Z M 1089.109375 402.550781 C 1091.070312 399.902344 1094.84375 399.339844 1097.496094 401.304688 C 1100.148438 403.269531 1100.714844 407.042969 1098.757812 409.691406 C 1096.796875 412.339844 1093.023438 412.898438 1090.371094 410.933594 C 1087.71875 408.972656 1087.152344 405.199219 1089.109375 402.550781 Z M 1089.109375 402.550781 "/>
</g>
</g>
</g>
</g>
<g clip-path="url(#clip5)" clip-rule="nonzero">
<g clip-path="url(#clip6)" clip-rule="nonzero">
<g clip-path="url(#clip7)" clip-rule="nonzero">
<g clip-path="url(#clip8)" clip-rule="nonzero">
<path style=" stroke:none;fill-rule:nonzero;fill:rgb(36.859131%,9.01947%,92.158508%);fill-opacity:1;" d="M 593.566406 148.101562 C 596.058594 150.253906 596.335938 154.0625 594.175781 156.558594 C 592.019531 159.054688 588.214844 159.335938 585.722656 157.183594 C 583.226562 155.03125 582.953125 151.226562 585.109375 148.726562 C 587.265625 146.230469 591.070312 145.949219 593.566406 148.101562 Z M 611.703125 163.765625 C 614.195312 165.917969 614.46875 169.722656 612.3125 172.21875 C 610.15625 174.71875 606.351562 175 603.859375 172.847656 C 601.363281 170.691406 601.089844 166.886719 603.246094 164.390625 C 605.402344 161.890625 609.207031 161.609375 611.703125 163.765625 Z M 629.835938 179.425781 C 632.332031 181.578125 632.605469 185.386719 630.449219 187.882812 C 628.292969 190.378906 624.488281 190.660156 621.996094 188.507812 C 619.5 186.355469 619.226562 182.550781 621.382812 180.050781 C 623.539062 177.554688 627.34375 177.273438 629.835938 179.425781 Z M 647.972656 195.089844 C 650.46875 197.242188 650.742188 201.046875 648.585938 203.542969 C 646.429688 206.042969 642.625 206.324219 640.132812 204.171875 C 637.636719 202.015625 637.363281 198.210938 639.519531 195.714844 C 641.675781 193.214844 645.480469 192.933594 647.972656 195.089844 Z M 666.109375 210.75 C 668.605469 212.902344 668.878906 216.710938 666.722656 219.207031 C 664.566406 221.703125 660.761719 221.984375 658.265625 219.832031 C 655.773438 217.679688 655.496094 213.875 657.65625 211.375 C 659.8125 208.878906 663.617188 208.597656 666.109375 210.75 Z M 684.246094 226.414062 C 686.742188 228.566406 687.015625 232.371094 684.859375 234.871094 C 682.703125 237.367188 678.898438 237.648438 676.402344 235.496094 C 673.910156 233.339844 673.632812 229.535156 675.792969 227.039062 C 677.949219 224.539062 681.753906 224.257812 684.246094 226.414062 Z M 702.382812 242.074219 C 704.875 244.226562 705.152344 248.035156 702.996094 250.53125 C 700.839844 253.027344 697.035156 253.308594 694.539062 251.15625 C 692.046875 249.003906 691.769531 245.199219 693.925781 242.699219 C 696.085938 240.203125 699.890625 239.921875 702.382812 242.074219 Z M 720.519531 257.738281 C 723.011719 259.890625 723.289062 263.695312 721.132812 266.195312 C 718.976562 268.691406 715.171875 268.972656 712.675781 266.820312 C 710.183594 264.664062 709.90625 260.859375 712.0625 258.363281 C 714.222656 255.863281 718.027344 255.582031 720.519531 257.738281 Z M 738.65625 273.398438 C 741.148438 275.550781 741.425781 279.359375 739.269531 281.855469 C 737.113281 284.351562 733.304688 284.636719 730.8125 282.480469 C 728.320312 280.328125 728.042969 276.523438 730.199219 274.023438 C 732.355469 271.527344 736.164062 271.246094 738.65625 273.398438 Z M 756.792969 289.0625 C 759.285156 291.214844 759.5625 295.019531 757.40625 297.519531 C 755.246094 300.015625 751.441406 300.296875 748.949219 298.144531 C 746.457031 295.988281 746.179688 292.183594 748.335938 289.6875 C 750.492188 287.1875 754.296875 286.90625 756.792969 289.0625 Z M 774.929688 304.722656 C 777.421875 306.878906 777.699219 310.683594 775.542969 313.179688 C 773.382812 315.675781 769.578125 315.960938 767.085938 313.804688 C 764.589844 311.652344 764.316406 307.847656 766.472656 305.347656 C 768.628906 302.851562 772.433594 302.570312 774.929688 304.722656 Z M 793.066406 320.386719 C 795.558594 322.539062 795.835938 326.34375 793.675781 328.84375 C 791.519531 331.339844 787.714844 331.621094 785.222656 329.46875 C 782.726562 327.3125 782.453125 323.507812 784.609375 321.011719 C 786.765625 318.511719 790.570312 318.230469 793.066406 320.386719 Z M 811.203125 336.046875 C 813.695312 338.203125 813.972656 342.007812 811.8125 344.503906 C 809.65625 347.003906 805.851562 347.285156 803.359375 345.128906 C 800.863281 342.976562 800.589844 339.171875 802.746094 336.671875 C 804.902344 334.175781 808.707031 333.894531 811.203125 336.046875 Z M 829.335938 351.710938 C 831.832031 353.863281 832.105469 357.667969 829.949219 360.167969 C 827.792969 362.664062 823.988281 362.945312 821.496094 360.792969 C 819 358.636719 818.726562 354.832031 820.882812 352.335938 C 823.039062 349.835938 826.84375 349.554688 829.335938 351.710938 Z M 847.472656 367.371094 C 849.96875 369.527344 850.242188 373.332031 848.085938 375.828125 C 845.929688 378.328125 842.125 378.609375 839.632812 376.453125 C 837.136719 374.300781 836.863281 370.496094 839.019531 367.996094 C 841.175781 365.5 844.980469 365.21875 847.472656 367.371094 Z M 865.609375 383.035156 C 868.105469 385.1875 868.378906 388.992188 866.222656 391.492188 C 864.066406 393.988281 860.261719 394.269531 857.765625 392.117188 C 855.273438 389.960938 854.996094 386.15625 857.15625 383.660156 C 859.3125 381.164062 863.117188 380.878906 865.609375 383.035156 Z M 883.746094 398.695312 C 886.242188 400.851562 886.515625 404.65625 884.359375 407.152344 C 882.203125 409.652344 878.398438 409.933594 875.902344 407.777344 C 873.410156 405.625 873.132812 401.820312 875.292969 399.320312 C 877.449219 396.824219 881.253906 396.542969 883.746094 398.695312 Z M 901.882812 414.359375 C 904.378906 416.511719 904.652344 420.316406 902.496094 422.816406 C 900.339844 425.3125 896.535156 425.59375 894.039062 423.441406 C 891.546875 421.289062 891.269531 417.480469 893.425781 414.984375 C 895.585938 412.488281 899.390625 412.203125 901.882812 414.359375 Z M 920.019531 430.019531 C 922.511719 432.175781 922.789062 435.980469 920.632812 438.476562 C 918.476562 440.976562 914.671875 441.257812 912.175781 439.101562 C 909.683594 436.949219 909.40625 433.144531 911.5625 430.644531 C 913.722656 428.148438 917.527344 427.867188 920.019531 430.019531 Z M 938.15625 445.683594 C 940.648438 447.835938 940.925781 451.640625 938.769531 454.140625 C 936.613281 456.636719 932.804688 456.917969 930.3125 454.765625 C 927.820312 452.613281 927.542969 448.804688 929.699219 446.308594 C 931.855469 443.8125 935.664062 443.53125 938.15625 445.683594 Z M 956.292969 461.34375 C 958.785156 463.5 959.0625 467.304688 956.90625 469.800781 C 954.746094 472.300781 950.941406 472.582031 948.449219 470.425781 C 945.957031 468.273438 945.679688 464.46875 947.835938 461.96875 C 949.992188 459.472656 953.796875 459.191406 956.292969 461.34375 Z M 956.292969 461.34375 "/>
</g>
</g>
</g>
</g>
<path style=" stroke:none;fill-rule:nonzero;fill:rgb(21.958923%,100%,53.329468%);fill-opacity:1;" d="M 801.800781 221.527344 C 805.09375 221.527344 807.789062 224.226562 807.789062 227.527344 C 807.789062 230.828125 805.09375 233.527344 801.800781 233.527344 C 798.503906 233.527344 795.808594 230.828125 795.808594 227.527344 C 795.808594 224.226562 798.503906 221.527344 801.800781 221.527344 Z M 825.761719 221.527344 C 829.058594 221.527344 831.753906 224.226562 831.753906 227.527344 C 831.753906 230.828125 829.058594 233.527344 825.761719 233.527344 C 822.46875 233.527344 819.773438 230.828125 819.773438 227.527344 C 819.773438 224.226562 822.46875 221.527344 825.761719 221.527344 Z M 849.726562 221.527344 C 853.019531 221.527344 855.714844 224.226562 855.714844 227.527344 C 855.714844 230.828125 853.019531 233.527344 849.726562 233.527344 C 846.429688 233.527344 843.734375 230.828125 843.734375 227.527344 C 843.734375 224.226562 846.429688 221.527344 849.726562 221.527344 Z M 873.6875 221.527344 C 876.984375 221.527344 879.679688 224.226562 879.679688 227.527344 C 879.679688 230.828125 876.984375 233.527344 873.6875 233.527344 C 870.394531 233.527344 867.699219 230.828125 867.699219 227.527344 C 867.699219 224.226562 870.394531 221.527344 873.6875 221.527344 Z M 897.652344 221.527344 C 900.945312 221.527344 903.644531 224.226562 903.644531 227.527344 C 903.644531 230.828125 900.945312 233.527344 897.652344 233.527344 C 894.355469 233.527344 891.660156 230.828125 891.660156 227.527344 C 891.660156 224.226562 894.355469 221.527344 897.652344 221.527344 Z M 921.617188 221.527344 C 924.910156 221.527344 927.605469 224.226562 927.605469 227.527344 C 927.605469 230.828125 924.910156 233.527344 921.617188 233.527344 C 918.320312 233.527344 915.625 230.828125 915.625 227.527344 C 915.625 224.226562 918.320312 221.527344 921.617188 221.527344 Z M 945.578125 221.527344 C 948.875 221.527344 951.570312 224.226562 951.570312 227.527344 C 951.570312 230.828125 948.875 233.527344 945.578125 233.527344 C 942.285156 233.527344 939.585938 230.828125 939.585938 227.527344 C 939.585938 224.226562 942.285156 221.527344 945.578125 221.527344 Z M 969.542969 221.527344 C 972.835938 221.527344 975.53125 224.226562 975.53125 227.527344 C 975.53125 230.828125 972.835938 233.527344 969.542969 233.527344 C 966.246094 233.527344 963.550781 230.828125 963.550781 227.527344 C 963.550781 224.226562 966.246094 221.527344 969.542969 221.527344 Z M 993.503906 221.527344 C 996.800781 221.527344 999.496094 224.226562 999.496094 227.527344 C 999.496094 230.828125 996.800781 233.527344 993.503906 233.527344 C 990.210938 233.527344 987.515625 230.828125 987.515625 227.527344 C 987.515625 224.226562 990.210938 221.527344 993.503906 221.527344 Z M 1017.46875 221.527344 C 1020.761719 221.527344 1023.457031 224.226562 1023.457031 227.527344 C 1023.457031 230.828125 1020.761719 233.527344 1017.46875 233.527344 C 1014.171875 233.527344 1011.476562 230.828125 1011.476562 227.527344 C 1011.476562 224.226562 1014.171875 221.527344 1017.46875 221.527344 Z M 1041.429688 221.527344 C 1044.726562 221.527344 1047.421875 224.226562 1047.421875 227.527344 C 1047.421875 230.828125 1044.726562 233.527344 1041.429688 233.527344 C 1038.136719 233.527344 1035.441406 230.828125 1035.441406 227.527344 C 1035.441406 224.226562 1038.136719 221.527344 1041.429688 221.527344 Z M 1065.394531 221.527344 C 1068.6875 221.527344 1071.386719 224.226562 1071.386719 227.527344 C 1071.386719 230.828125 1068.6875 233.527344 1065.394531 233.527344 C 1062.097656 233.527344 1059.402344 230.828125 1059.402344 227.527344 C 1059.402344 224.226562 1062.097656 221.527344 1065.394531 221.527344 Z M 1089.355469 221.527344 C 1092.652344 221.527344 1095.347656 224.226562 1095.347656 227.527344 C 1095.347656 230.828125 1092.652344 233.527344 1089.355469 233.527344 C 1086.0625 233.527344 1083.367188 230.828125 1083.367188 227.527344 C 1083.367188 224.226562 1086.0625 221.527344 1089.355469 221.527344 Z M 1113.320312 221.527344 C 1116.617188 221.527344 1119.3125 224.226562 1119.3125 227.527344 C 1119.3125 230.828125 1116.617188 233.527344 1113.320312 233.527344 C 1110.027344 233.527344 1107.328125 230.828125 1107.328125 227.527344 C 1107.328125 224.226562 1110.027344 221.527344 1113.320312 221.527344 Z M 1137.285156 221.527344 C 1140.578125 221.527344 1143.273438 224.226562 1143.273438 227.527344 C 1143.273438 230.828125 1140.578125 233.527344 1137.285156 233.527344 C 1133.988281 233.527344 1131.292969 230.828125 1131.292969 227.527344 C 1131.292969 224.226562 1133.988281 221.527344 1137.285156 221.527344 Z M 1161.246094 221.527344 C 1164.542969 221.527344 1167.238281 224.226562 1167.238281 227.527344 C 1167.238281 230.828125 1164.542969 233.527344 1161.246094 233.527344 C 1157.953125 233.527344 1155.253906 230.828125 1155.253906 227.527344 C 1155.253906 224.226562 1157.953125 221.527344 1161.246094 221.527344 Z M 1185.210938 221.527344 C 1188.503906 221.527344 1191.199219 224.226562 1191.199219 227.527344 C 1191.199219 230.828125 1188.503906 233.527344 1185.210938 233.527344 C 1181.914062 233.527344 1179.21875 230.828125 1179.21875 227.527344 C 1179.21875 224.226562 1181.914062 221.527344 1185.210938 221.527344 Z M 1209.171875 221.527344 C 1212.46875 221.527344 1215.164062 224.226562 1215.164062 227.527344 C 1215.164062 230.828125 1212.46875 233.527344 1209.171875 233.527344 C 1205.878906 233.527344 1203.183594 230.828125 1203.183594 227.527344 C 1203.183594 224.226562 1205.878906 221.527344 1209.171875 221.527344 Z M 1233.136719 221.527344 C 1236.429688 221.527344 1239.125 224.226562 1239.125 227.527344 C 1239.125 230.828125 1236.429688 233.527344 1233.136719 233.527344 C 1229.839844 233.527344 1227.144531 230.828125 1227.144531 227.527344 C 1227.144531 224.226562 1229.839844 221.527344 1233.136719 221.527344 Z M 1257.097656 221.527344 C 1260.394531 221.527344 1263.089844 224.226562 1263.089844 227.527344 C 1263.089844 230.828125 1260.394531 233.527344 1257.097656 233.527344 C 1253.804688 233.527344 1251.109375 230.828125 1251.109375 227.527344 C 1251.109375 224.226562 1253.804688 221.527344 1257.097656 221.527344 Z M 1281.0625 221.527344 C 1284.355469 221.527344 1287.054688 224.226562 1287.054688 227.527344 C 1287.054688 230.828125 1284.355469 233.527344 1281.0625 233.527344 C 1277.765625 233.527344 1275.070312 230.828125 1275.070312 227.527344 C 1275.070312 224.226562 1277.765625 221.527344 1281.0625 221.527344 Z M 1281.0625 221.527344 "/>
</g>
</svg>
