<svg xmlns="http://www.w3.org/2000/svg" xmlns:xlink="http://www.w3.org/1999/xlink" width="1920" height="1080" viewBox="0 0 1920 1080">
  <defs>
    <clipPath id="clip-path">
      <rect id="Rectangle_1057" data-name="Rectangle 1057" width="1920" height="1080" fill="#1d1d1d"/>
    </clipPath>
    <linearGradient id="linear-gradient" x1="0.441" y1="0.345" x2="0.423" y2="0.213" gradientUnits="objectBoundingBox">
      <stop offset="0" stop-color="#fff"/>
      <stop offset="1" stop-color="#fff" stop-opacity="0"/>
    </linearGradient>
    <linearGradient id="linear-gradient-8" x1="0.873" y1="0.33" x2="0.479" y2="1" gradientUnits="objectBoundingBox">
      <stop offset="0" stop-color="#171717"/>
      <stop offset="1" stop-color="#1d1d1d"/>
    </linearGradient>
  </defs>
  <g id="Bg" transform="translate(-11997 3633)">
    <rect id="Rectangle_1058" data-name="Rectangle 1058" width="1920" height="1080" transform="translate(11997 -3633)" fill="#1d1d1d"/>
    <g id="Group_35049" data-name="Group 35049" transform="translate(11997 -3633)" clip-path="url(#clip-path)">
      <g id="Group_35048" data-name="Group 35048">
        <circle id="Ellipse_34" data-name="Ellipse 34" cx="428" cy="428" r="428" transform="translate(-316 -293)" fill="#fff" opacity="0.01"/>
        <g id="Group_35043" data-name="Group 35043" transform="translate(-866.352 -482.183) rotate(3)" opacity="0.15">
          <g id="Group_35042" data-name="Group 35042" transform="translate(901 245)">
            <g id="Path_36843" data-name="Path 36843" transform="translate(0 131.784)">
              <path id="Path_36888" data-name="Path 36888" d="M-1074.055,750.846l1.455-1.467,202.755-204.5.827.82-201.3,203.036,480.7-117.57L-693.938,496.7l.921-.714,105.424,135.88Z" transform="translate(1074.055 -495.989)" fill="url(#linear-gradient)"/>
            </g>
            <g id="Path_36844" data-name="Path 36844" transform="translate(72.472)">
              <path id="Path_36889" data-name="Path 36889" d="M-555.625,269.8l-110.443,68.155,106.412-66.832-417.371,50.987Z" transform="translate(977.028 -269.8)" fill="url(#linear-gradient)"/>
            </g>
            <path id="Path_36890" data-name="Path 36890" d="M-520.284,549.564l-132.747,10.03.088,1.162,129.437-9.779L-723.614,737.583v.28l-39.788,37.1L-924.367,528.038l133.786,69.476.537-1.034-137.719-71.519,164.142,251.8L-521.5,550.7Z" transform="translate(1012.997 -376.297)" fill="url(#linear-gradient)"/>
            <path id="Path_36891" data-name="Path 36891" d="M-800.26,718.417l-124.1-190.378,87.936,45.666v-1.313l-91.333-47.43,126.108,193.455Z" transform="translate(1012.995 -376.297)" fill="url(#linear-gradient)"/>
            <path id="Path_36892" data-name="Path 36892" d="M-500.1,694.037-622.469,808.15v.28l-39.788,37.1-21.783-33.417h-1.391l22.955,35.215,164.091-153.294Z" transform="translate(911.855 -446.864)" fill="url(#linear-gradient)"/>
            <path id="Path_36893" data-name="Path 36893" d="M-456.218,577.219l.088,1.162,129.436-9.78-52.192,48.67h1.709l52.492-48.95,1.214-1.132Z" transform="translate(816.188 -393.922)" fill="url(#linear-gradient)"/>
            <path id="Path_36894" data-name="Path 36894" d="M-403.229,573.939v1.169l86.517-6.537L-432.294,676.355h2.009L-314.7,568.291l1.214-1.132Z" transform="translate(806.203 -393.909)" fill="url(#linear-gradient)"/>
          </g>
        </g>
        <g id="Group_35045" data-name="Group 35045">
          <g id="bg-2" data-name="bg">
            <path id="Path_36895" data-name="Path 36895" d="M0,0H1331V1080H0Z" transform="translate(1)" fill="url(#linear-gradient-8)"/>
          </g>
        </g>
      </g>
    </g>
    <g id="Group_35050" data-name="Group 35050" transform="translate(11985 -3662)">
      <rect id="Rectangle_1051" data-name="Rectangle 1051" width="156" height="156" rx="20" transform="translate(1343 257)" fill="#171717"/>
      <path id="Path_36896" data-name="Path 36896" d="M20,0H136a20,20,0,0,1,20,20V136a20,20,0,0,1-20,20H20A20,20,0,0,1,0,136V20A20,20,0,0,1,20,0Z" transform="translate(1343 569)" fill="#181818"/>
      <rect id="Rectangle_1052" data-name="Rectangle 1052" width="156" height="156" rx="20" transform="translate(1499 413)" fill="#4e4e4e" opacity="0.4"/>
      <rect id="Rectangle_1053" data-name="Rectangle 1053" width="156" height="156" rx="20" transform="translate(1189 413)" fill="#1d1d1d"/>
      <rect id="Rectangle_1054" data-name="Rectangle 1054" width="156" height="156" rx="20" transform="translate(1189 725)" fill="#1d1d1d"/>
      <rect id="Rectangle_1055" data-name="Rectangle 1055" width="156" height="156" rx="20" transform="translate(1032 569)" fill="#fff" opacity="0.05"/>
      <ellipse id="Ellipse_35" data-name="Ellipse 35" cx="77" cy="78" rx="77" ry="78" transform="translate(1345 413)" fill="#8d8b8b" opacity="0.08"/>
      <circle id="Ellipse_36" data-name="Ellipse 36" cx="78" cy="78" r="78" transform="translate(1188 569)" fill="#9a9494" opacity="0.07"/>
    </g>
  </g>
</svg>
