<?xml version="1.0" encoding="UTF-8"?>
<svg xmlns="http://www.w3.org/2000/svg" xmlns:xlink="http://www.w3.org/1999/xlink" viewBox="0 0 375 374.999991"
  version="1.2">
  <defs>
    <clipPath id="clip29">
      <path d="M 119 143.589844 L 255 143.589844 L 255 190 L 119 190 Z M 119 143.589844 " />
    </clipPath>
    <clipPath id="clip2929">
      <path d="M 113 198 L 261 198 L 261 231.339844 L 113 231.339844 Z M 113 198 " />
    </clipPath>
  </defs>
  <g id="surface29">
    <path style=" stroke:none;fill-rule:nonzero;fill:rgb(0%,0%,0%);fill-opacity:1;"
      d="M 187.5 84.375 C 185.8125 84.375 184.125 84.417969 182.441406 84.5 C 180.753906 84.582031 179.070312 84.707031 177.390625 84.871094 C 175.710938 85.035156 174.039062 85.242188 172.367188 85.492188 C 170.699219 85.738281 169.035156 86.027344 167.382812 86.355469 C 165.726562 86.6875 164.078125 87.054688 162.441406 87.464844 C 160.804688 87.875 159.179688 88.324219 157.5625 88.816406 C 155.949219 89.304688 154.347656 89.835938 152.757812 90.402344 C 151.167969 90.972656 149.59375 91.578125 148.035156 92.226562 C 146.476562 92.871094 144.933594 93.554688 143.410156 94.277344 C 141.882812 94.996094 140.375 95.757812 138.886719 96.550781 C 137.398438 97.347656 135.929688 98.179688 134.484375 99.046875 C 133.035156 99.914062 131.609375 100.816406 130.207031 101.753906 C 128.804688 102.691406 127.425781 103.664062 126.070312 104.667969 C 124.714844 105.675781 123.382812 106.710938 122.078125 107.785156 C 120.773438 108.855469 119.496094 109.957031 118.246094 111.089844 C 116.996094 112.222656 115.773438 113.386719 114.578125 114.578125 C 113.386719 115.773438 112.222656 116.996094 111.089844 118.246094 C 109.957031 119.496094 108.855469 120.773438 107.785156 122.078125 C 106.710938 123.382812 105.675781 124.714844 104.667969 126.070312 C 103.664062 127.425781 102.691406 128.804688 101.753906 130.207031 C 100.816406 131.609375 99.914062 133.035156 99.046875 134.484375 C 98.179688 135.929688 97.347656 137.398438 96.550781 138.886719 C 95.757812 140.375 94.996094 141.882812 94.277344 143.410156 C 93.554688 144.933594 92.871094 146.476562 92.226562 148.035156 C 91.578125 149.59375 90.972656 151.167969 90.402344 152.757812 C 89.835938 154.347656 89.304688 155.949219 88.816406 157.5625 C 88.324219 159.179688 87.875 160.804688 87.464844 162.441406 C 87.054688 164.078125 86.6875 165.726562 86.355469 167.382812 C 86.027344 169.035156 85.738281 170.699219 85.492188 172.367188 C 85.242188 174.039062 85.035156 175.710938 84.871094 177.390625 C 84.707031 179.070312 84.582031 180.753906 84.5 182.441406 C 84.417969 184.125 84.375 185.8125 84.375 187.5 C 84.375 189.1875 84.417969 190.875 84.5 192.558594 C 84.582031 194.246094 84.707031 195.929688 84.871094 197.609375 C 85.035156 199.289062 85.242188 200.960938 85.492188 202.632812 C 85.738281 204.300781 86.027344 205.964844 86.355469 207.617188 C 86.6875 209.273438 87.054688 210.921875 87.464844 212.558594 C 87.875 214.195312 88.324219 215.820312 88.816406 217.4375 C 89.304688 219.050781 89.835938 220.652344 90.402344 222.242188 C 90.972656 223.832031 91.578125 225.40625 92.226562 226.964844 C 92.871094 228.523438 93.554688 230.066406 94.277344 231.589844 C 94.996094 233.117188 95.757812 234.625 96.550781 236.113281 C 97.347656 237.601562 98.179688 239.070312 99.046875 240.515625 C 99.914062 241.964844 100.816406 243.390625 101.753906 244.792969 C 102.691406 246.195312 103.664062 247.574219 104.667969 248.929688 C 105.675781 250.285156 106.710938 251.617188 107.785156 252.921875 C 108.855469 254.226562 109.957031 255.503906 111.089844 256.753906 C 112.222656 258.003906 113.386719 259.226562 114.578125 260.421875 C 115.773438 261.613281 116.996094 262.777344 118.246094 263.910156 C 119.496094 265.042969 120.773438 266.144531 122.078125 267.214844 C 123.382812 268.289062 124.714844 269.324219 126.070312 270.332031 C 127.425781 271.335938 128.804688 272.308594 130.207031 273.246094 C 131.609375 274.183594 133.035156 275.085938 134.484375 275.953125 C 135.929688 276.820312 137.398438 277.652344 138.886719 278.449219 C 140.375 279.242188 141.882812 280.003906 143.410156 280.722656 C 144.933594 281.445312 146.476562 282.128906 148.035156 282.773438 C 149.59375 283.421875 151.167969 284.027344 152.757812 284.597656 C 154.347656 285.164062 155.949219 285.695312 157.5625 286.183594 C 159.179688 286.675781 160.804688 287.125 162.441406 287.535156 C 164.078125 287.945312 165.726562 288.3125 167.382812 288.644531 C 169.035156 288.972656 170.699219 289.261719 172.367188 289.507812 C 174.039062 289.757812 175.710938 289.964844 177.390625 290.128906 C 179.070312 290.292969 180.753906 290.417969 182.441406 290.5 C 184.125 290.582031 185.8125 290.625 187.5 290.625 C 189.1875 290.625 190.875 290.582031 192.558594 290.5 C 194.246094 290.417969 195.929688 290.292969 197.609375 290.128906 C 199.289062 289.964844 200.960938 289.757812 202.632812 289.507812 C 204.300781 289.261719 205.964844 288.972656 207.617188 288.644531 C 209.273438 288.3125 210.921875 287.945312 212.558594 287.535156 C 214.195312 287.125 215.820312 286.675781 217.4375 286.183594 C 219.050781 285.695312 220.652344 285.164062 222.242188 284.597656 C 223.832031 284.027344 225.40625 283.421875 226.964844 282.773438 C 228.523438 282.128906 230.066406 281.445312 231.589844 280.722656 C 233.117188 280.003906 234.625 279.242188 236.113281 278.449219 C 237.601562 277.652344 239.070312 276.820312 240.515625 275.953125 C 241.964844 275.085938 243.390625 274.183594 244.792969 273.246094 C 246.195312 272.308594 247.574219 271.335938 248.929688 270.332031 C 250.285156 269.324219 251.617188 268.289062 252.921875 267.214844 C 254.226562 266.144531 255.503906 265.042969 256.753906 263.910156 C 258.003906 262.777344 259.226562 261.613281 260.421875 260.421875 C 261.613281 259.226562 262.777344 258.003906 263.910156 256.753906 C 265.042969 255.503906 266.144531 254.226562 267.214844 252.921875 C 268.289062 251.617188 269.324219 250.285156 270.332031 248.929688 C 271.335938 247.574219 272.308594 246.195312 273.246094 244.792969 C 274.183594 243.390625 275.085938 241.964844 275.953125 240.515625 C 276.820312 239.070312 277.652344 237.601562 278.449219 236.113281 C 279.242188 234.625 280.003906 233.117188 280.722656 231.589844 C 281.445312 230.066406 282.128906 228.523438 282.773438 226.964844 C 283.421875 225.40625 284.027344 223.832031 284.597656 222.242188 C 285.164062 220.652344 285.695312 219.050781 286.183594 217.4375 C 286.675781 215.820312 287.125 214.195312 287.535156 212.558594 C 287.945312 210.921875 288.3125 209.273438 288.644531 207.617188 C 288.972656 205.964844 289.261719 204.300781 289.507812 202.632812 C 289.757812 200.960938 289.964844 199.289062 290.128906 197.609375 C 290.292969 195.929688 290.417969 194.246094 290.5 192.558594 C 290.582031 190.875 290.625 189.1875 290.625 187.5 C 290.625 185.8125 290.582031 184.125 290.5 182.441406 C 290.417969 180.753906 290.292969 179.070312 290.128906 177.390625 C 289.964844 175.710938 289.757812 174.039062 289.507812 172.367188 C 289.261719 170.699219 288.972656 169.035156 288.644531 167.382812 C 288.3125 165.726562 287.945312 164.078125 287.535156 162.441406 C 287.125 160.804688 286.675781 159.179688 286.183594 157.5625 C 285.695312 155.949219 285.164062 154.347656 284.597656 152.757812 C 284.027344 151.167969 283.421875 149.59375 282.773438 148.035156 C 282.128906 146.476562 281.445312 144.933594 280.722656 143.410156 C 280.003906 141.882812 279.242188 140.375 278.449219 138.886719 C 277.652344 137.398438 276.820312 135.929688 275.953125 134.484375 C 275.085938 133.035156 274.183594 131.609375 273.246094 130.207031 C 272.308594 128.804688 271.335938 127.425781 270.332031 126.070312 C 269.324219 124.714844 268.289062 123.382812 267.214844 122.078125 C 266.144531 120.773438 265.042969 119.496094 263.910156 118.246094 C 262.777344 116.996094 261.613281 115.773438 260.421875 114.578125 C 259.226562 113.386719 258.003906 112.222656 256.753906 111.089844 C 255.503906 109.957031 254.226562 108.855469 252.921875 107.785156 C 251.617188 106.710938 250.285156 105.675781 248.929688 104.667969 C 247.574219 103.664062 246.195312 102.691406 244.792969 101.753906 C 243.390625 100.816406 241.964844 99.914062 240.515625 99.046875 C 239.070312 98.179688 237.601562 97.347656 236.113281 96.550781 C 234.625 95.757812 233.117188 94.996094 231.589844 94.277344 C 230.066406 93.554688 228.523438 92.871094 226.964844 92.226562 C 225.40625 91.578125 223.832031 90.972656 222.242188 90.402344 C 220.652344 89.835938 219.050781 89.304688 217.4375 88.816406 C 215.820312 88.324219 214.195312 87.875 212.558594 87.464844 C 210.921875 87.054688 209.273438 86.6875 207.617188 86.355469 C 205.964844 86.027344 204.300781 85.738281 202.632812 85.492188 C 200.960938 85.242188 199.289062 85.035156 197.609375 84.871094 C 195.929688 84.707031 194.246094 84.582031 192.558594 84.5 C 190.875 84.417969 189.1875 84.375 187.5 84.375 Z M 187.5 84.375 " />
    <g clip-path="url(#clip29)" clip-rule="nonzero">
      <path style=" stroke:none;fill-rule:nonzero;fill:rgb(100%,100%,100%);fill-opacity:1;"
        d="M 155.257812 175.453125 C 155.257812 177.261719 155.453125 178.722656 155.796875 179.796875 C 156.1875 180.871094 156.675781 182.042969 157.359375 183.3125 C 157.601562 183.703125 157.699219 184.09375 157.699219 184.433594 C 157.699219 184.921875 157.40625 185.410156 156.773438 185.898438 L 153.695312 187.949219 C 153.257812 188.242188 152.816406 188.386719 152.425781 188.386719 C 151.9375 188.386719 151.449219 188.144531 150.960938 187.703125 C 150.277344 186.972656 149.691406 186.191406 149.203125 185.410156 C 148.714844 184.582031 148.226562 183.652344 147.6875 182.53125 C 143.878906 187.019531 139.09375 189.265625 133.328125 189.265625 C 129.226562 189.265625 125.953125 188.09375 123.558594 185.753906 C 121.167969 183.410156 119.945312 180.285156 119.945312 176.382812 C 119.945312 172.234375 121.410156 168.863281 124.390625 166.328125 C 127.371094 163.789062 131.328125 162.519531 136.355469 162.519531 C 138.019531 162.519531 139.726562 162.667969 141.535156 162.910156 C 143.339844 163.15625 145.199219 163.542969 147.152344 163.984375 L 147.152344 160.421875 C 147.152344 156.710938 146.371094 154.125 144.855469 152.613281 C 143.292969 151.097656 140.65625 150.367188 136.894531 150.367188 C 135.183594 150.367188 133.425781 150.5625 131.621094 151 C 129.8125 151.441406 128.054688 151.976562 126.34375 152.660156 C 125.5625 153.003906 124.976562 153.199219 124.636719 153.296875 C 124.292969 153.390625 124.050781 153.441406 123.855469 153.441406 C 123.167969 153.441406 122.828125 152.953125 122.828125 151.929688 L 122.828125 149.535156 C 122.828125 148.753906 122.925781 148.171875 123.167969 147.828125 C 123.414062 147.488281 123.855469 147.144531 124.539062 146.804688 C 126.246094 145.925781 128.296875 145.191406 130.691406 144.605469 C 133.085938 143.972656 135.625 143.679688 138.308594 143.679688 C 144.121094 143.679688 148.371094 144.996094 151.105469 147.632812 C 153.792969 150.269531 155.160156 154.269531 155.160156 159.640625 L 155.160156 175.453125 Z M 135.429688 182.871094 C 137.042969 182.871094 138.703125 182.582031 140.460938 181.996094 C 142.21875 181.410156 143.78125 180.335938 145.097656 178.871094 C 145.882812 177.945312 146.46875 176.917969 146.761719 175.746094 C 147.054688 174.574219 147.25 173.160156 147.25 171.5 L 147.25 169.449219 C 145.832031 169.109375 144.316406 168.816406 142.753906 168.621094 C 141.191406 168.425781 139.679688 168.328125 138.164062 168.328125 C 134.890625 168.328125 132.5 168.960938 130.886719 170.28125 C 129.273438 171.597656 128.492188 173.453125 128.492188 175.894531 C 128.492188 178.1875 129.078125 179.894531 130.300781 181.066406 C 131.472656 182.289062 133.183594 182.871094 135.429688 182.871094 Z M 174.652344 188.144531 C 173.769531 188.144531 173.183594 187.996094 172.789062 187.65625 C 172.402344 187.363281 172.058594 186.679688 171.765625 185.753906 L 160.289062 148.023438 C 159.996094 147.046875 159.847656 146.414062 159.847656 146.070312 C 159.847656 145.289062 160.238281 144.851562 161.023438 144.851562 L 165.808594 144.851562 C 166.738281 144.851562 167.371094 144.996094 167.714844 145.339844 C 168.105469 145.632812 168.398438 146.316406 168.691406 147.242188 L 176.894531 179.554688 L 184.515625 147.242188 C 184.757812 146.265625 185.050781 145.632812 185.441406 145.339844 C 185.835938 145.046875 186.515625 144.851562 187.394531 144.851562 L 191.300781 144.851562 C 192.230469 144.851562 192.863281 144.996094 193.257812 145.339844 C 193.648438 145.632812 193.988281 146.316406 194.183594 147.242188 L 201.902344 179.945312 L 210.351562 147.242188 C 210.644531 146.265625 210.984375 145.632812 211.332031 145.339844 C 211.714844 145.046875 212.355469 144.851562 213.230469 144.851562 L 217.777344 144.851562 C 218.554688 144.851562 218.992188 145.242188 218.992188 146.070312 C 218.992188 146.316406 218.949219 146.558594 218.902344 146.851562 C 218.847656 147.144531 218.75 147.535156 218.554688 148.074219 L 206.785156 185.800781 C 206.492188 186.777344 206.152344 187.414062 205.757812 187.707031 C 205.367188 188 204.734375 188.195312 203.902344 188.195312 L 199.703125 188.195312 C 198.777344 188.195312 198.140625 188.046875 197.75 187.707031 C 197.359375 187.363281 197.019531 186.730469 196.824219 185.753906 L 189.25 154.273438 L 181.734375 185.703125 C 181.484375 186.679688 181.191406 187.316406 180.804688 187.65625 C 180.414062 188 179.726562 188.144531 178.851562 188.144531 Z M 237.40625 189.460938 C 234.867188 189.460938 232.332031 189.167969 229.890625 188.582031 C 227.445312 187.996094 225.539062 187.363281 224.269531 186.632812 C 223.488281 186.191406 222.953125 185.703125 222.757812 185.265625 C 222.558594 184.824219 222.460938 184.335938 222.460938 183.898438 L 222.460938 181.410156 C 222.460938 180.382812 222.855469 179.894531 223.585938 179.894531 C 223.878906 179.894531 224.171875 179.945312 224.46875 180.042969 C 224.761719 180.140625 225.199219 180.335938 225.6875 180.53125 C 227.347656 181.261719 229.15625 181.847656 231.058594 182.238281 C 233.011719 182.628906 234.917969 182.824219 236.871094 182.824219 C 239.949219 182.824219 242.339844 182.289062 244.003906 181.214844 C 245.664062 180.140625 246.539062 178.578125 246.539062 176.578125 C 246.539062 175.210938 246.101562 174.085938 245.226562 173.160156 C 244.34375 172.234375 242.6875 171.402344 240.289062 170.621094 L 233.207031 168.425781 C 229.640625 167.304688 227.007812 165.644531 225.394531 163.445312 C 223.78125 161.300781 222.953125 158.90625 222.953125 156.371094 C 222.953125 154.320312 223.390625 152.515625 224.269531 150.953125 C 225.152344 149.390625 226.324219 148.023438 227.785156 146.949219 C 229.253906 145.828125 230.914062 144.996094 232.867188 144.410156 C 234.820312 143.824219 236.871094 143.582031 239.019531 143.582031 C 240.09375 143.582031 241.214844 143.632812 242.292969 143.777344 C 243.417969 143.921875 244.441406 144.117188 245.46875 144.3125 C 246.441406 144.558594 247.371094 144.800781 248.25 145.09375 C 249.132812 145.386719 249.8125 145.679688 250.300781 145.972656 C 250.988281 146.363281 251.476562 146.753906 251.765625 147.195312 C 252.058594 147.585938 252.210938 148.121094 252.210938 148.804688 L 252.210938 151.097656 C 252.210938 152.125 251.816406 152.660156 251.085938 152.660156 C 250.695312 152.660156 250.0625 152.464844 249.230469 152.074219 C 246.441406 150.804688 243.320312 150.171875 239.851562 150.171875 C 237.066406 150.171875 234.867188 150.609375 233.359375 151.539062 C 231.84375 152.464844 231.058594 153.878906 231.058594 155.882812 C 231.058594 157.25 231.546875 158.417969 232.527344 159.347656 C 233.5 160.273438 235.3125 161.203125 237.898438 162.03125 L 244.835938 164.226562 C 248.347656 165.351562 250.890625 166.914062 252.40625 168.914062 C 253.914062 170.914062 254.652344 173.207031 254.652344 175.746094 C 254.652344 177.84375 254.210938 179.75 253.378906 181.410156 C 252.503906 183.066406 251.328125 184.53125 249.8125 185.703125 C 248.304688 186.925781 246.496094 187.800781 244.390625 188.4375 C 242.195312 189.121094 239.902344 189.460938 237.40625 189.460938 Z M 237.40625 189.460938 " />
    </g>
    <g clip-path="url(#clip2929)" clip-rule="nonzero">
      <path style=" stroke:none;fill-rule:nonzero;fill:rgb(100%,59.999084%,0%);fill-opacity:1;"
        d="M 246.636719 213.179688 C 230.570312 225.042969 207.226562 231.339844 187.152344 231.339844 C 159.019531 231.339844 133.671875 220.941406 114.527344 203.664062 C 113.011719 202.296875 114.378906 200.445312 116.1875 201.515625 C 136.894531 213.527344 162.4375 220.796875 188.859375 220.796875 C 206.683594 220.796875 226.273438 217.089844 244.292969 209.472656 C 246.984375 208.25 249.277344 211.230469 246.636719 213.179688 Z M 253.332031 205.570312 C 251.28125 202.929688 239.753906 204.300781 234.527344 204.933594 C 232.964844 205.132812 232.71875 203.761719 234.136719 202.734375 C 243.320312 196.296875 258.410156 198.148438 260.167969 200.296875 C 261.929688 202.492188 259.683594 217.574219 251.085938 224.800781 C 249.765625 225.921875 248.492188 225.335938 249.082031 223.871094 C 251.035156 219.042969 255.382812 208.152344 253.332031 205.570312 Z M 253.332031 205.570312 " />
    </g>
  </g>
</svg>