<?xml version="1.0" encoding="UTF-8"?>
<svg xmlns="http://www.w3.org/2000/svg" xmlns:xlink="http://www.w3.org/1999/xlink" viewBox="0 0 375 374.999991"
  version="1.2">
  <defs>
    <clipPath id="clip1111">
      <path d="M 112.5 138 L 262.5 138 L 262.5 237 L 112.5 237 Z M 112.5 138 " />
    </clipPath>
  </defs>
  <g id="surface1111">
    <path style=" stroke:none;fill-rule:nonzero;fill:rgb(0%,0%,0%);fill-opacity:1;"
      d="M 187.5 84.375 C 185.8125 84.375 184.125 84.417969 182.441406 84.5 C 180.753906 84.582031 179.070312 84.707031 177.390625 84.871094 C 175.710938 85.035156 174.039062 85.242188 172.367188 85.492188 C 170.699219 85.738281 169.035156 86.027344 167.382812 86.355469 C 165.726562 86.6875 164.078125 87.054688 162.441406 87.464844 C 160.804688 87.875 159.179688 88.324219 157.5625 88.816406 C 155.949219 89.304688 154.347656 89.835938 152.757812 90.402344 C 151.167969 90.972656 149.59375 91.578125 148.035156 92.226562 C 146.476562 92.871094 144.933594 93.554688 143.410156 94.277344 C 141.882812 94.996094 140.375 95.757812 138.886719 96.550781 C 137.398438 97.347656 135.929688 98.179688 134.484375 99.046875 C 133.035156 99.914062 131.609375 100.816406 130.207031 101.753906 C 128.804688 102.691406 127.425781 103.664062 126.070312 104.667969 C 124.714844 105.675781 123.382812 106.710938 122.078125 107.785156 C 120.773438 108.855469 119.496094 109.957031 118.246094 111.089844 C 116.996094 112.222656 115.773438 113.386719 114.578125 114.578125 C 113.386719 115.773438 112.222656 116.996094 111.089844 118.246094 C 109.957031 119.496094 108.855469 120.773438 107.785156 122.078125 C 106.710938 123.382812 105.675781 124.714844 104.667969 126.070312 C 103.664062 127.425781 102.691406 128.804688 101.753906 130.207031 C 100.816406 131.609375 99.914062 133.035156 99.046875 134.484375 C 98.179688 135.929688 97.347656 137.398438 96.550781 138.886719 C 95.757812 140.375 94.996094 141.882812 94.277344 143.410156 C 93.554688 144.933594 92.871094 146.476562 92.226562 148.035156 C 91.578125 149.59375 90.972656 151.167969 90.402344 152.757812 C 89.835938 154.347656 89.304688 155.949219 88.816406 157.5625 C 88.324219 159.179688 87.875 160.804688 87.464844 162.441406 C 87.054688 164.078125 86.6875 165.726562 86.355469 167.382812 C 86.027344 169.035156 85.738281 170.699219 85.492188 172.367188 C 85.242188 174.039062 85.035156 175.710938 84.871094 177.390625 C 84.707031 179.070312 84.582031 180.753906 84.5 182.441406 C 84.417969 184.125 84.375 185.8125 84.375 187.5 C 84.375 189.1875 84.417969 190.875 84.5 192.558594 C 84.582031 194.246094 84.707031 195.929688 84.871094 197.609375 C 85.035156 199.289062 85.242188 200.960938 85.492188 202.632812 C 85.738281 204.300781 86.027344 205.964844 86.355469 207.617188 C 86.6875 209.273438 87.054688 210.921875 87.464844 212.558594 C 87.875 214.195312 88.324219 215.820312 88.816406 217.4375 C 89.304688 219.050781 89.835938 220.652344 90.402344 222.242188 C 90.972656 223.832031 91.578125 225.40625 92.226562 226.964844 C 92.871094 228.523438 93.554688 230.066406 94.277344 231.589844 C 94.996094 233.117188 95.757812 234.625 96.550781 236.113281 C 97.347656 237.601562 98.179688 239.070312 99.046875 240.515625 C 99.914062 241.964844 100.816406 243.390625 101.753906 244.792969 C 102.691406 246.195312 103.664062 247.574219 104.667969 248.929688 C 105.675781 250.285156 106.710938 251.617188 107.785156 252.921875 C 108.855469 254.226562 109.957031 255.503906 111.089844 256.753906 C 112.222656 258.003906 113.386719 259.226562 114.578125 260.421875 C 115.773438 261.613281 116.996094 262.777344 118.246094 263.910156 C 119.496094 265.042969 120.773438 266.144531 122.078125 267.214844 C 123.382812 268.289062 124.714844 269.324219 126.070312 270.332031 C 127.425781 271.335938 128.804688 272.308594 130.207031 273.246094 C 131.609375 274.183594 133.035156 275.085938 134.484375 275.953125 C 135.929688 276.820312 137.398438 277.652344 138.886719 278.449219 C 140.375 279.242188 141.882812 280.003906 143.410156 280.722656 C 144.933594 281.445312 146.476562 282.128906 148.035156 282.773438 C 149.59375 283.421875 151.167969 284.027344 152.757812 284.597656 C 154.347656 285.164062 155.949219 285.695312 157.5625 286.183594 C 159.179688 286.675781 160.804688 287.125 162.441406 287.535156 C 164.078125 287.945312 165.726562 288.3125 167.382812 288.644531 C 169.035156 288.972656 170.699219 289.261719 172.367188 289.507812 C 174.039062 289.757812 175.710938 289.964844 177.390625 290.128906 C 179.070312 290.292969 180.753906 290.417969 182.441406 290.5 C 184.125 290.582031 185.8125 290.625 187.5 290.625 C 189.1875 290.625 190.875 290.582031 192.558594 290.5 C 194.246094 290.417969 195.929688 290.292969 197.609375 290.128906 C 199.289062 289.964844 200.960938 289.757812 202.632812 289.507812 C 204.300781 289.261719 205.964844 288.972656 207.617188 288.644531 C 209.273438 288.3125 210.921875 287.945312 212.558594 287.535156 C 214.195312 287.125 215.820312 286.675781 217.4375 286.183594 C 219.050781 285.695312 220.652344 285.164062 222.242188 284.597656 C 223.832031 284.027344 225.40625 283.421875 226.964844 282.773438 C 228.523438 282.128906 230.066406 281.445312 231.589844 280.722656 C 233.117188 280.003906 234.625 279.242188 236.113281 278.449219 C 237.601562 277.652344 239.070312 276.820312 240.515625 275.953125 C 241.964844 275.085938 243.390625 274.183594 244.792969 273.246094 C 246.195312 272.308594 247.574219 271.335938 248.929688 270.332031 C 250.285156 269.324219 251.617188 268.289062 252.921875 267.214844 C 254.226562 266.144531 255.503906 265.042969 256.753906 263.910156 C 258.003906 262.777344 259.226562 261.613281 260.421875 260.421875 C 261.613281 259.226562 262.777344 258.003906 263.910156 256.753906 C 265.042969 255.503906 266.144531 254.226562 267.214844 252.921875 C 268.289062 251.617188 269.324219 250.285156 270.332031 248.929688 C 271.335938 247.574219 272.308594 246.195312 273.246094 244.792969 C 274.183594 243.390625 275.085938 241.964844 275.953125 240.515625 C 276.820312 239.070312 277.652344 237.601562 278.449219 236.113281 C 279.242188 234.625 280.003906 233.117188 280.722656 231.589844 C 281.445312 230.066406 282.128906 228.523438 282.773438 226.964844 C 283.421875 225.40625 284.027344 223.832031 284.597656 222.242188 C 285.164062 220.652344 285.695312 219.050781 286.183594 217.4375 C 286.675781 215.820312 287.125 214.195312 287.535156 212.558594 C 287.945312 210.921875 288.3125 209.273438 288.644531 207.617188 C 288.972656 205.964844 289.261719 204.300781 289.507812 202.632812 C 289.757812 200.960938 289.964844 199.289062 290.128906 197.609375 C 290.292969 195.929688 290.417969 194.246094 290.5 192.558594 C 290.582031 190.875 290.625 189.1875 290.625 187.5 C 290.625 185.8125 290.582031 184.125 290.5 182.441406 C 290.417969 180.753906 290.292969 179.070312 290.128906 177.390625 C 289.964844 175.710938 289.757812 174.039062 289.507812 172.367188 C 289.261719 170.699219 288.972656 169.035156 288.644531 167.382812 C 288.3125 165.726562 287.945312 164.078125 287.535156 162.441406 C 287.125 160.804688 286.675781 159.179688 286.183594 157.5625 C 285.695312 155.949219 285.164062 154.347656 284.597656 152.757812 C 284.027344 151.167969 283.421875 149.59375 282.773438 148.035156 C 282.128906 146.476562 281.445312 144.933594 280.722656 143.410156 C 280.003906 141.882812 279.242188 140.375 278.449219 138.886719 C 277.652344 137.398438 276.820312 135.929688 275.953125 134.484375 C 275.085938 133.035156 274.183594 131.609375 273.246094 130.207031 C 272.308594 128.804688 271.335938 127.425781 270.332031 126.070312 C 269.324219 124.714844 268.289062 123.382812 267.214844 122.078125 C 266.144531 120.773438 265.042969 119.496094 263.910156 118.246094 C 262.777344 116.996094 261.613281 115.773438 260.421875 114.578125 C 259.226562 113.386719 258.003906 112.222656 256.753906 111.089844 C 255.503906 109.957031 254.226562 108.855469 252.921875 107.785156 C 251.617188 106.710938 250.285156 105.675781 248.929688 104.667969 C 247.574219 103.664062 246.195312 102.691406 244.792969 101.753906 C 243.390625 100.816406 241.964844 99.914062 240.515625 99.046875 C 239.070312 98.179688 237.601562 97.347656 236.113281 96.550781 C 234.625 95.757812 233.117188 94.996094 231.589844 94.277344 C 230.066406 93.554688 228.523438 92.871094 226.964844 92.226562 C 225.40625 91.578125 223.832031 90.972656 222.242188 90.402344 C 220.652344 89.835938 219.050781 89.304688 217.4375 88.816406 C 215.820312 88.324219 214.195312 87.875 212.558594 87.464844 C 210.921875 87.054688 209.273438 86.6875 207.617188 86.355469 C 205.964844 86.027344 204.300781 85.738281 202.632812 85.492188 C 200.960938 85.242188 199.289062 85.035156 197.609375 84.871094 C 195.929688 84.707031 194.246094 84.582031 192.558594 84.5 C 190.875 84.417969 189.1875 84.375 187.5 84.375 Z M 187.5 84.375 " />
    <g clip-path="url(#clip1111)" clip-rule="nonzero">
      <path style=" stroke:none;fill-rule:nonzero;fill:rgb(100%,100%,100%);fill-opacity:1;"
        d="M 172.378906 138.097656 L 172.378906 153.070312 L 142.441406 153.070312 L 142.441406 168.039062 L 127.46875 168.039062 L 127.46875 183.007812 L 115.867188 183.007812 C 114.417969 183.007812 113.226562 184.015625 112.96875 185.441406 C 112.945312 185.546875 112.5 188.050781 112.5 191.242188 C 112.5 193.335938 112.699219 195.617188 113.0625 197.886719 C 116.488281 197.066406 122.769531 195.839844 121.667969 191.804688 C 127.574219 198.644531 141.75 196.574219 145.339844 193.207031 C 149.351562 199.019531 172.71875 196.796875 174.34375 192.273438 C 179.375 198.167969 194.964844 198.167969 199.980469 192.273438 C 201.605469 196.796875 224.878906 199.019531 228.890625 193.207031 C 230.167969 194.398438 232.820312 195.394531 235.910156 195.921875 C 236.949219 193.945312 237.910156 191.957031 238.808594 189.839844 C 257.828125 189.605469 261.929688 175.933594 262.105469 175.335938 C 262.433594 174.191406 261.988281 173.007812 261.078125 172.25 C 260.761719 171.980469 253.746094 166.285156 242.367188 168.226562 C 239.171875 157.828125 230.949219 153.09375 230.578125 152.882812 C 229.5 152.273438 228.167969 152.367188 227.207031 153.164062 C 226.902344 153.40625 219.828125 159.40625 220.9375 171.6875 C 221.21875 174.777344 222.027344 177.5 223.277344 179.921875 C 220.824219 181.289062 216.601562 183.007812 209.804688 183.007812 L 208.308594 183.007812 L 208.308594 168.039062 L 193.339844 168.039062 L 193.339844 138.097656 Z M 235.910156 195.921875 C 235.546875 196.621094 235.078125 197.300781 234.691406 197.980469 L 261.734375 197.980469 C 258.480469 197.160156 251.5 196.0625 252.65625 191.804688 C 248.832031 196.226562 241.570312 196.878906 235.910156 195.921875 Z M 234.691406 197.980469 L 113.0625 197.980469 C 113.785156 202.375 115.285156 206.984375 117.550781 211.453125 C 133.808594 215.277344 150.871094 209.453125 151.046875 209.394531 C 152.613281 208.84375 154.253906 209.710938 154.789062 211.265625 C 155.339844 212.820312 154.566406 214.5625 153.011719 215.101562 C 152.441406 215.300781 142.160156 218.75 129.527344 218.75 C 127.027344 218.75 124.394531 218.609375 121.761719 218.28125 C 129.621094 228.703125 142.941406 236.902344 163.398438 236.902344 C 195.746094 236.902344 220.625 223.160156 234.691406 197.980469 Z M 113.0625 197.980469 C 113.050781 197.933594 113.074219 197.933594 113.0625 197.886719 C 112.863281 197.933594 112.675781 197.933594 112.5 197.980469 Z M 178.367188 144.085938 L 187.351562 144.085938 L 187.351562 153.070312 L 178.367188 153.070312 Z M 148.429688 159.058594 L 157.410156 159.058594 L 157.410156 168.039062 L 148.429688 168.039062 Z M 163.398438 159.058594 L 172.378906 159.058594 L 172.378906 168.039062 L 163.398438 168.039062 Z M 178.367188 159.058594 L 187.351562 159.058594 L 187.351562 168.039062 L 178.367188 168.039062 Z M 133.457031 174.027344 L 142.441406 174.027344 L 142.441406 183.007812 L 133.457031 183.007812 Z M 148.429688 174.027344 L 157.410156 174.027344 L 157.410156 183.007812 L 148.429688 183.007812 Z M 163.398438 174.027344 L 172.378906 174.027344 L 172.378906 183.007812 L 163.398438 183.007812 Z M 178.367188 174.027344 L 187.351562 174.027344 L 187.351562 183.007812 L 178.367188 183.007812 Z M 193.339844 174.027344 L 202.320312 174.027344 L 202.320312 183.007812 L 193.339844 183.007812 Z M 160.402344 203.96875 C 160.789062 203.96875 161.1875 204.027344 161.527344 204.152344 C 161.164062 204.363281 160.871094 204.726562 160.871094 205.183594 C 160.871094 205.863281 161.410156 206.492188 162.089844 206.492188 C 162.542969 206.492188 163 206.210938 163.210938 205.839844 C 163.363281 206.1875 163.398438 206.550781 163.398438 206.960938 C 163.398438 208.609375 162.054688 209.953125 160.402344 209.953125 C 158.753906 209.953125 157.410156 208.609375 157.410156 206.960938 C 157.410156 205.3125 158.753906 203.96875 160.402344 203.96875 Z M 160.402344 203.96875 " />
    </g>
  </g>
</svg>