<?xml version="1.0" encoding="UTF-8"?>
<svg xmlns="http://www.w3.org/2000/svg" xmlns:xlink="http://www.w3.org/1999/xlink" width="375pt" height="374.999991pt"
  viewBox="0 0 375 374.999991" version="1.2">
  <defs>
    <clipPath id="clip0">
      <path d="M 277.476562 185 L 294.230469 185 L 294.230469 190 L 277.476562 190 Z M 277.476562 185 " />
    </clipPath>
    <clipPath id="clip00">
      <path
        d="M 130.28125 123.683594 L 245.03125 123.683594 L 245.03125 177 L 130.28125 177 Z M 130.28125 123.683594 " />
    </clipPath>
    <clipPath id="clip000">
      <path d="M 130.28125 245 L 161 245 L 161 275.933594 L 130.28125 275.933594 Z M 130.28125 245 " />
    </clipPath>
  </defs>
  <g id="surface0">
    <path style=" stroke:none;fill-rule:nonzero;fill:rgb(100%,56.858826%,30.198669%);fill-opacity:1;"
      d="M 88.554688 185.132812 C 89.804688 185.132812 90.828125 186.144531 90.828125 187.382812 C 90.828125 188.621094 89.804688 189.632812 88.554688 189.632812 C 87.300781 189.632812 86.277344 188.621094 86.277344 187.382812 C 86.277344 186.144531 87.300781 185.132812 88.554688 185.132812 Z M 97.652344 185.132812 C 98.90625 185.132812 99.929688 186.144531 99.929688 187.382812 C 99.929688 188.621094 98.90625 189.632812 97.652344 189.632812 C 96.402344 189.632812 95.378906 188.621094 95.378906 187.382812 C 95.378906 186.144531 96.402344 185.132812 97.652344 185.132812 Z M 106.753906 185.132812 C 108.003906 185.132812 109.027344 186.144531 109.027344 187.382812 C 109.027344 188.621094 108.003906 189.632812 106.753906 189.632812 C 105.503906 189.632812 104.480469 188.621094 104.480469 187.382812 C 104.480469 186.144531 105.503906 185.132812 106.753906 185.132812 Z M 115.851562 185.132812 C 117.105469 185.132812 118.128906 186.144531 118.128906 187.382812 C 118.128906 188.621094 117.105469 189.632812 115.851562 189.632812 C 114.601562 189.632812 113.578125 188.621094 113.578125 187.382812 C 113.578125 186.144531 114.601562 185.132812 115.851562 185.132812 Z M 124.953125 185.132812 C 126.203125 185.132812 127.226562 186.144531 127.226562 187.382812 C 127.226562 188.621094 126.203125 189.632812 124.953125 189.632812 C 123.703125 189.632812 122.679688 188.621094 122.679688 187.382812 C 122.679688 186.144531 123.703125 185.132812 124.953125 185.132812 Z M 134.054688 185.132812 C 135.304688 185.132812 136.328125 186.144531 136.328125 187.382812 C 136.328125 188.621094 135.304688 189.632812 134.054688 189.632812 C 132.800781 189.632812 131.777344 188.621094 131.777344 187.382812 C 131.777344 186.144531 132.800781 185.132812 134.054688 185.132812 Z M 143.152344 185.132812 C 144.402344 185.132812 145.429688 186.144531 145.429688 187.382812 C 145.429688 188.621094 144.402344 189.632812 143.152344 189.632812 C 141.902344 189.632812 140.878906 188.621094 140.878906 187.382812 C 140.878906 186.144531 141.902344 185.132812 143.152344 185.132812 Z M 152.253906 185.132812 C 153.503906 185.132812 154.527344 186.144531 154.527344 187.382812 C 154.527344 188.621094 153.503906 189.632812 152.253906 189.632812 C 151 189.632812 149.976562 188.621094 149.976562 187.382812 C 149.976562 186.144531 151 185.132812 152.253906 185.132812 Z M 161.351562 185.132812 C 162.605469 185.132812 163.628906 186.144531 163.628906 187.382812 C 163.628906 188.621094 162.605469 189.632812 161.351562 189.632812 C 160.101562 189.632812 159.078125 188.621094 159.078125 187.382812 C 159.078125 186.144531 160.101562 185.132812 161.351562 185.132812 Z M 170.453125 185.132812 C 171.703125 185.132812 172.726562 186.144531 172.726562 187.382812 C 172.726562 188.621094 171.703125 189.632812 170.453125 189.632812 C 169.199219 189.632812 168.175781 188.621094 168.175781 187.382812 C 168.175781 186.144531 169.199219 185.132812 170.453125 185.132812 Z M 179.550781 185.132812 C 180.804688 185.132812 181.828125 186.144531 181.828125 187.382812 C 181.828125 188.621094 180.804688 189.632812 179.550781 189.632812 C 178.300781 189.632812 177.277344 188.621094 177.277344 187.382812 C 177.277344 186.144531 178.300781 185.132812 179.550781 185.132812 Z M 188.652344 185.132812 C 189.902344 185.132812 190.925781 186.144531 190.925781 187.382812 C 190.925781 188.621094 189.902344 189.632812 188.652344 189.632812 C 187.402344 189.632812 186.378906 188.621094 186.378906 187.382812 C 186.378906 186.144531 187.402344 185.132812 188.652344 185.132812 Z M 197.75 185.132812 C 199.003906 185.132812 200.027344 186.144531 200.027344 187.382812 C 200.027344 188.621094 199.003906 189.632812 197.75 189.632812 C 196.5 189.632812 195.476562 188.621094 195.476562 187.382812 C 195.476562 186.144531 196.5 185.132812 197.75 185.132812 Z M 206.851562 185.132812 C 208.101562 185.132812 209.125 186.144531 209.125 187.382812 C 209.125 188.621094 208.101562 189.632812 206.851562 189.632812 C 205.601562 189.632812 204.578125 188.621094 204.578125 187.382812 C 204.578125 186.144531 205.601562 185.132812 206.851562 185.132812 Z M 215.953125 185.132812 C 217.203125 185.132812 218.226562 186.144531 218.226562 187.382812 C 218.226562 188.621094 217.203125 189.632812 215.953125 189.632812 C 214.699219 189.632812 213.675781 188.621094 213.675781 187.382812 C 213.675781 186.144531 214.699219 185.132812 215.953125 185.132812 Z M 225.050781 185.132812 C 226.300781 185.132812 227.328125 186.144531 227.328125 187.382812 C 227.328125 188.621094 226.300781 189.632812 225.050781 189.632812 C 223.800781 189.632812 222.777344 188.621094 222.777344 187.382812 C 222.777344 186.144531 223.800781 185.132812 225.050781 185.132812 Z M 234.152344 185.132812 C 235.402344 185.132812 236.425781 186.144531 236.425781 187.382812 C 236.425781 188.621094 235.402344 189.632812 234.152344 189.632812 C 232.898438 189.632812 231.875 188.621094 231.875 187.382812 C 231.875 186.144531 232.898438 185.132812 234.152344 185.132812 Z M 243.25 185.132812 C 244.503906 185.132812 245.527344 186.144531 245.527344 187.382812 C 245.527344 188.621094 244.503906 189.632812 243.25 189.632812 C 242 189.632812 240.976562 188.621094 240.976562 187.382812 C 240.976562 186.144531 242 185.132812 243.25 185.132812 Z M 252.351562 185.132812 C 253.601562 185.132812 254.625 186.144531 254.625 187.382812 C 254.625 188.621094 253.601562 189.632812 252.351562 189.632812 C 251.101562 189.632812 250.074219 188.621094 250.074219 187.382812 C 250.074219 186.144531 251.101562 185.132812 252.351562 185.132812 Z M 261.449219 185.132812 C 262.703125 185.132812 263.726562 186.144531 263.726562 187.382812 C 263.726562 188.621094 262.703125 189.632812 261.449219 189.632812 C 260.199219 189.632812 259.175781 188.621094 259.175781 187.382812 C 259.175781 186.144531 260.199219 185.132812 261.449219 185.132812 Z M 270.550781 185.132812 C 271.800781 185.132812 272.824219 186.144531 272.824219 187.382812 C 272.824219 188.621094 271.800781 189.632812 270.550781 189.632812 C 269.300781 189.632812 268.277344 188.621094 268.277344 187.382812 C 268.277344 186.144531 269.300781 185.132812 270.550781 185.132812 Z M 270.550781 185.132812 " />
    <g clip-path="url(#clip0)" clip-rule="nonzero">
      <path style=" stroke:none;fill-rule:nonzero;fill:rgb(100%,56.858826%,30.198669%);fill-opacity:1;"
        d="M 280.140625 185.132812 C 281.390625 185.132812 282.414062 186.144531 282.414062 187.382812 C 282.414062 188.621094 281.390625 189.632812 280.140625 189.632812 C 278.890625 189.632812 277.863281 188.621094 277.863281 187.382812 C 277.863281 186.144531 278.890625 185.132812 280.140625 185.132812 Z M 289.238281 185.132812 C 290.492188 185.132812 291.515625 186.144531 291.515625 187.382812 C 291.515625 188.621094 290.492188 189.632812 289.238281 189.632812 C 287.988281 189.632812 286.964844 188.621094 286.964844 187.382812 C 286.964844 186.144531 287.988281 185.132812 289.238281 185.132812 Z M 298.339844 185.132812 C 299.589844 185.132812 300.613281 186.144531 300.613281 187.382812 C 300.613281 188.621094 299.589844 189.632812 298.339844 189.632812 C 297.089844 189.632812 296.066406 188.621094 296.066406 187.382812 C 296.066406 186.144531 297.089844 185.132812 298.339844 185.132812 Z M 307.441406 185.132812 C 308.691406 185.132812 309.714844 186.144531 309.714844 187.382812 C 309.714844 188.621094 308.691406 189.632812 307.441406 189.632812 C 306.1875 189.632812 305.164062 188.621094 305.164062 187.382812 C 305.164062 186.144531 306.1875 185.132812 307.441406 185.132812 Z M 316.539062 185.132812 C 317.789062 185.132812 318.816406 186.144531 318.816406 187.382812 C 318.816406 188.621094 317.789062 189.632812 316.539062 189.632812 C 315.289062 189.632812 314.265625 188.621094 314.265625 187.382812 C 314.265625 186.144531 315.289062 185.132812 316.539062 185.132812 Z M 325.640625 185.132812 C 326.890625 185.132812 327.914062 186.144531 327.914062 187.382812 C 327.914062 188.621094 326.890625 189.632812 325.640625 189.632812 C 324.386719 189.632812 323.363281 188.621094 323.363281 187.382812 C 323.363281 186.144531 324.386719 185.132812 325.640625 185.132812 Z M 334.738281 185.132812 C 335.992188 185.132812 337.015625 186.144531 337.015625 187.382812 C 337.015625 188.621094 335.992188 189.632812 334.738281 189.632812 C 333.488281 189.632812 332.464844 188.621094 332.464844 187.382812 C 332.464844 186.144531 333.488281 185.132812 334.738281 185.132812 Z M 343.839844 185.132812 C 345.089844 185.132812 346.113281 186.144531 346.113281 187.382812 C 346.113281 188.621094 345.089844 189.632812 343.839844 189.632812 C 342.585938 189.632812 341.5625 188.621094 341.5625 187.382812 C 341.5625 186.144531 342.585938 185.132812 343.839844 185.132812 Z M 352.9375 185.132812 C 354.191406 185.132812 355.214844 186.144531 355.214844 187.382812 C 355.214844 188.621094 354.191406 189.632812 352.9375 189.632812 C 351.6875 189.632812 350.664062 188.621094 350.664062 187.382812 C 350.664062 186.144531 351.6875 185.132812 352.9375 185.132812 Z M 362.039062 185.132812 C 363.289062 185.132812 364.3125 186.144531 364.3125 187.382812 C 364.3125 188.621094 363.289062 189.632812 362.039062 189.632812 C 360.789062 189.632812 359.765625 188.621094 359.765625 187.382812 C 359.765625 186.144531 360.789062 185.132812 362.039062 185.132812 Z M 371.136719 185.132812 C 372.390625 185.132812 373.414062 186.144531 373.414062 187.382812 C 373.414062 188.621094 372.390625 189.632812 371.136719 189.632812 C 369.886719 189.632812 368.863281 188.621094 368.863281 187.382812 C 368.863281 186.144531 369.886719 185.132812 371.136719 185.132812 Z M 380.238281 185.132812 C 381.488281 185.132812 382.511719 186.144531 382.511719 187.382812 C 382.511719 188.621094 381.488281 189.632812 380.238281 189.632812 C 378.988281 189.632812 377.964844 188.621094 377.964844 187.382812 C 377.964844 186.144531 378.988281 185.132812 380.238281 185.132812 Z M 389.339844 185.132812 C 390.589844 185.132812 391.613281 186.144531 391.613281 187.382812 C 391.613281 188.621094 390.589844 189.632812 389.339844 189.632812 C 388.085938 189.632812 387.0625 188.621094 387.0625 187.382812 C 387.0625 186.144531 388.085938 185.132812 389.339844 185.132812 Z M 398.4375 185.132812 C 399.6875 185.132812 400.714844 186.144531 400.714844 187.382812 C 400.714844 188.621094 399.6875 189.632812 398.4375 189.632812 C 397.1875 189.632812 396.164062 188.621094 396.164062 187.382812 C 396.164062 186.144531 397.1875 185.132812 398.4375 185.132812 Z M 407.539062 185.132812 C 408.789062 185.132812 409.8125 186.144531 409.8125 187.382812 C 409.8125 188.621094 408.789062 189.632812 407.539062 189.632812 C 406.285156 189.632812 405.261719 188.621094 405.261719 187.382812 C 405.261719 186.144531 406.285156 185.132812 407.539062 185.132812 Z M 416.636719 185.132812 C 417.890625 185.132812 418.914062 186.144531 418.914062 187.382812 C 418.914062 188.621094 417.890625 189.632812 416.636719 189.632812 C 415.386719 189.632812 414.363281 188.621094 414.363281 187.382812 C 414.363281 186.144531 415.386719 185.132812 416.636719 185.132812 Z M 425.738281 185.132812 C 426.988281 185.132812 428.011719 186.144531 428.011719 187.382812 C 428.011719 188.621094 426.988281 189.632812 425.738281 189.632812 C 424.488281 189.632812 423.460938 188.621094 423.460938 187.382812 C 423.460938 186.144531 424.488281 185.132812 425.738281 185.132812 Z M 434.835938 185.132812 C 436.089844 185.132812 437.113281 186.144531 437.113281 187.382812 C 437.113281 188.621094 436.089844 189.632812 434.835938 189.632812 C 433.585938 189.632812 432.5625 188.621094 432.5625 187.382812 C 432.5625 186.144531 433.585938 185.132812 434.835938 185.132812 Z M 443.9375 185.132812 C 445.1875 185.132812 446.210938 186.144531 446.210938 187.382812 C 446.210938 188.621094 445.1875 189.632812 443.9375 189.632812 C 442.6875 189.632812 441.664062 188.621094 441.664062 187.382812 C 441.664062 186.144531 442.6875 185.132812 443.9375 185.132812 Z M 453.035156 185.132812 C 454.289062 185.132812 455.3125 186.144531 455.3125 187.382812 C 455.3125 188.621094 454.289062 189.632812 453.035156 189.632812 C 451.785156 189.632812 450.761719 188.621094 450.761719 187.382812 C 450.761719 186.144531 451.785156 185.132812 453.035156 185.132812 Z M 462.136719 185.132812 C 463.386719 185.132812 464.410156 186.144531 464.410156 187.382812 C 464.410156 188.621094 463.386719 189.632812 462.136719 189.632812 C 460.886719 189.632812 459.863281 188.621094 459.863281 187.382812 C 459.863281 186.144531 460.886719 185.132812 462.136719 185.132812 Z M 462.136719 185.132812 " />
    </g>
    <path style=" stroke:none;fill-rule:nonzero;fill:rgb(100%,100%,100%);fill-opacity:1;"
      d="M 141.757812 142.714844 L 149.40625 142.714844 L 149.40625 256.902344 L 141.757812 256.902344 Z M 141.757812 142.714844 " />
    <path style=" stroke:none;fill-rule:nonzero;fill:rgb(100%,100%,100%);fill-opacity:1;"
      d="M 149.40625 249.289062 L 141.757812 249.289062 L 141.757812 221.125 C 141.757812 211.609375 149.40625 203.613281 159.351562 203.613281 L 216.34375 203.613281 C 221.699219 203.613281 226.289062 199.429688 226.289062 193.71875 L 226.289062 169.359375 L 233.9375 169.359375 L 233.9375 193.71875 C 233.9375 203.234375 226.289062 211.226562 216.34375 211.226562 L 159.351562 211.226562 C 153.996094 211.226562 149.40625 215.414062 149.40625 221.125 Z M 149.40625 249.289062 " />
    <g clip-path="url(#clip00)" clip-rule="nonzero">
      <path style=" stroke:none;fill-rule:nonzero;fill:rgb(100%,100%,100%);fill-opacity:1;"
        d="M 130.28125 138.910156 C 130.28125 130.535156 137.164062 123.683594 145.582031 123.683594 C 153.996094 123.683594 160.882812 130.535156 160.882812 138.910156 C 160.882812 147.28125 153.996094 154.132812 145.582031 154.132812 C 137.164062 154.132812 130.28125 147.28125 130.28125 138.910156 Z M 229.730469 176.972656 C 238.144531 176.972656 245.03125 170.121094 245.03125 161.746094 C 245.03125 153.371094 238.144531 146.519531 229.730469 146.519531 C 221.316406 146.519531 214.429688 153.371094 214.429688 161.746094 C 214.429688 170.121094 221.316406 176.972656 229.730469 176.972656 Z M 229.730469 176.972656 " />
    </g>
    <g clip-path="url(#clip000)" clip-rule="nonzero">
      <path style=" stroke:none;fill-rule:nonzero;fill:rgb(100%,56.858826%,30.198669%);fill-opacity:1;"
        d="M 160.882812 260.707031 C 160.882812 261.707031 160.78125 262.699219 160.585938 263.679688 C 160.390625 264.660156 160.101562 265.609375 159.714844 266.535156 C 159.332031 267.457031 158.859375 268.335938 158.300781 269.167969 C 157.746094 270 157.109375 270.765625 156.398438 271.472656 C 155.6875 272.179688 154.917969 272.8125 154.082031 273.367188 C 153.246094 273.921875 152.363281 274.390625 151.4375 274.773438 C 150.507812 275.15625 149.550781 275.445312 148.566406 275.640625 C 147.582031 275.835938 146.585938 275.933594 145.582031 275.933594 C 144.578125 275.933594 143.582031 275.835938 142.597656 275.640625 C 141.609375 275.445312 140.652344 275.15625 139.726562 274.773438 C 138.796875 274.390625 137.914062 273.921875 137.082031 273.367188 C 136.246094 272.8125 135.472656 272.179688 134.761719 271.472656 C 134.050781 270.765625 133.417969 270 132.859375 269.167969 C 132.300781 268.335938 131.828125 267.457031 131.445312 266.535156 C 131.0625 265.609375 130.769531 264.660156 130.574219 263.679688 C 130.378906 262.699219 130.28125 261.707031 130.28125 260.707031 C 130.28125 259.707031 130.378906 258.71875 130.574219 257.738281 C 130.769531 256.757812 131.0625 255.804688 131.445312 254.882812 C 131.828125 253.957031 132.300781 253.082031 132.859375 252.25 C 133.417969 251.417969 134.050781 250.648438 134.761719 249.941406 C 135.472656 249.234375 136.246094 248.605469 137.082031 248.050781 C 137.914062 247.492188 138.796875 247.023438 139.726562 246.640625 C 140.652344 246.261719 141.609375 245.972656 142.597656 245.777344 C 143.582031 245.582031 144.578125 245.484375 145.582031 245.484375 C 146.585938 245.484375 147.582031 245.582031 148.566406 245.777344 C 149.550781 245.972656 150.507812 246.261719 151.4375 246.640625 C 152.363281 247.023438 153.246094 247.492188 154.082031 248.050781 C 154.917969 248.605469 155.6875 249.234375 156.398438 249.941406 C 157.109375 250.648438 157.746094 251.417969 158.300781 252.25 C 158.859375 253.082031 159.332031 253.957031 159.714844 254.882812 C 160.101562 255.804688 160.390625 256.757812 160.585938 257.738281 C 160.78125 258.71875 160.882812 259.707031 160.882812 260.707031 Z M 160.882812 260.707031 " />
    </g>
  </g>
</svg>