<?xml version="1.0" encoding="UTF-8"?>
<svg xmlns="http://www.w3.org/2000/svg" xmlns:xlink="http://www.w3.org/1999/xlink" viewBox="0 0 375 374.999991"
  version="1.2">
  <defs>
    <clipPath id="clip26">
      <path d="M 112.5 122.53125 L 261 122.53125 L 261 252.09375 L 112.5 252.09375 Z M 112.5 122.53125 " />
    </clipPath>
    <clipPath id="clip2626">
      <path d="M 201 194 L 262.5 194 L 262.5 227 L 201 227 Z M 201 194 " />
    </clipPath>
  </defs>
  <g id="surface26">
    <path style=" stroke:none;fill-rule:nonzero;fill:rgb(0%,0%,0%);fill-opacity:1;"
      d="M 187.5 84.375 C 185.8125 84.375 184.125 84.417969 182.441406 84.5 C 180.753906 84.582031 179.070312 84.707031 177.390625 84.871094 C 175.710938 85.039062 174.039062 85.242188 172.367188 85.492188 C 170.699219 85.738281 169.035156 86.027344 167.382812 86.355469 C 165.726562 86.6875 164.078125 87.054688 162.441406 87.464844 C 160.804688 87.875 159.179688 88.324219 157.5625 88.816406 C 155.949219 89.304688 154.347656 89.835938 152.757812 90.402344 C 151.167969 90.972656 149.59375 91.578125 148.035156 92.226562 C 146.476562 92.871094 144.933594 93.554688 143.410156 94.277344 C 141.882812 94.996094 140.375 95.757812 138.886719 96.550781 C 137.398438 97.347656 135.929688 98.179688 134.484375 99.046875 C 133.035156 99.914062 131.609375 100.816406 130.207031 101.753906 C 128.804688 102.691406 127.425781 103.664062 126.070312 104.667969 C 124.714844 105.675781 123.382812 106.710938 122.078125 107.785156 C 120.773438 108.855469 119.496094 109.957031 118.246094 111.089844 C 116.996094 112.222656 115.773438 113.386719 114.578125 114.578125 C 113.386719 115.773438 112.222656 116.996094 111.089844 118.246094 C 109.957031 119.496094 108.855469 120.773438 107.785156 122.078125 C 106.710938 123.382812 105.675781 124.714844 104.667969 126.070312 C 103.664062 127.425781 102.691406 128.804688 101.753906 130.207031 C 100.816406 131.609375 99.914062 133.035156 99.046875 134.484375 C 98.179688 135.929688 97.347656 137.398438 96.550781 138.886719 C 95.757812 140.375 94.996094 141.882812 94.277344 143.410156 C 93.554688 144.933594 92.871094 146.476562 92.226562 148.035156 C 91.578125 149.59375 90.972656 151.167969 90.402344 152.757812 C 89.835938 154.347656 89.304688 155.949219 88.816406 157.566406 C 88.324219 159.179688 87.875 160.804688 87.464844 162.441406 C 87.054688 164.078125 86.6875 165.726562 86.355469 167.382812 C 86.027344 169.035156 85.738281 170.699219 85.492188 172.367188 C 85.242188 174.039062 85.035156 175.710938 84.871094 177.390625 C 84.707031 179.070312 84.582031 180.753906 84.5 182.441406 C 84.417969 184.125 84.375 185.8125 84.375 187.5 C 84.375 189.1875 84.417969 190.875 84.5 192.558594 C 84.582031 194.246094 84.707031 195.929688 84.871094 197.609375 C 85.035156 199.289062 85.242188 200.960938 85.492188 202.632812 C 85.738281 204.300781 86.027344 205.964844 86.355469 207.617188 C 86.6875 209.273438 87.054688 210.921875 87.464844 212.558594 C 87.875 214.195312 88.324219 215.820312 88.816406 217.4375 C 89.304688 219.050781 89.835938 220.652344 90.402344 222.242188 C 90.972656 223.832031 91.578125 225.40625 92.226562 226.964844 C 92.871094 228.523438 93.554688 230.066406 94.277344 231.589844 C 94.996094 233.117188 95.757812 234.625 96.550781 236.113281 C 97.347656 237.601562 98.179688 239.070312 99.046875 240.515625 C 99.914062 241.964844 100.816406 243.390625 101.753906 244.792969 C 102.691406 246.195312 103.664062 247.574219 104.667969 248.929688 C 105.675781 250.289062 106.710938 251.617188 107.785156 252.921875 C 108.855469 254.226562 109.957031 255.503906 111.089844 256.753906 C 112.222656 258.003906 113.386719 259.226562 114.578125 260.421875 C 115.773438 261.613281 116.996094 262.777344 118.246094 263.910156 C 119.496094 265.042969 120.773438 266.144531 122.078125 267.214844 C 123.382812 268.289062 124.714844 269.324219 126.070312 270.332031 C 127.425781 271.335938 128.804688 272.308594 130.207031 273.246094 C 131.609375 274.183594 133.035156 275.085938 134.484375 275.953125 C 135.929688 276.820312 137.398438 277.652344 138.886719 278.449219 C 140.375 279.242188 141.882812 280.003906 143.410156 280.722656 C 144.933594 281.445312 146.476562 282.128906 148.035156 282.773438 C 149.59375 283.421875 151.167969 284.027344 152.757812 284.597656 C 154.347656 285.164062 155.949219 285.695312 157.5625 286.183594 C 159.179688 286.675781 160.804688 287.125 162.441406 287.535156 C 164.078125 287.945312 165.726562 288.3125 167.382812 288.644531 C 169.035156 288.972656 170.699219 289.261719 172.367188 289.507812 C 174.039062 289.757812 175.710938 289.964844 177.390625 290.128906 C 179.070312 290.292969 180.753906 290.417969 182.441406 290.5 C 184.125 290.582031 185.8125 290.625 187.5 290.625 C 189.1875 290.625 190.875 290.582031 192.558594 290.5 C 194.246094 290.417969 195.929688 290.292969 197.609375 290.128906 C 199.289062 289.964844 200.960938 289.757812 202.632812 289.507812 C 204.300781 289.261719 205.964844 288.972656 207.617188 288.644531 C 209.273438 288.3125 210.921875 287.945312 212.558594 287.535156 C 214.195312 287.125 215.820312 286.675781 217.4375 286.183594 C 219.050781 285.695312 220.652344 285.164062 222.242188 284.597656 C 223.832031 284.027344 225.40625 283.421875 226.964844 282.773438 C 228.523438 282.128906 230.066406 281.445312 231.589844 280.722656 C 233.117188 280.003906 234.625 279.242188 236.113281 278.449219 C 237.601562 277.652344 239.070312 276.820312 240.515625 275.953125 C 241.964844 275.085938 243.390625 274.183594 244.792969 273.246094 C 246.195312 272.308594 247.574219 271.335938 248.929688 270.332031 C 250.285156 269.324219 251.617188 268.289062 252.921875 267.214844 C 254.226562 266.144531 255.503906 265.042969 256.753906 263.910156 C 258.003906 262.777344 259.226562 261.613281 260.421875 260.421875 C 261.613281 259.226562 262.777344 258.003906 263.910156 256.753906 C 265.042969 255.503906 266.144531 254.226562 267.214844 252.921875 C 268.289062 251.617188 269.324219 250.289062 270.332031 248.929688 C 271.335938 247.574219 272.308594 246.195312 273.246094 244.792969 C 274.183594 243.390625 275.085938 241.964844 275.953125 240.515625 C 276.820312 239.070312 277.652344 237.601562 278.449219 236.113281 C 279.242188 234.625 280.003906 233.117188 280.722656 231.589844 C 281.445312 230.066406 282.128906 228.523438 282.773438 226.964844 C 283.421875 225.40625 284.027344 223.832031 284.597656 222.242188 C 285.164062 220.652344 285.695312 219.050781 286.183594 217.4375 C 286.675781 215.820312 287.125 214.195312 287.535156 212.558594 C 287.945312 210.921875 288.3125 209.273438 288.644531 207.617188 C 288.972656 205.964844 289.261719 204.300781 289.507812 202.632812 C 289.757812 200.960938 289.964844 199.289062 290.128906 197.609375 C 290.292969 195.929688 290.417969 194.246094 290.5 192.558594 C 290.582031 190.875 290.625 189.1875 290.625 187.5 C 290.625 185.8125 290.582031 184.125 290.5 182.441406 C 290.417969 180.753906 290.292969 179.070312 290.128906 177.390625 C 289.964844 175.710938 289.757812 174.039062 289.507812 172.367188 C 289.261719 170.699219 288.972656 169.035156 288.644531 167.382812 C 288.3125 165.726562 287.945312 164.078125 287.535156 162.441406 C 287.125 160.804688 286.675781 159.179688 286.183594 157.566406 C 285.695312 155.949219 285.164062 154.347656 284.597656 152.757812 C 284.027344 151.167969 283.421875 149.59375 282.773438 148.035156 C 282.128906 146.476562 281.445312 144.933594 280.722656 143.410156 C 280.003906 141.882812 279.242188 140.375 278.449219 138.886719 C 277.652344 137.398438 276.820312 135.929688 275.953125 134.484375 C 275.085938 133.035156 274.183594 131.609375 273.246094 130.207031 C 272.308594 128.804688 271.335938 127.425781 270.332031 126.070312 C 269.324219 124.714844 268.289062 123.382812 267.214844 122.078125 C 266.144531 120.773438 265.042969 119.496094 263.910156 118.246094 C 262.777344 116.996094 261.613281 115.773438 260.421875 114.578125 C 259.226562 113.386719 258.003906 112.222656 256.753906 111.089844 C 255.503906 109.957031 254.226562 108.855469 252.921875 107.785156 C 251.617188 106.710938 250.285156 105.675781 248.929688 104.667969 C 247.574219 103.664062 246.195312 102.691406 244.792969 101.753906 C 243.390625 100.816406 241.964844 99.914062 240.515625 99.046875 C 239.070312 98.179688 237.601562 97.347656 236.113281 96.550781 C 234.625 95.757812 233.117188 94.996094 231.589844 94.277344 C 230.066406 93.554688 228.523438 92.871094 226.964844 92.226562 C 225.40625 91.578125 223.832031 90.972656 222.242188 90.402344 C 220.652344 89.835938 219.050781 89.304688 217.4375 88.816406 C 215.820312 88.324219 214.195312 87.875 212.558594 87.464844 C 210.921875 87.054688 209.273438 86.6875 207.617188 86.355469 C 205.964844 86.027344 204.300781 85.738281 202.632812 85.492188 C 200.960938 85.242188 199.289062 85.039062 197.609375 84.871094 C 195.929688 84.707031 194.246094 84.582031 192.558594 84.5 C 190.875 84.417969 189.1875 84.375 187.5 84.375 Z M 187.5 84.375 " />
    <g clip-path="url(#clip1)" clip-rule="nonzero">
      <path style=" stroke:none;fill-rule:nonzero;fill:rgb(78.039551%,92.939758%,90.19928%);fill-opacity:1;"
        d="M 253.757812 199.386719 C 255.808594 195.507812 256.980469 191.101562 256.980469 186.414062 C 256.980469 174.5 249.476562 164.355469 238.933594 160.359375 C 238.933594 160.347656 238.933594 160.335938 238.933594 160.320312 C 238.933594 139.449219 221.964844 122.53125 201.035156 122.53125 C 183.378906 122.53125 168.585938 134.589844 164.375 150.886719 C 161.710938 150.011719 158.875 149.523438 155.917969 149.523438 C 142.035156 149.523438 130.609375 159.949219 129.046875 173.371094 C 119.65625 175.351562 112.605469 183.65625 112.605469 193.609375 C 112.605469 205.039062 121.898438 214.304688 133.359375 214.304688 C 133.679688 214.304688 133.996094 214.285156 134.308594 214.265625 C 134.300781 214.582031 134.261719 214.886719 134.261719 215.203125 C 134.261719 235.578125 150.824219 252.09375 171.257812 252.09375 C 182.875 252.09375 193.230469 246.746094 200.015625 238.394531 C 203.945312 242.398438 209.410156 244.894531 215.472656 244.894531 C 223.863281 244.894531 231.125 240.128906 234.722656 233.167969 C 236.621094 233.769531 238.640625 234.097656 240.738281 234.097656 C 251.703125 234.097656 260.589844 225.238281 260.589844 214.304688 C 260.589844 208.347656 257.9375 203.015625 253.757812 199.386719 Z M 253.757812 199.386719 " />
    </g>
    <path style=" stroke:none;fill-rule:nonzero;fill:rgb(99.21875%,98.81897%,93.728638%);fill-opacity:1;"
      d="M 238.03125 226 L 238.03125 226.902344 L 243.445312 226.902344 L 243.445312 226 C 243.445312 226 251.101562 226 253.371094 226 C 257.855469 226 261.492188 222.375 261.492188 217.902344 C 261.492188 213.707031 258.277344 210.292969 254.175781 209.886719 C 254.214844 209.5625 254.273438 209.242188 254.273438 208.90625 C 254.273438 204.433594 250.636719 200.808594 246.152344 200.808594 C 243.558594 200.808594 241.273438 202.042969 239.789062 203.933594 C 239.535156 199.1875 235.632812 195.410156 230.8125 195.410156 C 225.828125 195.410156 221.789062 199.4375 221.789062 204.40625 C 221.789062 205.210938 221.929688 205.972656 222.125 206.714844 C 220.96875 205.316406 219.238281 204.40625 217.277344 204.40625 C 214.0625 204.40625 211.441406 206.808594 211.042969 209.90625 C 210.714844 209.867188 210.394531 209.804688 210.058594 209.804688 C 205.574219 209.804688 201.9375 213.433594 201.9375 217.902344 C 201.9375 222.375 205.574219 226 210.058594 226 C 214.542969 226 227.203125 226 227.203125 226 Z M 238.03125 226 " />
    <g clip-path="url(#clip2626)" clip-rule="nonzero">
      <path style=" stroke:none;fill-rule:nonzero;fill:rgb(27.839661%,16.859436%,16.079712%);fill-opacity:1;"
        d="M 230.8125 194.511719 C 225.339844 194.511719 220.886719 198.949219 220.886719 204.40625 C 220.886719 204.4375 220.886719 204.464844 220.886719 204.492188 C 219.800781 203.855469 218.558594 203.507812 217.277344 203.507812 C 213.972656 203.507812 211.121094 205.777344 210.316406 208.914062 C 210.230469 208.910156 210.144531 208.90625 210.058594 208.90625 C 205.082031 208.90625 201.035156 212.941406 201.035156 217.902344 C 201.035156 222.863281 205.082031 226.902344 210.058594 226.902344 L 238.03125 226.902344 C 238.53125 226.902344 238.933594 226.5 238.933594 226 C 238.933594 225.503906 238.53125 225.101562 238.03125 225.101562 L 210.058594 225.101562 C 206.078125 225.101562 202.839844 221.875 202.839844 217.902344 C 202.839844 213.933594 206.078125 210.707031 210.058594 210.707031 C 210.269531 210.707031 210.472656 210.738281 210.675781 210.761719 L 210.933594 210.796875 C 210.96875 210.804688 211.007812 210.804688 211.042969 210.804688 C 211.488281 210.804688 211.878906 210.472656 211.9375 210.019531 C 212.28125 207.332031 214.578125 205.308594 217.277344 205.308594 C 218.875 205.308594 220.386719 206.027344 221.429688 207.285156 C 221.605469 207.5 221.863281 207.613281 222.125 207.613281 C 222.265625 207.613281 222.40625 207.582031 222.539062 207.515625 C 222.914062 207.320312 223.105469 206.890625 222.996094 206.484375 C 222.789062 205.699219 222.691406 205.042969 222.691406 204.40625 C 222.691406 199.941406 226.335938 196.308594 230.8125 196.308594 C 235.109375 196.308594 238.65625 199.679688 238.886719 203.980469 C 238.90625 204.355469 239.15625 204.679688 239.515625 204.792969 C 239.605469 204.820312 239.699219 204.835938 239.789062 204.835938 C 240.0625 204.835938 240.324219 204.710938 240.5 204.488281 C 241.890625 202.722656 243.949219 201.707031 246.152344 201.707031 C 250.132812 201.707031 253.371094 204.9375 253.371094 208.90625 C 253.371094 209.117188 253.339844 209.320312 253.3125 209.523438 L 253.277344 209.777344 C 253.25 210.019531 253.320312 210.257812 253.46875 210.449219 C 253.621094 210.636719 253.84375 210.757812 254.082031 210.78125 C 257.792969 211.152344 260.589844 214.214844 260.589844 217.902344 C 260.589844 221.875 257.351562 225.101562 253.371094 225.101562 L 243.445312 225.101562 C 242.945312 225.101562 242.542969 225.503906 242.542969 226 C 242.542969 226.5 242.945312 226.902344 243.445312 226.902344 L 253.371094 226.902344 C 258.347656 226.902344 262.394531 222.863281 262.394531 217.902344 C 262.394531 213.589844 259.347656 209.960938 255.171875 209.128906 C 255.175781 209.054688 255.175781 208.980469 255.175781 208.90625 C 255.175781 203.945312 251.128906 199.910156 246.152344 199.910156 C 244.03125 199.910156 242.015625 200.65625 240.40625 202.003906 C 239.328125 197.679688 235.421875 194.511719 230.8125 194.511719 Z M 230.8125 194.511719 " />
    </g>
    <path style=" stroke:none;fill-rule:nonzero;fill:rgb(27.839661%,16.859436%,16.079712%);fill-opacity:1;"
      d="M 228.105469 207.105469 C 225.574219 207.105469 223.398438 208.90625 222.847656 211.320312 C 222.1875 210.921875 221.429688 210.707031 220.660156 210.707031 C 218.492188 210.707031 216.695312 212.320312 216.414062 214.425781 C 216.046875 214.34375 215.699219 214.304688 215.359375 214.304688 C 212.601562 214.304688 210.289062 216.464844 210.09375 219.222656 C 210.078125 219.46875 210.265625 219.683594 210.511719 219.703125 C 210.523438 219.703125 210.535156 219.703125 210.542969 219.703125 C 210.777344 219.703125 210.976562 219.523438 210.992188 219.285156 C 211.152344 217 213.070312 215.203125 215.359375 215.203125 C 215.773438 215.203125 216.207031 215.277344 216.691406 215.433594 C 216.730469 215.445312 216.773438 215.453125 216.8125 215.453125 C 216.910156 215.453125 217.011719 215.414062 217.09375 215.355469 C 217.207031 215.269531 217.277344 215.125 217.277344 214.980469 C 217.277344 213.117188 218.796875 211.605469 220.660156 211.605469 C 221.46875 211.605469 222.257812 211.90625 222.882812 212.457031 C 222.96875 212.53125 223.074219 212.570312 223.179688 212.570312 C 223.238281 212.570312 223.292969 212.558594 223.347656 212.535156 C 223.507812 212.472656 223.617188 212.324219 223.628906 212.15625 C 223.816406 209.828125 225.78125 208.007812 228.105469 208.007812 C 228.480469 208.007812 228.871094 208.066406 229.335938 208.199219 C 229.378906 208.210938 229.421875 208.21875 229.460938 208.21875 C 229.660156 208.21875 229.835938 208.085938 229.894531 207.890625 C 229.960938 207.652344 229.824219 207.402344 229.582031 207.332031 C 229.039062 207.179688 228.566406 207.105469 228.105469 207.105469 Z M 253.160156 209.804688 C 250.765625 209.804688 248.632812 211.421875 247.972656 213.734375 C 247.90625 213.972656 248.042969 214.21875 248.285156 214.289062 C 248.328125 214.300781 248.367188 214.304688 248.40625 214.304688 C 248.605469 214.304688 248.785156 214.175781 248.839844 213.976562 C 249.390625 212.050781 251.167969 210.707031 253.160156 210.707031 C 253.371094 210.707031 253.574219 210.730469 253.777344 210.757812 C 253.796875 210.761719 253.820312 210.761719 253.839844 210.761719 C 254.058594 210.761719 254.253906 210.597656 254.285156 210.375 C 254.320312 210.125 254.144531 209.898438 253.898438 209.867188 C 253.65625 209.835938 253.410156 209.804688 253.160156 209.804688 Z M 253.160156 209.804688 " />
    <path style=" stroke:none;fill-rule:nonzero;fill:rgb(100%,100%,100%);fill-opacity:1;"
      d="M 153.210938 234.097656 L 135.164062 234.097656 C 134.664062 234.097656 134.261719 233.695312 134.261719 233.199219 C 134.261719 232.703125 134.664062 232.300781 135.164062 232.300781 L 153.210938 232.300781 C 153.710938 232.300781 154.113281 232.703125 154.113281 233.199219 C 154.113281 233.695312 153.710938 234.097656 153.210938 234.097656 Z M 158.625 234.097656 L 156.820312 234.097656 C 156.320312 234.097656 155.917969 233.695312 155.917969 233.199219 C 155.917969 232.703125 156.320312 232.300781 156.820312 232.300781 L 158.625 232.300781 C 159.125 232.300781 159.527344 232.703125 159.527344 233.199219 C 159.527344 233.695312 159.125 234.097656 158.625 234.097656 Z M 167.632812 237.699219 L 151.40625 237.699219 C 150.90625 237.699219 150.503906 237.296875 150.503906 236.796875 C 150.503906 236.300781 150.90625 235.898438 151.40625 235.898438 L 167.632812 235.898438 C 168.128906 235.898438 168.535156 236.300781 168.535156 236.796875 C 168.535156 237.296875 168.128906 237.699219 167.632812 237.699219 Z M 147.796875 237.699219 L 145.992188 237.699219 C 145.492188 237.699219 145.089844 237.296875 145.089844 236.796875 C 145.089844 236.300781 145.492188 235.898438 145.992188 235.898438 L 147.796875 235.898438 C 148.296875 235.898438 148.699219 236.300781 148.699219 236.796875 C 148.699219 237.296875 148.296875 237.699219 147.796875 237.699219 Z M 142.382812 237.699219 L 138.773438 237.699219 C 138.273438 237.699219 137.871094 237.296875 137.871094 236.796875 C 137.871094 236.300781 138.273438 235.898438 138.773438 235.898438 L 142.382812 235.898438 C 142.882812 235.898438 143.285156 236.300781 143.285156 236.796875 C 143.285156 237.296875 142.882812 237.699219 142.382812 237.699219 Z M 153.210938 241.296875 L 149.601562 241.296875 C 149.101562 241.296875 148.699219 240.894531 148.699219 240.398438 C 148.699219 239.902344 149.101562 239.496094 149.601562 239.496094 L 153.210938 239.496094 C 153.710938 239.496094 154.113281 239.902344 154.113281 240.398438 C 154.113281 240.894531 153.710938 241.296875 153.210938 241.296875 Z M 158.625 225.101562 C 158.304688 225.101562 157.140625 225.101562 156.820312 225.101562 C 156.320312 225.101562 155.917969 225.503906 155.917969 226 C 155.917969 226.5 156.320312 226.902344 156.820312 226.902344 C 157.140625 226.902344 158.304688 226.902344 158.625 226.902344 C 159.125 226.902344 159.527344 226.5 159.527344 226 C 159.527344 225.503906 159.125 225.101562 158.625 225.101562 Z M 158.625 228.699219 C 158.304688 228.699219 149.921875 228.699219 149.601562 228.699219 C 149.101562 228.699219 148.699219 229.105469 148.699219 229.601562 C 148.699219 230.097656 149.101562 230.5 149.601562 230.5 C 149.921875 230.5 158.304688 230.5 158.625 230.5 C 159.125 230.5 159.527344 230.097656 159.527344 229.601562 C 159.527344 229.105469 159.125 228.699219 158.625 228.699219 Z M 167.648438 232.300781 C 167.328125 232.300781 162.554688 232.300781 162.234375 232.300781 C 161.734375 232.300781 161.332031 232.703125 161.332031 233.199219 C 161.332031 233.695312 161.734375 234.097656 162.234375 234.097656 C 162.554688 234.097656 167.328125 234.097656 167.648438 234.097656 C 168.148438 234.097656 168.550781 233.695312 168.550781 233.199219 C 168.550781 232.703125 168.148438 232.300781 167.648438 232.300781 Z M 167.648438 232.300781 " />
    <path style=" stroke:none;fill-rule:nonzero;fill:rgb(100%,100%,100%);fill-opacity:1;"
      d="M 227.203125 140.527344 L 209.15625 140.527344 C 208.65625 140.527344 208.253906 140.125 208.253906 139.625 C 208.253906 139.128906 208.65625 138.726562 209.15625 138.726562 L 227.203125 138.726562 C 227.703125 138.726562 228.105469 139.128906 228.105469 139.625 C 228.105469 140.125 227.703125 140.527344 227.203125 140.527344 Z M 234.421875 140.527344 L 230.8125 140.527344 C 230.3125 140.527344 229.910156 140.125 229.910156 139.625 C 229.910156 139.128906 230.3125 138.726562 230.8125 138.726562 L 234.421875 138.726562 C 234.921875 138.726562 235.324219 139.128906 235.324219 139.625 C 235.324219 140.125 234.921875 140.527344 234.421875 140.527344 Z M 243.445312 144.125 L 225.398438 144.125 C 224.898438 144.125 224.496094 143.722656 224.496094 143.226562 C 224.496094 142.730469 224.898438 142.324219 225.398438 142.324219 L 243.445312 142.324219 C 243.945312 142.324219 244.347656 142.730469 244.347656 143.226562 C 244.347656 143.722656 243.945312 144.125 243.445312 144.125 Z M 221.789062 144.125 L 219.984375 144.125 C 219.484375 144.125 219.082031 143.722656 219.082031 143.226562 C 219.082031 142.730469 219.484375 142.324219 219.984375 142.324219 L 221.789062 142.324219 C 222.289062 142.324219 222.691406 142.730469 222.691406 143.226562 C 222.691406 143.722656 222.289062 144.125 221.789062 144.125 Z M 216.320312 144.125 L 212.765625 144.125 C 212.265625 144.125 211.863281 143.722656 211.863281 143.226562 C 211.863281 142.730469 212.265625 142.324219 212.765625 142.324219 L 216.320312 142.324219 C 216.820312 142.324219 217.222656 142.730469 217.222656 143.226562 C 217.222656 143.722656 216.820312 144.125 216.320312 144.125 Z M 232.617188 136.925781 L 223.59375 136.925781 C 223.09375 136.925781 222.691406 136.523438 222.691406 136.027344 C 222.691406 135.53125 223.09375 135.128906 223.59375 135.128906 L 232.617188 135.128906 C 233.117188 135.128906 233.519531 135.53125 233.519531 136.027344 C 233.519531 136.523438 233.117188 136.925781 232.617188 136.925781 Z M 227.203125 147.722656 L 223.59375 147.722656 C 223.09375 147.722656 222.691406 147.320312 222.691406 146.824219 C 222.691406 146.328125 223.09375 145.925781 223.59375 145.925781 L 227.203125 145.925781 C 227.703125 145.925781 228.105469 146.328125 228.105469 146.824219 C 228.105469 147.320312 227.703125 147.722656 227.203125 147.722656 Z M 227.203125 147.722656 " />
    <path style=" stroke:none;fill-rule:nonzero;fill:rgb(91.758728%,31.759644%,40.388489%);fill-opacity:1;"
      d="M 164.597656 182.96875 C 166.699219 170.78125 177.320312 161.5 190.140625 161.5 C 195.964844 161.5 201.320312 163.4375 205.652344 166.667969 L 216.707031 154.796875 C 209.472656 148.882812 200.226562 145.332031 190.140625 145.332031 C 169.484375 145.332031 152.328125 160.226562 148.851562 179.828125 Z M 164.597656 182.96875 " />
    <path style=" stroke:none;fill-rule:nonzero;fill:rgb(0%,65.098572%,59.609985%);fill-opacity:1;"
      d="M 205.542969 208.183594 C 201.234375 211.359375 195.90625 213.242188 190.140625 213.242188 C 176.578125 213.242188 165.460938 202.859375 164.308594 189.632812 L 148.898438 194.753906 C 152.484375 214.222656 169.578125 228.980469 190.140625 228.980469 C 200.96875 228.980469 210.839844 224.886719 218.28125 218.167969 Z M 205.542969 208.183594 " />
    <path style=" stroke:none;fill-rule:nonzero;fill:rgb(28.239441%,74.508667%,84.709167%);fill-opacity:1;"
      d="M 222.136719 179.609375 L 191.003906 179.609375 L 191.003906 195.132812 L 214.894531 195.132812 C 213.039062 201.019531 209.128906 206 204.003906 209.238281 L 216.535156 219.652344 C 226.019531 211.984375 232.085938 200.28125 232.085938 187.15625 C 232.085938 184.582031 231.839844 182.0625 231.390625 179.613281 L 222.136719 179.613281 Z M 222.136719 179.609375 " />
    <path style=" stroke:none;fill-rule:nonzero;fill:rgb(99.21875%,90.589905%,31.759644%);fill-opacity:1;"
      d="M 164.195312 187.371094 C 164.195312 183.605469 165.019531 180.039062 166.46875 176.8125 L 152.949219 167.824219 C 149.917969 173.605469 148.195312 180.179688 148.195312 187.15625 C 148.195312 193.683594 149.695312 199.859375 152.367188 205.363281 L 165.921875 195.992188 C 165.289062 193.753906 164.195312 189.8125 164.195312 187.371094 Z M 164.195312 187.371094 " />
    <path style=" stroke:none;fill-rule:nonzero;fill:rgb(27.839661%,16.859436%,16.079712%);fill-opacity:1;"
      d="M 190.136719 230.183594 C 166.34375 230.183594 146.984375 210.882812 146.984375 187.15625 C 146.984375 163.425781 166.34375 144.125 190.136719 144.125 C 200.085938 144.125 209.792969 147.582031 217.472656 153.863281 L 218.46875 154.675781 L 205.796875 168.285156 L 204.925781 167.636719 C 200.605469 164.414062 195.492188 162.707031 190.136719 162.707031 C 176.5 162.707031 165.40625 173.773438 165.40625 187.371094 C 165.40625 200.96875 176.5 212.03125 190.136719 212.03125 C 200.441406 212.03125 209.503906 205.792969 213.183594 196.339844 L 189.792969 196.339844 L 189.792969 178.402344 L 232.398438 178.402344 L 232.578125 179.390625 C 233.054688 181.984375 233.292969 184.59375 233.292969 187.15625 C 233.292969 210.882812 213.933594 230.183594 190.136719 230.183594 Z M 190.136719 146.539062 C 167.679688 146.539062 149.40625 164.761719 149.40625 187.15625 C 149.40625 209.550781 167.679688 227.769531 190.136719 227.769531 C 212.597656 227.769531 230.871094 209.550781 230.871094 187.15625 C 230.871094 185.066406 230.699219 182.9375 230.363281 180.816406 L 192.214844 180.816406 L 192.214844 193.925781 L 216.539062 193.925781 L 216.046875 195.492188 C 212.472656 206.828125 202.058594 214.445312 190.136719 214.445312 C 175.164062 214.445312 162.980469 202.300781 162.980469 187.371094 C 162.980469 172.441406 175.164062 160.292969 190.136719 160.292969 C 195.65625 160.292969 200.9375 161.941406 205.488281 165.066406 L 214.925781 154.929688 C 207.847656 149.511719 199.09375 146.539062 190.136719 146.539062 Z M 190.136719 146.539062 " />
    <path style=" stroke:none;fill-rule:nonzero;fill:rgb(99.21875%,98.81897%,93.728638%);fill-opacity:1;"
      d="M 162.234375 163.019531 C 162.234375 163.019531 165.0625 163.019531 168.550781 163.019531 C 172.039062 163.019531 174.867188 160.199219 174.867188 156.722656 C 174.867188 153.515625 172.457031 150.902344 169.355469 150.503906 C 169.40625 150.183594 169.453125 149.859375 169.453125 149.523438 C 169.453125 146.046875 166.625 143.226562 163.136719 143.226562 C 161.273438 143.226562 159.617188 144.042969 158.460938 145.320312 C 157.769531 142.066406 154.875 139.625 151.40625 139.625 C 147.417969 139.625 144.1875 142.847656 144.1875 146.824219 C 144.1875 147.167969 144.242188 147.496094 144.289062 147.828125 C 143.515625 147.210938 142.550781 146.824219 141.480469 146.824219 C 139.265625 146.824219 137.429688 148.421875 137.050781 150.523438 C 136.726562 150.472656 136.402344 150.421875 136.066406 150.421875 C 132.578125 150.421875 129.75 153.242188 129.75 156.722656 C 129.75 160.199219 132.578125 163.019531 136.066406 163.019531 C 139.554688 163.019531 149.601562 163.019531 149.601562 163.019531 L 149.601562 163.917969 L 162.234375 163.917969 Z M 162.234375 163.019531 " />
    <path style=" stroke:none;fill-rule:nonzero;fill:rgb(27.839661%,16.859436%,16.079712%);fill-opacity:1;"
      d="M 165.390625 154.921875 C 165.144531 154.921875 164.941406 154.71875 164.941406 154.472656 C 164.941406 152.269531 166.738281 150.480469 168.945312 150.480469 C 169.003906 150.496094 170.273438 150.480469 171.1875 150.726562 C 171.429688 150.789062 171.570312 151.035156 171.507812 151.277344 C 171.441406 151.515625 171.195312 151.660156 170.953125 151.59375 C 170.152344 151.378906 168.96875 151.378906 168.945312 151.378906 C 167.234375 151.378906 165.84375 152.769531 165.84375 154.472656 C 165.84375 154.71875 165.640625 154.921875 165.390625 154.921875 Z M 153.210938 162.121094 C 152.960938 162.121094 152.75 162.207031 152.574219 162.382812 C 152.398438 162.558594 152.308594 162.769531 152.308594 163.019531 C 152.308594 163.269531 152.398438 163.480469 152.574219 163.65625 C 152.75 163.832031 152.960938 163.917969 153.210938 163.917969 C 153.460938 163.917969 153.671875 163.832031 153.847656 163.65625 C 154.023438 163.480469 154.113281 163.269531 154.113281 163.019531 C 154.113281 162.769531 154.023438 162.558594 153.847656 162.382812 C 153.671875 162.207031 153.460938 162.121094 153.210938 162.121094 Z M 153.210938 162.121094 " />
    <path style=" stroke:none;fill-rule:nonzero;fill:rgb(27.839661%,16.859436%,16.079712%);fill-opacity:1;"
      d="M 168.550781 163.917969 L 162.234375 163.917969 C 161.734375 163.917969 161.332031 163.515625 161.332031 163.019531 C 161.332031 162.523438 161.734375 162.121094 162.234375 162.121094 L 168.550781 162.121094 C 171.535156 162.121094 173.964844 159.699219 173.964844 156.722656 C 173.964844 154.03125 171.933594 151.742188 169.238281 151.398438 C 169 151.363281 168.78125 151.238281 168.632812 151.042969 C 168.488281 150.851562 168.425781 150.605469 168.464844 150.367188 C 168.503906 150.089844 168.550781 149.8125 168.550781 149.523438 C 168.550781 146.546875 166.121094 144.125 163.136719 144.125 C 161.601562 144.125 160.179688 144.765625 159.132812 145.925781 C 158.90625 146.175781 158.554688 146.28125 158.230469 146.191406 C 157.902344 146.101562 157.652344 145.839844 157.578125 145.507812 C 156.964844 142.621094 154.367188 140.527344 151.40625 140.527344 C 147.921875 140.527344 145.089844 143.351562 145.089844 146.824219 C 145.089844 147.082031 145.128906 147.328125 145.164062 147.578125 C 145.214844 147.941406 145.050781 148.363281 144.726562 148.546875 C 144.402344 148.730469 144.011719 148.761719 143.722656 148.53125 C 143.066406 148.003906 142.289062 147.722656 141.480469 147.722656 C 139.738281 147.722656 138.246094 148.96875 137.9375 150.683594 C 137.851562 151.164062 137.402344 151.484375 136.910156 151.410156 C 136.632812 151.367188 136.355469 151.324219 136.066406 151.324219 C 133.082031 151.324219 130.652344 153.746094 130.652344 156.722656 C 130.652344 159.699219 133.082031 162.121094 136.066406 162.121094 L 149.601562 162.121094 C 150.101562 162.121094 150.503906 162.523438 150.503906 163.019531 C 150.503906 163.515625 150.101562 163.917969 149.601562 163.917969 L 136.066406 163.917969 C 132.085938 163.917969 128.847656 160.691406 128.847656 156.722656 C 128.847656 152.75 132.085938 149.523438 136.066406 149.523438 C 136.171875 149.523438 136.277344 149.527344 136.378906 149.535156 C 137.128906 147.398438 139.152344 145.925781 141.480469 145.925781 C 142.109375 145.925781 142.722656 146.035156 143.304688 146.25 C 143.601562 142.050781 147.121094 138.726562 151.40625 138.726562 C 154.710938 138.726562 157.660156 140.753906 158.902344 143.71875 C 160.128906 142.824219 161.613281 142.324219 163.136719 142.324219 C 167.117188 142.324219 170.355469 145.554688 170.355469 149.523438 C 170.355469 149.609375 170.355469 149.695312 170.347656 149.777344 C 173.492188 150.585938 175.769531 153.425781 175.769531 156.722656 C 175.769531 160.691406 172.53125 163.917969 168.550781 163.917969 Z M 168.550781 163.917969 " />
    <path style=" stroke:none;fill-rule:nonzero;fill:rgb(27.839661%,16.859436%,16.079712%);fill-opacity:1;"
      d="M 158.625 162.121094 C 158.339844 162.121094 157.105469 162.121094 156.820312 162.121094 C 156.320312 162.121094 155.917969 162.523438 155.917969 163.019531 C 155.917969 163.515625 156.320312 163.917969 156.820312 163.917969 C 157.105469 163.917969 158.339844 163.917969 158.625 163.917969 C 159.125 163.917969 159.527344 163.515625 159.527344 163.019531 C 159.527344 162.523438 159.125 162.121094 158.625 162.121094 Z M 158.625 162.121094 " />
  </g>
</svg>