<?xml version="1.0" encoding="UTF-8"?>
<svg xmlns="http://www.w3.org/2000/svg" xmlns:xlink="http://www.w3.org/1999/xlink" width="375pt" height="374.999991pt"
  viewBox="0 0 375 374.999991" version="1.2">
  <defs>
    <clipPath id="clip25">
      <path d="M 112.5 114 L 262.5 114 L 262.5 261 L 112.5 261 Z M 112.5 114 " />
    </clipPath>
  </defs>
  <g id="surface25">
    <g clip-path="url(#clip25)" clip-rule="nonzero">
      <path style=" stroke:none;fill-rule:evenodd;fill:rgb(100%,100%,100%);fill-opacity:1;"
        d="M 187.492188 114.0625 C 146.082031 114.0625 112.5 147.644531 112.5 189.070312 C 112.5 222.199219 133.988281 250.3125 163.792969 260.230469 C 167.542969 260.917969 168.914062 258.605469 168.914062 256.617188 C 168.914062 254.835938 168.851562 250.117188 168.8125 243.863281 C 147.949219 248.394531 143.550781 233.804688 143.550781 233.804688 C 140.136719 225.144531 135.226562 222.835938 135.226562 222.835938 C 128.414062 218.179688 135.738281 218.28125 135.738281 218.28125 C 143.261719 218.8125 147.226562 226.011719 147.226562 226.011719 C 153.914062 237.476562 164.78125 234.164062 169.050781 232.242188 C 169.730469 227.398438 171.667969 224.09375 173.8125 222.21875 C 157.15625 220.324219 139.648438 213.894531 139.648438 185.148438 C 139.648438 176.960938 142.574219 170.269531 147.367188 165.023438 C 146.601562 163.125 144.023438 155.5 148.105469 145.175781 C 148.105469 145.175781 154.40625 143.15625 168.730469 152.863281 C 174.710938 151.199219 181.132812 150.367188 187.507812 150.335938 C 193.875 150.367188 200.292969 151.199219 206.28125 152.863281 C 220.601562 143.15625 226.886719 145.175781 226.886719 145.175781 C 230.980469 155.5 228.40625 163.125 227.632812 165.023438 C 232.4375 170.269531 235.335938 176.960938 235.335938 185.148438 C 235.335938 213.960938 217.800781 220.300781 201.09375 222.15625 C 203.789062 224.46875 206.1875 229.050781 206.1875 236.042969 C 206.1875 246.070312 206.09375 254.15625 206.09375 256.617188 C 206.09375 258.625 207.445312 260.957031 211.25 260.226562 C 241.03125 250.28125 262.5 222.195312 262.5 189.070312 C 262.5 147.644531 228.917969 114.0625 187.492188 114.0625 Z M 187.492188 114.0625 " />
    </g>
  </g>
</svg>