<?xml version="1.0" encoding="UTF-8"?>
<svg xmlns="http://www.w3.org/2000/svg" xmlns:xlink="http://www.w3.org/1999/xlink" width="375pt" height="374.999991pt"
  viewBox="0 0 375 374.999991" version="1.2">
  <defs>
    <clipPath id="clip1">
      <path d="M 118 112.5 L 257.4375 112.5 L 257.4375 184 L 118 184 Z M 118 112.5 " />
    </clipPath>
    <clipPath id="clip11">
      <path d="M 130 199 L 246 199 L 246 262.5 L 130 262.5 Z M 130 199 " />
    </clipPath>
  </defs>
  <g id="surface1">
    <g clip-path="url(#clip1)" clip-rule="nonzero">
      <path style="stroke:none;fill-rule:nonzero;fill:rgb(100%,100%,100%);fill-opacity:1;"
        d="M 256.144531 177.925781 L 190.078125 113.796875 C 188.808594 112.566406 186.785156 112.566406 185.515625 113.796875 L 119.449219 177.925781 C 118.152344 179.179688 118.128906 181.242188 119.382812 182.535156 C 120.644531 183.832031 122.71875 183.851562 124.007812 182.597656 L 187.796875 120.683594 L 251.589844 182.597656 C 252.222656 183.214844 253.046875 183.523438 253.867188 183.523438 C 254.71875 183.523438 255.570312 183.195312 256.214844 182.535156 C 257.464844 181.242188 257.441406 179.179688 256.144531 177.925781 Z M 256.144531 177.925781 " />
    </g>
    <g clip-path="url(#clip11)" clip-rule="nonzero">
      <path style="stroke:none;fill-rule:nonzero;fill:rgb(100%,100%,100%);fill-opacity:1;"
        d="M 241.765625 199.28125 C 239.960938 199.28125 238.496094 200.742188 238.496094 202.542969 L 238.496094 250.066406 C 238.496094 253.359375 235.808594 256.042969 232.503906 256.042969 L 143.085938 256.042969 C 139.78125 256.042969 137.097656 253.359375 137.097656 250.066406 L 137.097656 202.542969 C 137.097656 200.742188 135.632812 199.28125 133.828125 199.28125 C 132.023438 199.28125 130.558594 200.742188 130.558594 202.542969 L 130.558594 250.066406 C 130.558594 256.957031 136.175781 262.5625 143.085938 262.5625 L 232.503906 262.5625 C 239.414062 262.5625 245.03125 256.957031 245.03125 250.066406 L 245.03125 202.542969 C 245.035156 200.742188 243.570312 199.28125 241.765625 199.28125 Z M 241.765625 199.28125 " />
    </g>
  </g>
</svg>