<?xml version="1.0" encoding="UTF-8"?>
<svg xmlns="http://www.w3.org/2000/svg" xmlns:xlink="http://www.w3.org/1999/xlink" viewBox="0 0 375 374.999991"
  version="1.2">
  <defs>
    <clipPath id="clip9">
      <path d="M 112.5 112.5 L 262.5 112.5 L 262.5 262.5 L 112.5 262.5 Z M 112.5 112.5 " />
    </clipPath>
  </defs>
  <g id="surface9">
    <g clip-path="url(#clip9)" clip-rule="nonzero">
      <path style=" stroke:none;fill-rule:nonzero;fill:rgb(100%,100%,100%);fill-opacity:1;"
        d="M 154.167969 112.5 C 131.160156 112.5 112.5 131.160156 112.5 154.167969 L 112.5 220.832031 C 112.5 243.839844 131.160156 262.5 154.167969 262.5 L 220.832031 262.5 C 243.839844 262.5 262.5 243.839844 262.5 220.832031 L 262.5 154.167969 C 262.5 131.160156 243.839844 112.5 220.832031 112.5 Z M 237.5 129.167969 C 242.101562 129.167969 245.832031 132.898438 245.832031 137.5 C 245.832031 142.101562 242.101562 145.832031 237.5 145.832031 C 232.898438 145.832031 229.167969 142.101562 229.167969 137.5 C 229.167969 132.898438 232.898438 129.167969 237.5 129.167969 Z M 187.5 145.832031 C 210.507812 145.832031 229.167969 164.492188 229.167969 187.5 C 229.167969 210.507812 210.507812 229.167969 187.5 229.167969 C 164.492188 229.167969 145.832031 210.507812 145.832031 187.5 C 145.832031 164.492188 164.492188 145.832031 187.5 145.832031 Z M 187.5 162.5 C 186.679688 162.5 185.863281 162.539062 185.050781 162.621094 C 184.234375 162.699219 183.425781 162.820312 182.621094 162.980469 C 181.820312 163.140625 181.027344 163.339844 180.242188 163.578125 C 179.460938 163.8125 178.6875 164.089844 177.933594 164.402344 C 177.175781 164.714844 176.4375 165.066406 175.714844 165.453125 C 174.992188 165.839844 174.292969 166.257812 173.609375 166.714844 C 172.929688 167.167969 172.273438 167.65625 171.640625 168.175781 C 171.007812 168.695312 170.402344 169.242188 169.824219 169.824219 C 169.242188 170.402344 168.695312 171.007812 168.175781 171.640625 C 167.65625 172.273438 167.167969 172.929688 166.714844 173.609375 C 166.257812 174.292969 165.839844 174.992188 165.453125 175.714844 C 165.066406 176.4375 164.714844 177.175781 164.402344 177.933594 C 164.089844 178.6875 163.8125 179.460938 163.578125 180.242188 C 163.339844 181.027344 163.140625 181.820312 162.980469 182.621094 C 162.820312 183.425781 162.699219 184.234375 162.621094 185.050781 C 162.539062 185.863281 162.5 186.679688 162.5 187.5 C 162.5 188.320312 162.539062 189.136719 162.621094 189.949219 C 162.699219 190.765625 162.820312 191.574219 162.980469 192.378906 C 163.140625 193.179688 163.339844 193.972656 163.578125 194.757812 C 163.8125 195.539062 164.089844 196.3125 164.402344 197.066406 C 164.714844 197.824219 165.066406 198.5625 165.453125 199.285156 C 165.839844 200.007812 166.257812 200.707031 166.714844 201.390625 C 167.167969 202.070312 167.65625 202.726562 168.175781 203.359375 C 168.695312 203.992188 169.242188 204.597656 169.824219 205.175781 C 170.402344 205.757812 171.007812 206.304688 171.640625 206.824219 C 172.273438 207.34375 172.929688 207.832031 173.609375 208.285156 C 174.292969 208.742188 174.992188 209.160156 175.714844 209.546875 C 176.4375 209.933594 177.175781 210.285156 177.933594 210.597656 C 178.6875 210.910156 179.460938 211.1875 180.242188 211.421875 C 181.027344 211.660156 181.820312 211.859375 182.621094 212.019531 C 183.425781 212.179688 184.234375 212.300781 185.050781 212.378906 C 185.863281 212.460938 186.679688 212.5 187.5 212.5 C 188.320312 212.5 189.136719 212.460938 189.949219 212.378906 C 190.765625 212.300781 191.574219 212.179688 192.378906 212.019531 C 193.179688 211.859375 193.972656 211.660156 194.757812 211.421875 C 195.539062 211.1875 196.3125 210.910156 197.066406 210.597656 C 197.824219 210.285156 198.5625 209.933594 199.285156 209.546875 C 200.007812 209.160156 200.707031 208.742188 201.390625 208.285156 C 202.070312 207.832031 202.726562 207.34375 203.359375 206.824219 C 203.992188 206.304688 204.597656 205.757812 205.175781 205.175781 C 205.757812 204.597656 206.304688 203.992188 206.824219 203.359375 C 207.34375 202.726562 207.832031 202.070312 208.285156 201.390625 C 208.742188 200.707031 209.160156 200.007812 209.546875 199.285156 C 209.933594 198.5625 210.285156 197.824219 210.597656 197.066406 C 210.910156 196.3125 211.1875 195.539062 211.421875 194.757812 C 211.660156 193.972656 211.859375 193.179688 212.019531 192.378906 C 212.179688 191.574219 212.300781 190.765625 212.378906 189.949219 C 212.460938 189.136719 212.5 188.320312 212.5 187.5 C 212.5 186.679688 212.460938 185.863281 212.378906 185.050781 C 212.300781 184.234375 212.179688 183.425781 212.019531 182.621094 C 211.859375 181.820312 211.660156 181.027344 211.421875 180.242188 C 211.1875 179.460938 210.910156 178.6875 210.597656 177.933594 C 210.285156 177.175781 209.933594 176.4375 209.546875 175.714844 C 209.160156 174.992188 208.742188 174.292969 208.285156 173.609375 C 207.832031 172.929688 207.34375 172.273438 206.824219 171.640625 C 206.304688 171.007812 205.757812 170.402344 205.175781 169.824219 C 204.597656 169.242188 203.992188 168.695312 203.359375 168.175781 C 202.726562 167.65625 202.070312 167.167969 201.390625 166.714844 C 200.707031 166.257812 200.007812 165.839844 199.285156 165.453125 C 198.5625 165.066406 197.824219 164.714844 197.066406 164.402344 C 196.3125 164.089844 195.539062 163.8125 194.757812 163.578125 C 193.972656 163.339844 193.179688 163.140625 192.378906 162.980469 C 191.574219 162.820312 190.765625 162.699219 189.949219 162.621094 C 189.136719 162.539062 188.320312 162.5 187.5 162.5 Z M 187.5 162.5 " />
    </g>
  </g>
</svg>