<?xml version="1.0" encoding="UTF-8"?>
<svg xmlns="http://www.w3.org/2000/svg" xmlns:xlink="http://www.w3.org/1999/xlink" viewBox="0 0 375 374.999991"
  version="1.2">
  <defs>
    <clipPath id="clip19">
      <path d="M 116 112.5 L 259 112.5 L 259 262.5 L 116 262.5 Z M 116 112.5 " />
    </clipPath>
  </defs>
  <g id="surface19">
    <path style=" stroke:none;fill-rule:nonzero;fill:rgb(0%,0%,0%);fill-opacity:1;"
      d="M 187.5 84.375 C 185.8125 84.375 184.125 84.417969 182.441406 84.5 C 180.753906 84.582031 179.070312 84.707031 177.390625 84.871094 C 175.710938 85.035156 174.039062 85.242188 172.367188 85.492188 C 170.699219 85.738281 169.035156 86.027344 167.382812 86.355469 C 165.726562 86.6875 164.078125 87.054688 162.441406 87.464844 C 160.804688 87.875 159.179688 88.324219 157.5625 88.816406 C 155.949219 89.304688 154.347656 89.835938 152.757812 90.402344 C 151.167969 90.972656 149.59375 91.578125 148.035156 92.226562 C 146.476562 92.871094 144.933594 93.554688 143.410156 94.277344 C 141.882812 94.996094 140.375 95.757812 138.886719 96.550781 C 137.398438 97.347656 135.929688 98.179688 134.484375 99.046875 C 133.035156 99.914062 131.609375 100.816406 130.207031 101.753906 C 128.804688 102.691406 127.425781 103.664062 126.070312 104.667969 C 124.714844 105.675781 123.382812 106.710938 122.078125 107.785156 C 120.773438 108.855469 119.496094 109.957031 118.246094 111.089844 C 116.996094 112.222656 115.773438 113.386719 114.578125 114.578125 C 113.386719 115.773438 112.222656 116.996094 111.089844 118.246094 C 109.957031 119.496094 108.855469 120.773438 107.785156 122.078125 C 106.710938 123.382812 105.675781 124.714844 104.667969 126.070312 C 103.664062 127.425781 102.691406 128.804688 101.753906 130.207031 C 100.816406 131.609375 99.914062 133.035156 99.046875 134.484375 C 98.179688 135.929688 97.347656 137.398438 96.550781 138.886719 C 95.757812 140.375 94.996094 141.882812 94.277344 143.410156 C 93.554688 144.933594 92.871094 146.476562 92.226562 148.035156 C 91.578125 149.59375 90.972656 151.167969 90.402344 152.757812 C 89.835938 154.347656 89.304688 155.949219 88.816406 157.5625 C 88.324219 159.179688 87.875 160.804688 87.464844 162.441406 C 87.054688 164.078125 86.6875 165.726562 86.355469 167.382812 C 86.027344 169.035156 85.738281 170.699219 85.492188 172.367188 C 85.242188 174.039062 85.035156 175.710938 84.871094 177.390625 C 84.707031 179.070312 84.582031 180.753906 84.5 182.441406 C 84.417969 184.125 84.375 185.8125 84.375 187.5 C 84.375 189.1875 84.417969 190.875 84.5 192.558594 C 84.582031 194.246094 84.707031 195.929688 84.871094 197.609375 C 85.035156 199.289062 85.242188 200.960938 85.492188 202.632812 C 85.738281 204.300781 86.027344 205.964844 86.355469 207.617188 C 86.6875 209.273438 87.054688 210.921875 87.464844 212.558594 C 87.875 214.195312 88.324219 215.820312 88.816406 217.4375 C 89.304688 219.050781 89.835938 220.652344 90.402344 222.242188 C 90.972656 223.832031 91.578125 225.40625 92.226562 226.964844 C 92.871094 228.523438 93.554688 230.066406 94.277344 231.589844 C 94.996094 233.117188 95.757812 234.625 96.550781 236.113281 C 97.347656 237.601562 98.179688 239.070312 99.046875 240.515625 C 99.914062 241.964844 100.816406 243.390625 101.753906 244.792969 C 102.691406 246.195312 103.664062 247.574219 104.667969 248.929688 C 105.675781 250.285156 106.710938 251.617188 107.785156 252.921875 C 108.855469 254.226562 109.957031 255.503906 111.089844 256.753906 C 112.222656 258.003906 113.386719 259.226562 114.578125 260.421875 C 115.773438 261.613281 116.996094 262.777344 118.246094 263.910156 C 119.496094 265.042969 120.773438 266.144531 122.078125 267.214844 C 123.382812 268.289062 124.714844 269.324219 126.070312 270.332031 C 127.425781 271.335938 128.804688 272.308594 130.207031 273.246094 C 131.609375 274.183594 133.035156 275.085938 134.484375 275.953125 C 135.929688 276.820312 137.398438 277.652344 138.886719 278.449219 C 140.375 279.242188 141.882812 280.003906 143.410156 280.722656 C 144.933594 281.445312 146.476562 282.128906 148.035156 282.773438 C 149.59375 283.421875 151.167969 284.027344 152.757812 284.597656 C 154.347656 285.164062 155.949219 285.695312 157.5625 286.183594 C 159.179688 286.675781 160.804688 287.125 162.441406 287.535156 C 164.078125 287.945312 165.726562 288.3125 167.382812 288.644531 C 169.035156 288.972656 170.699219 289.261719 172.367188 289.507812 C 174.039062 289.757812 175.710938 289.964844 177.390625 290.128906 C 179.070312 290.292969 180.753906 290.417969 182.441406 290.5 C 184.125 290.582031 185.8125 290.625 187.5 290.625 C 189.1875 290.625 190.875 290.582031 192.558594 290.5 C 194.246094 290.417969 195.929688 290.292969 197.609375 290.128906 C 199.289062 289.964844 200.960938 289.757812 202.632812 289.507812 C 204.300781 289.261719 205.964844 288.972656 207.617188 288.644531 C 209.273438 288.3125 210.921875 287.945312 212.558594 287.535156 C 214.195312 287.125 215.820312 286.675781 217.4375 286.183594 C 219.050781 285.695312 220.652344 285.164062 222.242188 284.597656 C 223.832031 284.027344 225.40625 283.421875 226.964844 282.773438 C 228.523438 282.128906 230.066406 281.445312 231.589844 280.722656 C 233.117188 280.003906 234.625 279.242188 236.113281 278.449219 C 237.601562 277.652344 239.070312 276.820312 240.515625 275.953125 C 241.964844 275.085938 243.390625 274.183594 244.792969 273.246094 C 246.195312 272.308594 247.574219 271.335938 248.929688 270.332031 C 250.285156 269.324219 251.617188 268.289062 252.921875 267.214844 C 254.226562 266.144531 255.503906 265.042969 256.753906 263.910156 C 258.003906 262.777344 259.226562 261.613281 260.421875 260.421875 C 261.613281 259.226562 262.777344 258.003906 263.910156 256.753906 C 265.042969 255.503906 266.144531 254.226562 267.214844 252.921875 C 268.289062 251.617188 269.324219 250.285156 270.332031 248.929688 C 271.335938 247.574219 272.308594 246.195312 273.246094 244.792969 C 274.183594 243.390625 275.085938 241.964844 275.953125 240.515625 C 276.820312 239.070312 277.652344 237.601562 278.449219 236.113281 C 279.242188 234.625 280.003906 233.117188 280.722656 231.589844 C 281.445312 230.066406 282.128906 228.523438 282.773438 226.964844 C 283.421875 225.40625 284.027344 223.832031 284.597656 222.242188 C 285.164062 220.652344 285.695312 219.050781 286.183594 217.4375 C 286.675781 215.820312 287.125 214.195312 287.535156 212.558594 C 287.945312 210.921875 288.3125 209.273438 288.644531 207.617188 C 288.972656 205.964844 289.261719 204.300781 289.507812 202.632812 C 289.757812 200.960938 289.964844 199.289062 290.128906 197.609375 C 290.292969 195.929688 290.417969 194.246094 290.5 192.558594 C 290.582031 190.875 290.625 189.1875 290.625 187.5 C 290.625 185.8125 290.582031 184.125 290.5 182.441406 C 290.417969 180.753906 290.292969 179.070312 290.128906 177.390625 C 289.964844 175.710938 289.757812 174.039062 289.507812 172.367188 C 289.261719 170.699219 288.972656 169.035156 288.644531 167.382812 C 288.3125 165.726562 287.945312 164.078125 287.535156 162.441406 C 287.125 160.804688 286.675781 159.179688 286.183594 157.5625 C 285.695312 155.949219 285.164062 154.347656 284.597656 152.757812 C 284.027344 151.167969 283.421875 149.59375 282.773438 148.035156 C 282.128906 146.476562 281.445312 144.933594 280.722656 143.410156 C 280.003906 141.882812 279.242188 140.375 278.449219 138.886719 C 277.652344 137.398438 276.820312 135.929688 275.953125 134.484375 C 275.085938 133.035156 274.183594 131.609375 273.246094 130.207031 C 272.308594 128.804688 271.335938 127.425781 270.332031 126.070312 C 269.324219 124.714844 268.289062 123.382812 267.214844 122.078125 C 266.144531 120.773438 265.042969 119.496094 263.910156 118.246094 C 262.777344 116.996094 261.613281 115.773438 260.421875 114.578125 C 259.226562 113.386719 258.003906 112.222656 256.753906 111.089844 C 255.503906 109.957031 254.226562 108.855469 252.921875 107.785156 C 251.617188 106.710938 250.285156 105.675781 248.929688 104.667969 C 247.574219 103.664062 246.195312 102.691406 244.792969 101.753906 C 243.390625 100.816406 241.964844 99.914062 240.515625 99.046875 C 239.070312 98.179688 237.601562 97.347656 236.113281 96.550781 C 234.625 95.757812 233.117188 94.996094 231.589844 94.277344 C 230.066406 93.554688 228.523438 92.871094 226.964844 92.226562 C 225.40625 91.578125 223.832031 90.972656 222.242188 90.402344 C 220.652344 89.835938 219.050781 89.304688 217.4375 88.816406 C 215.820312 88.324219 214.195312 87.875 212.558594 87.464844 C 210.921875 87.054688 209.273438 86.6875 207.617188 86.355469 C 205.964844 86.027344 204.300781 85.738281 202.632812 85.492188 C 200.960938 85.242188 199.289062 85.035156 197.609375 84.871094 C 195.929688 84.707031 194.246094 84.582031 192.558594 84.5 C 190.875 84.417969 189.1875 84.375 187.5 84.375 Z M 187.5 84.375 " />
    <g clip-path="url(#clip19)" clip-rule="nonzero">
      <path style=" stroke:none;fill-rule:nonzero;fill:rgb(100%,100%,100%);fill-opacity:1;"
        d="M 199.769531 112.5 C 179.695312 112.628906 165.6875 115.953125 156.222656 121.226562 C 147.589844 126.039062 143.222656 132.726562 141.726562 139.542969 C 140.234375 140.292969 137.78125 141.769531 135.621094 145.464844 C 132.800781 150.242188 131.574219 158.28125 134.28125 170.085938 C 130.234375 173.144531 127.601562 177.679688 126.988281 182.699219 C 126.273438 188.582031 127.730469 194.953125 132.007812 199.511719 C 135.777344 203.535156 139.875 205.308594 143.03125 205.984375 C 144.371094 206.261719 144.460938 206.070312 145.429688 206.070312 C 145.953125 208.847656 147.769531 215.523438 151.496094 222.859375 C 148.992188 224.273438 142.863281 227.699219 135.316406 232.070312 C 130.972656 234.578125 126.683594 237.113281 123.4375 239.113281 C 121.804688 240.121094 120.449219 240.984375 119.429688 241.699219 C 118.90625 242.042969 118.484375 242.347656 118.089844 242.679688 C 117.882812 242.859375 117.691406 243.023438 117.460938 243.292969 C 117.21875 243.558594 116.707031 243.738281 116.542969 245.277344 L 116.289062 247.480469 L 122.390625 262.5 L 254.789062 262.5 L 255.300781 259.863281 C 255.300781 259.863281 256.207031 255.289062 257.0625 250.117188 C 257.929688 244.933594 258.851562 239.636719 258.632812 236.195312 C 258.542969 234.910156 258.070312 234.386719 257.726562 233.941406 C 257.394531 233.496094 257.0625 233.164062 256.703125 232.832031 C 255.976562 232.160156 255.132812 231.507812 254.136719 230.808594 C 252.171875 229.394531 249.695312 227.816406 247.203125 226.285156 C 243.832031 224.234375 242.300781 223.394531 240.5 222.363281 C 242.261719 219.839844 244.585938 216.082031 247.074219 209.957031 C 251.214844 199.753906 254.941406 184.507812 253.511719 164.265625 C 252.144531 145.160156 245.464844 131.925781 235.570312 123.710938 C 226.5 116.179688 215.007812 113.007812 203.054688 112.578125 L 203.054688 112.5 C 202.683594 112.5 202.339844 112.550781 201.980469 112.550781 C 201.238281 112.539062 200.5 112.5 199.769531 112.5 Z M 201.96875 119.074219 C 213.195312 119.339844 223.511719 122.179688 231.390625 128.726562 C 235.644531 132.257812 239.257812 136.894531 241.96875 142.929688 C 240.753906 142.460938 239.527344 142.101562 238.378906 141.898438 C 237.074219 141.65625 235.8125 141.542969 234.636719 141.503906 C 231.148438 141.375 228.570312 141.910156 228.570312 141.910156 L 229.847656 148.304688 C 229.847656 148.304688 233.421875 147.628906 237.203125 148.320312 C 240.984375 149.007812 244.34375 150.457031 245.65625 155.679688 L 245.773438 155.65625 C 246.144531 157.589844 246.4375 159.640625 246.667969 161.796875 C 246.167969 160.902344 245.695312 160.039062 245.160156 159.082031 C 243.488281 156.113281 241.851562 153.261719 241.851562 153.261719 L 236.183594 156.523438 C 236.183594 156.523438 237.804688 159.347656 239.464844 162.277344 C 240.203125 163.589844 240.917969 164.878906 241.519531 165.972656 C 239.386719 166.035156 236.128906 165.589844 233.386719 164.800781 L 231.570312 171.066406 C 234.96875 172.050781 238.632812 172.585938 241.75 172.496094 C 243.308594 172.445312 244.726562 172.316406 246.207031 171.617188 C 246.539062 171.449219 246.898438 171.246094 247.242188 170.980469 C 247.535156 187.042969 244.394531 199.179688 241.007812 207.511719 C 238.378906 213.996094 235.773438 217.917969 234.367188 219.804688 L 234.152344 219.648438 C 234.152344 219.648438 227.636719 229.890625 212.863281 229.890625 C 197.484375 229.890625 183.71875 222.566406 179.285156 217.867188 C 174.636719 212.960938 173.589844 206.582031 173.589844 206.582031 L 167.128906 207.550781 C 167.128906 207.550781 168.289062 215.753906 174.511719 222.351562 C 176.65625 224.605469 179.757812 226.898438 183.488281 228.972656 C 181.726562 229.546875 180.039062 230.566406 178.839844 232.210938 C 178.648438 232.476562 178.519531 232.769531 178.367188 233.050781 C 170.820312 232.605469 165.964844 230.121094 162.902344 227.699219 C 160.117188 225.507812 159.121094 223.855469 158.816406 223.292969 L 158.367188 222.566406 C 154.933594 217.011719 152.851562 209.308594 151.917969 205.242188 C 153.539062 204.007812 155.300781 202.007812 156.9375 198.746094 L 151.089844 195.816406 C 150.09375 197.816406 149.183594 198.9375 148.496094 199.613281 L 147.472656 199.792969 C 147.472656 199.792969 146.425781 200.019531 144.394531 199.589844 C 142.351562 199.167969 139.621094 198.074219 136.785156 195.054688 C 134.140625 192.238281 132.964844 187.714844 133.476562 183.476562 C 134 179.234375 136.109375 175.628906 139.132812 174.101562 L 139.261719 174.050781 C 142.863281 172.035156 145.074219 171.84375 146.3125 172.113281 C 147.5625 172.394531 148.316406 173.09375 149.042969 174.355469 C 150.511719 176.875 150.742188 181.027344 150.742188 181.027344 L 150.808594 186.226562 L 163.886719 179.703125 L 163.820312 177.617188 C 163.820312 177.617188 163.667969 174.429688 162.019531 169.742188 C 161.152344 167.3125 161.753906 163.847656 163.082031 160.101562 C 164.410156 156.355469 166.335938 152.664062 167.039062 148.980469 C 167.804688 144.929688 166.554688 141.71875 165.339844 139.667969 C 166.59375 137.429688 168.660156 134.320312 171.929688 131.046875 C 177.792969 125.1875 187.140625 119.351562 201.96875 119.074219 Z M 190.855469 141.199219 C 184.984375 141.273438 180.691406 143.554688 178.074219 146.28125 C 174.574219 149.9375 173.691406 154.214844 173.691406 154.214844 L 180.105469 155.566406 C 180.105469 155.566406 180.664062 153.019531 182.796875 150.800781 C 184.929688 148.585938 188.277344 146.546875 195.773438 148.28125 L 197.253906 141.9375 C 194.945312 141.390625 192.8125 141.171875 190.855469 141.199219 Z M 202.863281 153.808594 L 196.707031 155.972656 C 196.707031 155.972656 197.703125 158.839844 198.980469 162.125 C 200.039062 164.878906 201.203125 167.527344 202.351562 169.742188 C 200.945312 169.921875 198.226562 169.792969 194.546875 168.203125 L 191.941406 174.1875 C 196.78125 176.277344 200.894531 176.925781 204.230469 176.253906 C 205.902344 175.921875 207.5625 175.234375 208.671875 173.578125 C 209.785156 171.910156 209.578125 169.464844 208.632812 167.898438 C 207.945312 166.761719 206.324219 162.980469 205.085938 159.78125 C 203.84375 156.597656 202.863281 153.808594 202.863281 153.808594 Z M 222.667969 158.050781 L 216.132812 158.253906 C 216.132812 158.253906 216.550781 170.671875 227.011719 180.125 C 231.390625 184.085938 233.589844 186.710938 234.011719 187.628906 C 234.074219 187.753906 234.074219 187.742188 234.101562 187.78125 C 234.101562 187.730469 234.0625 187.882812 233.5625 188.328125 C 232.847656 188.976562 229.476562 190.800781 225.9375 192.035156 C 222.390625 193.257812 218.390625 194.085938 216.21875 194.023438 C 215.414062 193.996094 215.480469 193.90625 215.570312 193.972656 C 215.570312 193.933594 215.554688 193.917969 215.554688 193.804688 C 215.519531 193.179688 215.875 191.996094 215.875 191.996094 L 209.847656 189.523438 C 209.847656 189.523438 208.890625 191.523438 209.019531 194.125 C 209.082031 195.421875 209.476562 197.078125 210.753906 198.429688 C 212.019531 199.777344 213.972656 200.492188 216.042969 200.542969 C 219.769531 200.644531 224.050781 199.574219 228.070312 198.199219 C 232.09375 196.8125 235.582031 195.296875 237.929688 193.195312 C 238.902344 192.316406 239.898438 191.246094 240.394531 189.679688 C 240.882812 188.113281 240.613281 186.289062 239.9375 184.851562 C 238.558594 181.945312 235.9375 179.410156 231.40625 175.308594 C 222.964844 167.667969 222.667969 158.050781 222.667969 158.050781 Z M 142.175781 178.417969 C 142.175781 178.417969 136.222656 183.410156 137.71875 191.359375 L 144.152344 190.164062 C 143.285156 185.5625 146.234375 183.539062 146.234375 183.539062 Z M 201.839844 198.007812 L 197.726562 203.078125 C 209.296875 212.453125 223.167969 210.289062 223.167969 210.289062 L 222.171875 203.84375 C 222.171875 203.84375 211.0625 205.484375 201.839844 198.007812 Z M 236.566406 198.390625 C 232.503906 202.988281 225.632812 203.816406 225.632812 203.816406 L 226.246094 210.3125 C 226.246094 210.3125 235.363281 209.636719 241.46875 202.695312 Z M 199.667969 209.445312 L 193.359375 211.203125 C 194.484375 215.191406 197.445312 217.941406 200.679688 219.394531 C 203.910156 220.847656 207.460938 221.292969 210.78125 221.371094 C 217.433594 221.496094 223.4375 220.019531 223.4375 220.019531 L 221.902344 213.675781 C 221.902344 213.675781 216.5 214.949219 210.921875 214.847656 C 208.125 214.785156 205.351562 214.351562 203.359375 213.445312 C 201.378906 212.554688 200.230469 211.484375 199.667969 209.445312 Z M 230.640625 233.253906 C 231.710938 233.230469 232.898438 233.457031 233.753906 233.917969 C 234.917969 234.515625 235.582031 235.203125 235.773438 236.796875 C 235.988281 238.65625 236.21875 242.070312 235.914062 244.960938 C 235.761719 246.414062 235.464844 247.738281 235.109375 248.589844 C 234.75 249.457031 234.40625 249.738281 234.277344 249.800781 C 231.992188 250.945312 228.46875 251.074219 225.53125 250.703125 C 222.59375 250.335938 220.433594 249.621094 220.433594 249.621094 L 219.925781 249.457031 L 208.839844 249.457031 L 208.175781 249.773438 C 208.175781 249.773438 204.917969 251.339844 200.523438 252.910156 C 196.132812 254.476562 190.578125 255.976562 186.707031 255.976562 C 185.621094 255.976562 185.339844 255.800781 185.097656 255.582031 C 184.855469 255.367188 184.484375 254.84375 184.191406 253.621094 C 183.578125 251.164062 183.527344 246.4375 183.628906 240.121094 L 183.640625 239.890625 L 183.601562 239.6875 C 183.359375 237.558594 183.742188 236.566406 184.113281 236.054688 C 184.496094 235.546875 185.058594 235.191406 186.234375 234.988281 C 188.570312 234.605469 192.796875 235.546875 196.003906 237.113281 L 196.054688 237.125 L 208.878906 242.933594 L 214.023438 242.933594 L 214.917969 242.207031 C 216.691406 240.78125 219.960938 238.554688 223.027344 236.707031 C 224.546875 235.789062 226.042969 234.949219 227.265625 234.335938 C 228.492188 233.726562 229.578125 233.355469 229.589844 233.355469 L 229.605469 233.355469 C 229.925781 233.292969 230.269531 233.265625 230.640625 233.253906 Z M 210.152344 236.347656 C 210.730469 236.363281 211.316406 236.375 211.902344 236.386719 C 211.890625 236.398438 211.878906 236.398438 211.878906 236.414062 L 210.308594 236.414062 Z M 169.582031 237.851562 C 171.878906 238.539062 174.292969 239.175781 177.066406 239.484375 C 177.089844 239.8125 177.078125 240.105469 177.117188 240.4375 L 177.089844 240.019531 C 177.066406 241.34375 177.089844 242.363281 177.078125 243.570312 C 174.84375 242.042969 172.121094 240.070312 169.582031 237.851562 Z M 169.582031 237.851562 " />
    </g>
  </g>
</svg>