<?xml version="1.0" encoding="UTF-8"?>
<svg xmlns="http://www.w3.org/2000/svg" xmlns:xlink="http://www.w3.org/1999/xlink" viewBox="0 0 375 374.999991"
  version="1.2">
  <defs>
    <clipPath id="clip1313">
      <path d="M 112.5 114.1875 L 262 114.1875 L 262 261 L 112.5 261 Z M 112.5 114.1875 " />
    </clipPath>
  </defs>
  <g id="surface1313">
    <path style=" stroke:none;fill-rule:nonzero;fill:rgb(0%,0%,0%);fill-opacity:1;"
      d="M 187.5 84.375 C 185.8125 84.375 184.125 84.417969 182.441406 84.5 C 180.753906 84.582031 179.070312 84.707031 177.390625 84.871094 C 175.710938 85.035156 174.039062 85.242188 172.367188 85.492188 C 170.699219 85.738281 169.035156 86.027344 167.382812 86.355469 C 165.726562 86.6875 164.078125 87.054688 162.441406 87.464844 C 160.804688 87.875 159.179688 88.324219 157.5625 88.816406 C 155.949219 89.304688 154.347656 89.835938 152.757812 90.402344 C 151.167969 90.972656 149.59375 91.578125 148.035156 92.226562 C 146.476562 92.871094 144.933594 93.554688 143.410156 94.277344 C 141.882812 94.996094 140.375 95.757812 138.886719 96.550781 C 137.398438 97.347656 135.929688 98.179688 134.484375 99.046875 C 133.035156 99.914062 131.609375 100.816406 130.207031 101.753906 C 128.804688 102.691406 127.425781 103.664062 126.070312 104.667969 C 124.714844 105.675781 123.382812 106.710938 122.078125 107.785156 C 120.773438 108.855469 119.496094 109.957031 118.246094 111.089844 C 116.996094 112.222656 115.773438 113.386719 114.578125 114.578125 C 113.386719 115.773438 112.222656 116.996094 111.089844 118.246094 C 109.957031 119.496094 108.855469 120.773438 107.785156 122.078125 C 106.710938 123.382812 105.675781 124.714844 104.667969 126.070312 C 103.664062 127.425781 102.691406 128.804688 101.753906 130.207031 C 100.816406 131.609375 99.914062 133.035156 99.046875 134.484375 C 98.179688 135.929688 97.347656 137.398438 96.550781 138.886719 C 95.757812 140.375 94.996094 141.882812 94.277344 143.410156 C 93.554688 144.933594 92.871094 146.476562 92.226562 148.035156 C 91.578125 149.59375 90.972656 151.167969 90.402344 152.757812 C 89.835938 154.347656 89.304688 155.949219 88.816406 157.5625 C 88.324219 159.179688 87.875 160.804688 87.464844 162.441406 C 87.054688 164.078125 86.6875 165.726562 86.355469 167.382812 C 86.027344 169.035156 85.738281 170.699219 85.492188 172.367188 C 85.242188 174.039062 85.035156 175.710938 84.871094 177.390625 C 84.707031 179.070312 84.582031 180.753906 84.5 182.441406 C 84.417969 184.125 84.375 185.8125 84.375 187.5 C 84.375 189.1875 84.417969 190.875 84.5 192.558594 C 84.582031 194.246094 84.707031 195.929688 84.871094 197.609375 C 85.035156 199.289062 85.242188 200.960938 85.492188 202.632812 C 85.738281 204.300781 86.027344 205.964844 86.355469 207.617188 C 86.6875 209.273438 87.054688 210.921875 87.464844 212.558594 C 87.875 214.195312 88.324219 215.820312 88.816406 217.4375 C 89.304688 219.050781 89.835938 220.652344 90.402344 222.242188 C 90.972656 223.832031 91.578125 225.40625 92.226562 226.964844 C 92.871094 228.523438 93.554688 230.066406 94.277344 231.589844 C 94.996094 233.117188 95.757812 234.625 96.550781 236.113281 C 97.347656 237.601562 98.179688 239.070312 99.046875 240.515625 C 99.914062 241.964844 100.816406 243.390625 101.753906 244.792969 C 102.691406 246.195312 103.664062 247.574219 104.667969 248.929688 C 105.675781 250.285156 106.710938 251.617188 107.785156 252.921875 C 108.855469 254.226562 109.957031 255.503906 111.089844 256.753906 C 112.222656 258.003906 113.386719 259.226562 114.578125 260.421875 C 115.773438 261.613281 116.996094 262.777344 118.246094 263.910156 C 119.496094 265.042969 120.773438 266.144531 122.078125 267.214844 C 123.382812 268.289062 124.714844 269.324219 126.070312 270.332031 C 127.425781 271.335938 128.804688 272.308594 130.207031 273.246094 C 131.609375 274.183594 133.035156 275.085938 134.484375 275.953125 C 135.929688 276.820312 137.398438 277.652344 138.886719 278.449219 C 140.375 279.242188 141.882812 280.003906 143.410156 280.722656 C 144.933594 281.445312 146.476562 282.128906 148.035156 282.773438 C 149.59375 283.421875 151.167969 284.027344 152.757812 284.597656 C 154.347656 285.164062 155.949219 285.695312 157.5625 286.183594 C 159.179688 286.675781 160.804688 287.125 162.441406 287.535156 C 164.078125 287.945312 165.726562 288.3125 167.382812 288.644531 C 169.035156 288.972656 170.699219 289.261719 172.367188 289.507812 C 174.039062 289.757812 175.710938 289.964844 177.390625 290.128906 C 179.070312 290.292969 180.753906 290.417969 182.441406 290.5 C 184.125 290.582031 185.8125 290.625 187.5 290.625 C 189.1875 290.625 190.875 290.582031 192.558594 290.5 C 194.246094 290.417969 195.929688 290.292969 197.609375 290.128906 C 199.289062 289.964844 200.960938 289.757812 202.632812 289.507812 C 204.300781 289.261719 205.964844 288.972656 207.617188 288.644531 C 209.273438 288.3125 210.921875 287.945312 212.558594 287.535156 C 214.195312 287.125 215.820312 286.675781 217.4375 286.183594 C 219.050781 285.695312 220.652344 285.164062 222.242188 284.597656 C 223.832031 284.027344 225.40625 283.421875 226.964844 282.773438 C 228.523438 282.128906 230.066406 281.445312 231.589844 280.722656 C 233.117188 280.003906 234.625 279.242188 236.113281 278.449219 C 237.601562 277.652344 239.070312 276.820312 240.515625 275.953125 C 241.964844 275.085938 243.390625 274.183594 244.792969 273.246094 C 246.195312 272.308594 247.574219 271.335938 248.929688 270.332031 C 250.285156 269.324219 251.617188 268.289062 252.921875 267.214844 C 254.226562 266.144531 255.503906 265.042969 256.753906 263.910156 C 258.003906 262.777344 259.226562 261.613281 260.421875 260.421875 C 261.613281 259.226562 262.777344 258.003906 263.910156 256.753906 C 265.042969 255.503906 266.144531 254.226562 267.214844 252.921875 C 268.289062 251.617188 269.324219 250.285156 270.332031 248.929688 C 271.335938 247.574219 272.308594 246.195312 273.246094 244.792969 C 274.183594 243.390625 275.085938 241.964844 275.953125 240.515625 C 276.820312 239.070312 277.652344 237.601562 278.449219 236.113281 C 279.242188 234.625 280.003906 233.117188 280.722656 231.589844 C 281.445312 230.066406 282.128906 228.523438 282.773438 226.964844 C 283.421875 225.40625 284.027344 223.832031 284.597656 222.242188 C 285.164062 220.652344 285.695312 219.050781 286.183594 217.4375 C 286.675781 215.820312 287.125 214.195312 287.535156 212.558594 C 287.945312 210.921875 288.3125 209.273438 288.644531 207.617188 C 288.972656 205.964844 289.261719 204.300781 289.507812 202.632812 C 289.757812 200.960938 289.964844 199.289062 290.128906 197.609375 C 290.292969 195.929688 290.417969 194.246094 290.5 192.558594 C 290.582031 190.875 290.625 189.1875 290.625 187.5 C 290.625 185.8125 290.582031 184.125 290.5 182.441406 C 290.417969 180.753906 290.292969 179.070312 290.128906 177.390625 C 289.964844 175.710938 289.757812 174.039062 289.507812 172.367188 C 289.261719 170.699219 288.972656 169.035156 288.644531 167.382812 C 288.3125 165.726562 287.945312 164.078125 287.535156 162.441406 C 287.125 160.804688 286.675781 159.179688 286.183594 157.5625 C 285.695312 155.949219 285.164062 154.347656 284.597656 152.757812 C 284.027344 151.167969 283.421875 149.59375 282.773438 148.035156 C 282.128906 146.476562 281.445312 144.933594 280.722656 143.410156 C 280.003906 141.882812 279.242188 140.375 278.449219 138.886719 C 277.652344 137.398438 276.820312 135.929688 275.953125 134.484375 C 275.085938 133.035156 274.183594 131.609375 273.246094 130.207031 C 272.308594 128.804688 271.335938 127.425781 270.332031 126.070312 C 269.324219 124.714844 268.289062 123.382812 267.214844 122.078125 C 266.144531 120.773438 265.042969 119.496094 263.910156 118.246094 C 262.777344 116.996094 261.613281 115.773438 260.421875 114.578125 C 259.226562 113.386719 258.003906 112.222656 256.753906 111.089844 C 255.503906 109.957031 254.226562 108.855469 252.921875 107.785156 C 251.617188 106.710938 250.285156 105.675781 248.929688 104.667969 C 247.574219 103.664062 246.195312 102.691406 244.792969 101.753906 C 243.390625 100.816406 241.964844 99.914062 240.515625 99.046875 C 239.070312 98.179688 237.601562 97.347656 236.113281 96.550781 C 234.625 95.757812 233.117188 94.996094 231.589844 94.277344 C 230.066406 93.554688 228.523438 92.871094 226.964844 92.226562 C 225.40625 91.578125 223.832031 90.972656 222.242188 90.402344 C 220.652344 89.835938 219.050781 89.304688 217.4375 88.816406 C 215.820312 88.324219 214.195312 87.875 212.558594 87.464844 C 210.921875 87.054688 209.273438 86.6875 207.617188 86.355469 C 205.964844 86.027344 204.300781 85.738281 202.632812 85.492188 C 200.960938 85.242188 199.289062 85.035156 197.609375 84.871094 C 195.929688 84.707031 194.246094 84.582031 192.558594 84.5 C 190.875 84.417969 189.1875 84.375 187.5 84.375 Z M 187.5 84.375 " />
    <g clip-path="url(#clip1313)" clip-rule="nonzero">
      <path style=" stroke:none;fill-rule:nonzero;fill:rgb(100%,100%,100%);fill-opacity:1;"
        d="M 187.335938 114.386719 C 185.628906 114.386719 183.921875 114.769531 182.34375 115.53125 L 131.820312 139.988281 C 128.675781 141.511719 126.390625 144.390625 125.617188 147.804688 L 113.128906 202.789062 C 112.359375 206.195312 113.171875 209.777344 115.339844 212.511719 L 150.316406 256.601562 C 152.492188 259.347656 155.808594 260.945312 159.304688 260.945312 L 215.371094 260.945312 C 218.867188 260.945312 222.179688 259.347656 224.355469 256.601562 L 259.335938 212.515625 L 259.335938 212.511719 C 261.5 209.777344 262.320312 206.203125 261.550781 202.796875 C 261.550781 202.792969 261.550781 202.792969 261.550781 202.789062 L 249.058594 147.804688 C 249.058594 147.800781 249.058594 147.800781 249.058594 147.796875 C 248.28125 144.390625 246 141.511719 242.855469 139.988281 L 192.335938 115.53125 C 192.332031 115.53125 192.328125 115.527344 192.328125 115.527344 C 190.75 114.765625 189.046875 114.386719 187.335938 114.386719 Z M 187.335938 120.941406 C 188.070312 120.941406 188.804688 121.105469 189.488281 121.433594 L 240.011719 145.890625 C 241.371094 146.546875 242.351562 147.78125 242.6875 149.257812 L 255.171875 204.242188 C 255.507812 205.71875 255.15625 207.257812 254.222656 208.433594 L 219.242188 252.523438 C 218.304688 253.710938 216.878906 254.394531 215.371094 254.394531 L 159.304688 254.394531 C 157.792969 254.394531 156.375 253.710938 155.4375 252.523438 L 120.457031 208.433594 C 119.519531 207.25 119.167969 205.714844 119.5 204.242188 L 131.992188 149.261719 C 132.328125 147.785156 133.304688 146.550781 134.660156 145.894531 C 134.660156 145.894531 134.660156 145.890625 134.660156 145.890625 L 185.1875 121.433594 C 185.867188 121.101562 186.601562 120.941406 187.335938 120.941406 Z M 187.3125 134.722656 C 186.851562 134.722656 186.382812 134.816406 185.933594 135.003906 C 184.136719 135.792969 183.285156 137.886719 184.070312 139.6875 C 184.820312 141.457031 185.078125 143.226562 185.273438 144.992188 C 185.339844 145.910156 185.378906 146.796875 185.34375 147.683594 C 185.441406 148.566406 184.984375 149.453125 184.332031 150.335938 C 183.644531 151.222656 183.578125 152.109375 183.480469 152.992188 C 174.511719 153.875 166.441406 157.816406 160.265625 163.738281 L 160.210938 163.703125 C 159.457031 163.214844 158.742188 162.71875 157.597656 162.6875 C 156.519531 162.621094 155.539062 162.429688 154.917969 161.773438 C 154.230469 161.25 153.546875 160.660156 152.925781 160.039062 C 151.652344 158.792969 150.4375 157.449219 149.558594 155.746094 C 149.132812 154.925781 148.347656 154.265625 147.398438 153.972656 C 145.503906 153.449219 143.542969 154.527344 142.988281 156.429688 C 142.433594 158.296875 143.542969 160.292969 145.441406 160.820312 C 147.269531 161.375 148.808594 162.292969 150.308594 163.277344 C 151.027344 163.769531 151.71875 164.292969 152.402344 164.882812 C 153.15625 165.375 153.546875 166.292969 153.839844 167.339844 C 154.054688 168.390625 154.65625 168.996094 155.242188 169.585938 C 150.769531 175.972656 148.121094 183.734375 148.121094 192.109375 C 148.121094 193.496094 148.199219 194.863281 148.339844 196.210938 C 147.605469 196.46875 146.878906 196.75 146.257812 197.484375 C 145.539062 198.304688 144.753906 198.957031 143.871094 199.023438 C 143.019531 199.25 142.140625 199.414062 141.257812 199.515625 C 139.496094 199.742188 137.695312 199.875 135.835938 199.480469 C 134.917969 199.320312 133.90625 199.511719 133.089844 200.101562 C 131.488281 201.21875 131.128906 203.445312 132.242188 205.050781 C 133.382812 206.65625 135.605469 207.054688 137.207031 205.90625 C 138.773438 204.792969 140.441406 204.167969 142.140625 203.609375 C 142.988281 203.347656 143.84375 203.121094 144.726562 202.957031 C 145.574219 202.664062 146.519531 202.921875 147.535156 203.347656 C 148.375 203.78125 149.121094 203.75 149.855469 203.671875 C 152.734375 213.023438 159.023438 220.855469 167.238281 225.800781 C 166.957031 226.589844 166.691406 227.410156 166.945312 228.445312 C 167.140625 229.527344 167.171875 230.546875 166.714844 231.296875 C 166.355469 232.117188 165.964844 232.898438 165.539062 233.683594 C 164.625 235.191406 163.644531 236.699219 162.207031 238.011719 C 161.519531 238.632812 161.058594 239.515625 161.027344 240.53125 C 160.960938 242.5 162.5 244.140625 164.460938 244.207031 C 166.421875 244.269531 168.089844 242.730469 168.15625 240.761719 C 168.1875 238.828125 168.710938 237.128906 169.300781 235.425781 C 169.59375 234.605469 169.953125 233.785156 170.34375 233 C 170.640625 232.148438 171.421875 231.523438 172.367188 230.996094 C 173.3125 230.507812 173.738281 229.820312 174.164062 229.089844 C 178.289062 230.574219 182.710938 231.425781 187.335938 231.425781 C 192.042969 231.425781 196.535156 230.546875 200.722656 229.015625 C 201.164062 229.769531 201.617188 230.492188 202.566406 230.996094 C 203.511719 231.554688 204.296875 232.148438 204.589844 233 C 204.980469 233.820312 205.308594 234.640625 205.605469 235.457031 C 206.191406 237.160156 206.679688 238.863281 206.746094 240.792969 C 206.746094 241.746094 207.136719 242.667969 207.890625 243.355469 C 209.359375 244.664062 211.585938 244.566406 212.925781 243.125 C 214.230469 241.648438 214.132812 239.417969 212.695312 238.074219 C 211.257812 236.796875 210.277344 235.257812 209.394531 233.71875 C 208.96875 232.964844 208.582031 232.148438 208.222656 231.363281 C 207.761719 230.578125 207.792969 229.589844 208.023438 228.507812 C 208.285156 227.394531 207.992188 226.578125 207.730469 225.726562 L 207.703125 225.640625 C 215.851562 220.648438 222.058594 212.789062 224.875 203.441406 L 224.980469 203.449219 C 225.898438 203.515625 226.777344 203.609375 227.757812 203.054688 C 228.738281 202.59375 229.722656 202.332031 230.574219 202.59375 C 231.421875 202.722656 232.300781 202.917969 233.152344 203.148438 C 234.851562 203.640625 236.554688 204.230469 238.15625 205.3125 C 238.941406 205.804688 239.921875 206.035156 240.902344 205.804688 C 242.828125 205.378906 244.039062 203.480469 243.613281 201.582031 C 243.1875 199.648438 241.289062 198.4375 239.363281 198.863281 C 237.46875 199.289062 235.703125 199.21875 233.90625 199.054688 C 233.023438 198.957031 232.171875 198.828125 231.289062 198.632812 C 230.40625 198.566406 229.628906 197.976562 228.875 197.191406 C 228.125 196.308594 227.273438 196.078125 226.425781 195.816406 L 226.367188 195.796875 C 226.480469 194.582031 226.550781 193.355469 226.550781 192.109375 C 226.550781 183.988281 224.078125 176.429688 219.851562 170.15625 C 220.46875 169.5 221.097656 168.878906 221.324219 167.769531 C 221.617188 166.71875 222.007812 165.800781 222.761719 165.3125 C 223.414062 164.722656 224.136719 164.195312 224.855469 163.671875 C 226.324219 162.691406 227.863281 161.738281 229.691406 161.214844 C 230.609375 160.953125 231.386719 160.328125 231.84375 159.410156 C 232.757812 157.675781 232.078125 155.515625 230.3125 154.632812 C 228.578125 153.714844 226.417969 154.398438 225.539062 156.167969 C 224.65625 157.871094 223.449219 159.214844 222.207031 160.460938 C 221.550781 161.082031 220.902344 161.675781 220.214844 162.234375 C 219.59375 162.886719 218.613281 163.082031 217.535156 163.148438 C 216.390625 163.179688 215.667969 163.707031 214.917969 164.199219 C 208.683594 158.007812 200.398438 153.898438 191.191406 152.992188 C 191.09375 152.109375 191.027344 151.222656 190.34375 150.335938 C 189.6875 149.453125 189.230469 148.566406 189.328125 147.683594 C 189.296875 146.796875 189.332031 145.910156 189.398438 144.992188 C 189.59375 143.226562 189.851562 141.457031 190.605469 139.6875 C 190.964844 138.835938 190.996094 137.824219 190.605469 136.875 C 190.015625 135.523438 188.695312 134.71875 187.3125 134.722656 Z M 182.625 159.726562 L 182.464844 160.984375 C 182.007812 164.523438 181.683594 168.09375 181.355469 171.632812 C 181.160156 173.5 180.996094 175.402344 180.863281 177.269531 C 179.261719 176.125 177.660156 174.910156 175.960938 173.828125 C 173.019531 171.828125 170.078125 169.828125 167.039062 167.929688 L 166.011719 167.289062 C 170.609375 163.316406 176.320312 160.636719 182.625 159.726562 Z M 192.046875 159.726562 C 198.609375 160.671875 204.523438 163.554688 209.210938 167.792969 L 208.117188 168.484375 C 205.113281 170.417969 202.207031 172.417969 199.265625 174.417969 C 198.089844 175.203125 196.941406 176.023438 195.832031 176.84375 C 194.949219 177.464844 193.738281 176.90625 193.675781 175.824219 C 193.578125 174.417969 193.449219 173.042969 193.316406 171.632812 C 192.992188 168.09375 192.664062 164.523438 192.207031 160.984375 Z M 159.828125 174.441406 L 160.867188 175.53125 C 163.351562 178.117188 165.867188 180.609375 168.417969 183.132812 C 169.496094 184.214844 170.574219 185.234375 171.6875 186.25 C 172.46875 186.96875 172.175781 188.246094 171.164062 188.539062 C 169.5625 189.03125 167.957031 189.488281 166.355469 190.011719 C 162.992188 191.125 159.59375 192.179688 156.226562 193.390625 L 154.746094 193.910156 C 154.714844 193.308594 154.65625 192.71875 154.65625 192.109375 C 154.65625 185.589844 156.570312 179.539062 159.828125 174.441406 Z M 215.234375 175.089844 C 218.25 180.050781 220.015625 185.859375 220.015625 192.109375 C 220.015625 192.65625 219.960938 193.1875 219.933594 193.730469 L 218.773438 193.359375 C 215.371094 192.246094 211.976562 191.289062 208.546875 190.304688 C 206.324219 189.652344 204.097656 189.066406 201.875 188.507812 C 203.542969 186.902344 205.28125 185.328125 206.878906 183.6875 C 209.398438 181.167969 211.910156 178.644531 214.359375 176.023438 Z M 185.3125 185.558594 L 189.296875 185.558594 C 189.917969 185.558594 190.507812 185.855469 190.835938 186.3125 L 193.382812 189.523438 C 193.742188 189.953125 193.875 190.566406 193.777344 191.125 L 192.859375 195.09375 C 192.757812 195.714844 192.332031 196.207031 191.8125 196.5 L 188.152344 198.203125 C 187.628906 198.496094 186.980469 198.496094 186.457031 198.203125 L 182.792969 196.5 C 182.269531 196.207031 181.8125 195.714844 181.746094 195.09375 L 180.832031 191.125 C 180.734375 190.566406 180.867188 189.953125 181.226562 189.523438 L 183.773438 186.3125 C 184.101562 185.855469 184.691406 185.558594 185.3125 185.558594 Z M 173.511719 201.183594 C 174.523438 201.019531 175.347656 202.039062 174.953125 202.988281 C 174.332031 204.628906 173.742188 206.234375 173.1875 207.871094 C 171.976562 211.246094 170.800781 214.585938 169.6875 217.996094 L 169.242188 219.402344 C 163.425781 215.523438 158.957031 209.820312 156.578125 203.105469 L 158.3125 202.957031 C 161.875 202.628906 165.371094 202.199219 168.933594 201.773438 C 170.472656 201.609375 171.976562 201.382812 173.511719 201.183594 Z M 201.75 201.644531 C 203.285156 201.808594 204.789062 201.976562 206.324219 202.105469 C 209.886719 202.433594 213.417969 202.757812 216.976562 202.988281 L 218.113281 203.054688 C 215.777344 209.683594 211.410156 215.335938 205.710938 219.21875 L 205.34375 218.027344 C 204.265625 214.621094 203.089844 211.246094 201.945312 207.902344 C 201.425781 206.394531 200.898438 204.925781 200.34375 203.449219 C 199.984375 202.5 200.769531 201.515625 201.75 201.644531 Z M 187.578125 208.109375 C 188.042969 208.109375 188.511719 208.34375 188.773438 208.820312 C 189.492188 210.195312 190.246094 211.539062 191.03125 212.882812 C 192.796875 215.960938 194.554688 219.074219 196.453125 222.089844 L 197.222656 223.34375 C 194.105469 224.332031 190.785156 224.875 187.335938 224.875 C 183.992188 224.875 180.765625 224.363281 177.730469 223.433594 L 178.546875 222.121094 C 180.441406 219.109375 182.238281 216.027344 184.035156 212.945312 C 184.855469 211.601562 185.640625 210.226562 186.390625 208.820312 C 186.652344 208.34375 187.113281 208.109375 187.578125 208.109375 Z M 187.578125 208.109375 " />
    </g>
  </g>
</svg>