<?xml version="1.0" encoding="UTF-8"?>
<svg xmlns="http://www.w3.org/2000/svg" xmlns:xlink="http://www.w3.org/1999/xlink" viewBox="0 0 375 374.999991"
  version="1.2">
  <defs>
    <clipPath id="clip20">
      <path d="M 124 112.5 L 251.34375 112.5 L 251.34375 262.5 L 124 262.5 Z M 124 112.5 " />
    </clipPath>
  </defs>
  <g id="surface20">
    <path style=" stroke:none;fill-rule:nonzero;fill:rgb(0%,0%,0%);fill-opacity:1;"
      d="M 187.5 84.375 C 185.8125 84.375 184.125 84.417969 182.441406 84.5 C 180.753906 84.582031 179.070312 84.707031 177.390625 84.871094 C 175.710938 85.035156 174.039062 85.242188 172.367188 85.492188 C 170.699219 85.738281 169.035156 86.027344 167.382812 86.355469 C 165.726562 86.6875 164.078125 87.054688 162.441406 87.464844 C 160.804688 87.875 159.179688 88.324219 157.5625 88.816406 C 155.949219 89.304688 154.347656 89.835938 152.757812 90.402344 C 151.167969 90.972656 149.59375 91.578125 148.035156 92.226562 C 146.476562 92.871094 144.933594 93.554688 143.410156 94.277344 C 141.882812 94.996094 140.375 95.757812 138.886719 96.550781 C 137.398438 97.347656 135.929688 98.179688 134.484375 99.046875 C 133.035156 99.914062 131.609375 100.816406 130.207031 101.753906 C 128.804688 102.691406 127.425781 103.664062 126.070312 104.667969 C 124.714844 105.675781 123.382812 106.710938 122.078125 107.785156 C 120.773438 108.855469 119.496094 109.957031 118.246094 111.089844 C 116.996094 112.222656 115.773438 113.386719 114.578125 114.578125 C 113.386719 115.773438 112.222656 116.996094 111.089844 118.246094 C 109.957031 119.496094 108.855469 120.773438 107.785156 122.078125 C 106.710938 123.382812 105.675781 124.714844 104.667969 126.070312 C 103.664062 127.425781 102.691406 128.804688 101.753906 130.207031 C 100.816406 131.609375 99.914062 133.035156 99.046875 134.484375 C 98.179688 135.929688 97.347656 137.398438 96.550781 138.886719 C 95.757812 140.375 94.996094 141.882812 94.277344 143.410156 C 93.554688 144.933594 92.871094 146.476562 92.226562 148.035156 C 91.578125 149.59375 90.972656 151.167969 90.402344 152.757812 C 89.835938 154.347656 89.304688 155.949219 88.816406 157.5625 C 88.324219 159.179688 87.875 160.804688 87.464844 162.441406 C 87.054688 164.078125 86.6875 165.726562 86.355469 167.382812 C 86.027344 169.035156 85.738281 170.699219 85.492188 172.367188 C 85.242188 174.039062 85.035156 175.710938 84.871094 177.390625 C 84.707031 179.070312 84.582031 180.753906 84.5 182.441406 C 84.417969 184.125 84.375 185.8125 84.375 187.5 C 84.375 189.1875 84.417969 190.875 84.5 192.558594 C 84.582031 194.246094 84.707031 195.929688 84.871094 197.609375 C 85.035156 199.289062 85.242188 200.960938 85.492188 202.632812 C 85.738281 204.300781 86.027344 205.964844 86.355469 207.617188 C 86.6875 209.273438 87.054688 210.921875 87.464844 212.558594 C 87.875 214.195312 88.324219 215.820312 88.816406 217.4375 C 89.304688 219.050781 89.835938 220.652344 90.402344 222.242188 C 90.972656 223.832031 91.578125 225.40625 92.226562 226.964844 C 92.871094 228.523438 93.554688 230.066406 94.277344 231.589844 C 94.996094 233.117188 95.757812 234.625 96.550781 236.113281 C 97.347656 237.601562 98.179688 239.070312 99.046875 240.515625 C 99.914062 241.964844 100.816406 243.390625 101.753906 244.792969 C 102.691406 246.195312 103.664062 247.574219 104.667969 248.929688 C 105.675781 250.285156 106.710938 251.617188 107.785156 252.921875 C 108.855469 254.226562 109.957031 255.503906 111.089844 256.753906 C 112.222656 258.003906 113.386719 259.226562 114.578125 260.421875 C 115.773438 261.613281 116.996094 262.777344 118.246094 263.910156 C 119.496094 265.042969 120.773438 266.144531 122.078125 267.214844 C 123.382812 268.289062 124.714844 269.324219 126.070312 270.332031 C 127.425781 271.335938 128.804688 272.308594 130.207031 273.246094 C 131.609375 274.183594 133.035156 275.085938 134.484375 275.953125 C 135.929688 276.820312 137.398438 277.652344 138.886719 278.449219 C 140.375 279.242188 141.882812 280.003906 143.410156 280.722656 C 144.933594 281.445312 146.476562 282.128906 148.035156 282.773438 C 149.59375 283.421875 151.167969 284.027344 152.757812 284.597656 C 154.347656 285.164062 155.949219 285.695312 157.5625 286.183594 C 159.179688 286.675781 160.804688 287.125 162.441406 287.535156 C 164.078125 287.945312 165.726562 288.3125 167.382812 288.644531 C 169.035156 288.972656 170.699219 289.261719 172.367188 289.507812 C 174.039062 289.757812 175.710938 289.964844 177.390625 290.128906 C 179.070312 290.292969 180.753906 290.417969 182.441406 290.5 C 184.125 290.582031 185.8125 290.625 187.5 290.625 C 189.1875 290.625 190.875 290.582031 192.558594 290.5 C 194.246094 290.417969 195.929688 290.292969 197.609375 290.128906 C 199.289062 289.964844 200.960938 289.757812 202.632812 289.507812 C 204.300781 289.261719 205.964844 288.972656 207.617188 288.644531 C 209.273438 288.3125 210.921875 287.945312 212.558594 287.535156 C 214.195312 287.125 215.820312 286.675781 217.4375 286.183594 C 219.050781 285.695312 220.652344 285.164062 222.242188 284.597656 C 223.832031 284.027344 225.40625 283.421875 226.964844 282.773438 C 228.523438 282.128906 230.066406 281.445312 231.589844 280.722656 C 233.117188 280.003906 234.625 279.242188 236.113281 278.449219 C 237.601562 277.652344 239.070312 276.820312 240.515625 275.953125 C 241.964844 275.085938 243.390625 274.183594 244.792969 273.246094 C 246.195312 272.308594 247.574219 271.335938 248.929688 270.332031 C 250.285156 269.324219 251.617188 268.289062 252.921875 267.214844 C 254.226562 266.144531 255.503906 265.042969 256.753906 263.910156 C 258.003906 262.777344 259.226562 261.613281 260.421875 260.421875 C 261.613281 259.226562 262.777344 258.003906 263.910156 256.753906 C 265.042969 255.503906 266.144531 254.226562 267.214844 252.921875 C 268.289062 251.617188 269.324219 250.285156 270.332031 248.929688 C 271.335938 247.574219 272.308594 246.195312 273.246094 244.792969 C 274.183594 243.390625 275.085938 241.964844 275.953125 240.515625 C 276.820312 239.070312 277.652344 237.601562 278.449219 236.113281 C 279.242188 234.625 280.003906 233.117188 280.722656 231.589844 C 281.445312 230.066406 282.128906 228.523438 282.773438 226.964844 C 283.421875 225.40625 284.027344 223.832031 284.597656 222.242188 C 285.164062 220.652344 285.695312 219.050781 286.183594 217.4375 C 286.675781 215.820312 287.125 214.195312 287.535156 212.558594 C 287.945312 210.921875 288.3125 209.273438 288.644531 207.617188 C 288.972656 205.964844 289.261719 204.300781 289.507812 202.632812 C 289.757812 200.960938 289.964844 199.289062 290.128906 197.609375 C 290.292969 195.929688 290.417969 194.246094 290.5 192.558594 C 290.582031 190.875 290.625 189.1875 290.625 187.5 C 290.625 185.8125 290.582031 184.125 290.5 182.441406 C 290.417969 180.753906 290.292969 179.070312 290.128906 177.390625 C 289.964844 175.710938 289.757812 174.039062 289.507812 172.367188 C 289.261719 170.699219 288.972656 169.035156 288.644531 167.382812 C 288.3125 165.726562 287.945312 164.078125 287.535156 162.441406 C 287.125 160.804688 286.675781 159.179688 286.183594 157.5625 C 285.695312 155.949219 285.164062 154.347656 284.597656 152.757812 C 284.027344 151.167969 283.421875 149.59375 282.773438 148.035156 C 282.128906 146.476562 281.445312 144.933594 280.722656 143.410156 C 280.003906 141.882812 279.242188 140.375 278.449219 138.886719 C 277.652344 137.398438 276.820312 135.929688 275.953125 134.484375 C 275.085938 133.035156 274.183594 131.609375 273.246094 130.207031 C 272.308594 128.804688 271.335938 127.425781 270.332031 126.070312 C 269.324219 124.714844 268.289062 123.382812 267.214844 122.078125 C 266.144531 120.773438 265.042969 119.496094 263.910156 118.246094 C 262.777344 116.996094 261.613281 115.773438 260.421875 114.578125 C 259.226562 113.386719 258.003906 112.222656 256.753906 111.089844 C 255.503906 109.957031 254.226562 108.855469 252.921875 107.785156 C 251.617188 106.710938 250.285156 105.675781 248.929688 104.667969 C 247.574219 103.664062 246.195312 102.691406 244.792969 101.753906 C 243.390625 100.816406 241.964844 99.914062 240.515625 99.046875 C 239.070312 98.179688 237.601562 97.347656 236.113281 96.550781 C 234.625 95.757812 233.117188 94.996094 231.589844 94.277344 C 230.066406 93.554688 228.523438 92.871094 226.964844 92.226562 C 225.40625 91.578125 223.832031 90.972656 222.242188 90.402344 C 220.652344 89.835938 219.050781 89.304688 217.4375 88.816406 C 215.820312 88.324219 214.195312 87.875 212.558594 87.464844 C 210.921875 87.054688 209.273438 86.6875 207.617188 86.355469 C 205.964844 86.027344 204.300781 85.738281 202.632812 85.492188 C 200.960938 85.242188 199.289062 85.035156 197.609375 84.871094 C 195.929688 84.707031 194.246094 84.582031 192.558594 84.5 C 190.875 84.417969 189.1875 84.375 187.5 84.375 Z M 187.5 84.375 " />
    <g clip-path="url(#clip20)" clip-rule="nonzero">
      <path style=" stroke:none;fill-rule:nonzero;fill:rgb(100%,100%,100%);fill-opacity:1;"
        d="M 186.457031 112.789062 C 171.390625 112.789062 163.75 123.683594 163.75 145.183594 L 163.75 161.382812 C 163.75 162.582031 163.417969 164.011719 162.847656 165.164062 C 162.660156 165.558594 161.746094 166.847656 160.933594 167.972656 C 156.421875 174.277344 146.449219 191.6875 144.597656 210.621094 C 145.320312 210.480469 146.058594 210.378906 146.878906 210.378906 C 148.871094 210.378906 154.117188 210.378906 162.480469 224.160156 C 164.078125 226.449219 164.914062 227.855469 166.066406 229.777344 C 166.839844 231.09375 167.789062 232.703125 169.3125 235.117188 L 169.386719 235.230469 L 169.476562 235.371094 C 170.351562 236.925781 171.261719 238.167969 172.152344 239.34375 C 172.65625 240.027344 173.175781 240.738281 173.683594 241.46875 C 175.671875 240.671875 177.703125 239.484375 178.90625 237.761719 C 180.488281 235.128906 180.3125 232.003906 178.4375 229.195312 C 177.664062 228.019531 176.230469 227.183594 172.808594 225.222656 C 170.757812 224.058594 168.210938 222.601562 167.042969 221.601562 C 164.320312 219.273438 160.503906 214.199219 160.503906 210.175781 C 160.503906 201.570312 166.269531 188.449219 170.894531 180.667969 C 173.542969 176.226562 175.558594 172.796875 176.359375 169.871094 C 176.8125 170.1875 177.320312 170.492188 178.03125 170.734375 L 178.144531 170.769531 L 178.273438 170.808594 C 180.527344 171.402344 182.796875 171.300781 184.265625 171.300781 C 187.320312 171.300781 189.523438 169.835938 191.578125 168.605469 C 193.59375 167.378906 195.582031 166.242188 195.875 166.140625 C 197.34375 168.910156 199.246094 171.480469 201.222656 174.148438 C 206.644531 181.4375 213.160156 193.699219 215.085938 211.910156 C 217.609375 210.582031 219.054688 210.175781 222.144531 210.175781 C 222.207031 210.175781 222.285156 210.1875 222.347656 210.1875 C 222.625 210.175781 222.894531 210.152344 223.171875 210.152344 C 223.984375 210.152344 224.804688 210.203125 225.617188 210.277344 C 227.53125 210.390625 230.089844 211.050781 231.597656 211.570312 C 234.132812 212.316406 236.226562 213.644531 237.695312 215.339844 C 239.011719 215.351562 240.28125 215.65625 241.445312 216.226562 C 241.445312 214.113281 241.609375 211.011719 241.609375 210.175781 C 241.609375 199.484375 234.589844 184.730469 229.304688 177.160156 C 228.214844 175.59375 227.164062 174.125 226.148438 172.71875 C 221.472656 166.253906 217.773438 161.140625 215.65625 152.332031 C 214.261719 146.613281 214.074219 144.84375 213.882812 143.132812 C 213.707031 141.414062 213.503906 139.617188 212.347656 134.78125 C 210.246094 124.988281 207.648438 112.789062 186.457031 112.789062 Z M 176.726562 132.226562 C 180.3125 132.226562 183.214844 138.742188 183.214844 144.121094 C 183.214844 144.449219 183.175781 144.96875 183.152344 145.4375 C 182.910156 145.425781 182.667969 145.386719 182.414062 145.386719 C 181.492188 145.386719 180.628906 145.527344 179.804688 145.742188 C 179.410156 143.679688 178.222656 142.148438 176.726562 142.148438 C 174.9375 142.148438 173.480469 144.324219 173.480469 147.007812 C 173.480469 147.664062 173.570312 148.285156 173.734375 148.855469 C 172.859375 149.511719 172.1875 150.070312 171.796875 150.460938 C 171.679688 150.5625 171.59375 150.636719 171.492188 150.726562 C 171.25 150.21875 171.046875 149.703125 170.871094 149.132812 C 170.503906 146.867188 170.238281 144.121094 170.238281 144.121094 C 170.238281 138.742188 173.140625 132.226562 176.726562 132.226562 Z M 192.945312 132.226562 C 196.535156 132.226562 199.433594 138.742188 199.433594 144.121094 C 199.433594 146.121094 199.003906 148.472656 198.308594 150.335938 C 197.40625 149.953125 196.546875 149.664062 195.683594 149.449219 C 195.976562 148.726562 196.191406 147.917969 196.191406 147.007812 C 196.191406 144.324219 194.734375 142.148438 192.945312 142.148438 C 191.160156 142.148438 189.703125 144.324219 189.703125 147.007812 C 189.703125 147.019531 189.703125 147.03125 189.703125 147.042969 C 188.738281 146.652344 187.675781 146.273438 186.558594 145.980469 C 186.507812 145.296875 186.457031 144.601562 186.457031 144.121094 C 186.457031 138.742188 189.359375 132.226562 192.945312 132.226562 Z M 182.414062 151.867188 C 183.734375 151.867188 185.648438 152.382812 187.394531 153.09375 C 189.144531 153.800781 190.628906 154.585938 191.871094 155.105469 L 192.125 155.21875 L 192.390625 155.269531 C 194.035156 155.660156 195.519531 156.078125 196.128906 156.394531 C 195.964844 157.789062 195.796875 158.546875 195.722656 158.660156 C 195.632812 158.800781 195.175781 159.230469 193.515625 160.117188 C 191.464844 160.851562 189.90625 162.039062 188.234375 163.050781 C 186.394531 164.152344 184.53125 164.824219 184.265625 164.824219 C 182.847656 164.824219 180.882812 164.722656 180.097656 164.558594 C 180.402344 164.644531 179.867188 164.378906 179.195312 163.761719 C 178.472656 163.078125 177.574219 162.140625 176.660156 161.167969 L 176.421875 160.925781 L 176.167969 160.75 C 175.128906 160.015625 174.316406 159.355469 173.925781 158.886719 C 173.519531 158.40625 173.480469 158.269531 173.480469 157.953125 C 173.480469 157.472656 173.390625 157.761719 173.683594 157.433594 C 173.976562 157.089844 174.863281 156.394531 176.066406 155.332031 L 176.179688 155.246094 L 176.28125 155.128906 C 176.105469 155.320312 177.28125 154.167969 178.5625 153.332031 C 179.84375 152.5 181.425781 151.867188 182.414062 151.867188 Z M 223.171875 216.644531 C 220.144531 216.644531 218.039062 217.542969 217.46875 218.261719 C 218.785156 219.78125 219.597656 221.25 220.433594 223.90625 C 221.335938 225.878906 223.589844 226.375 225.390625 226.375 C 230.890625 226.375 231.953125 223.070312 233.691406 221.210938 C 233.691406 221.210938 233.234375 220.703125 233.234375 220.210938 C 232.777344 219.222656 231.433594 218.238281 229.636719 217.742188 C 228.277344 217.25 226.023438 216.757812 225.125 216.757812 C 224.4375 216.667969 223.792969 216.644531 223.171875 216.644531 Z M 146.878906 216.859375 C 144.625 216.859375 143.507812 217.972656 142 219.476562 C 140.492188 220.96875 138.898438 223.300781 136.261719 225.171875 C 133.941406 228.183594 127.007812 225.285156 125.019531 229.816406 C 123.917969 232.296875 127.707031 235.5625 127.707031 241.167969 C 127.707031 243.417969 125.816406 244.914062 125.449219 246.417969 C 125.070312 248.277344 124.691406 249.40625 125.449219 250.898438 C 126.945312 253.136719 128.835938 253.898438 141.621094 256.503906 C 148.390625 258.011719 154.789062 261.753906 158.921875 262.121094 C 163.050781 262.488281 170.199219 262.121094 170.199219 252.023438 C 170.578125 246.039062 167.195312 244.546875 163.8125 238.558594 C 160.046875 232.5625 159.679688 231.449219 157.042969 227.703125 C 154.789062 223.957031 149.898438 216.859375 146.878906 216.859375 Z M 213.171875 223.324219 C 212.414062 224.84375 212.414062 225.996094 212.414062 229.816406 C 212.414062 232.878906 212.414062 236.320312 212.03125 239.003906 C 211.257812 245.507812 209.167969 248.429688 209.167969 252.253906 C 209.167969 256.464844 210.320312 259.148438 211.855469 260.300781 C 212.996094 261.453125 214.921875 262.210938 219.140625 262.210938 C 223.347656 262.210938 226.035156 260.679688 228.722656 258.011719 C 230.636719 256.085938 232.167969 255.328125 237.542969 251.492188 C 241.75 248.808594 248.277344 245.367188 249.417969 244.230469 C 250.191406 243.457031 251.34375 243.066406 251.34375 240.761719 C 251.34375 238.851562 249.808594 238.09375 248.65625 237.710938 C 247.125 236.941406 244.449219 235.789062 242.144531 232.347656 C 241.140625 230.6875 241.292969 226.425781 240.089844 223.832031 L 238.429688 225.613281 C 238.238281 225.816406 238.074219 226.082031 237.886719 226.324219 C 236.3125 228.449219 233.042969 232.851562 225.390625 232.851562 C 220.371094 232.851562 216.316406 230.511719 214.527344 226.578125 L 214.363281 226.222656 L 214.238281 225.828125 C 213.832031 224.539062 213.503906 223.84375 213.171875 223.324219 Z M 204.3125 244.027344 C 201.222656 246.683594 196.496094 249.253906 189.703125 249.253906 C 182.796875 249.253906 178.132812 246.710938 175.167969 244.101562 C 176.191406 246.253906 176.878906 248.808594 176.6875 252.226562 C 176.6875 253.453125 176.574219 254.617188 176.394531 255.730469 L 202.945312 255.730469 C 202.792969 254.617188 202.679688 253.480469 202.679688 252.253906 C 202.679688 249.390625 203.390625 247.0625 204.085938 244.8125 C 204.164062 244.558594 204.238281 244.28125 204.3125 244.027344 Z M 204.3125 244.027344 " />
    </g>
  </g>
</svg>