<?xml version="1.0" encoding="UTF-8"?>
<svg xmlns="http://www.w3.org/2000/svg" xmlns:xlink="http://www.w3.org/1999/xlink" viewBox="0 0 375 374.999991"
  version="1.2">
  <defs>
    <clipPath id="clip68968">
      <path d="M 112.5 112.5 L 262.5 112.5 L 262.5 262.5 L 112.5 262.5 Z M 112.5 112.5 " />
    </clipPath>
  </defs>
  <g id="surface68968">
    <path style=" stroke:none;fill-rule:nonzero;fill:rgb(100%,100%,100%);fill-opacity:1;"
      d="M 188 144.414062 C 173.019531 144.414062 160.878906 156.546875 160.878906 171.523438 C 160.878906 186.507812 173.019531 198.640625 188 198.640625 C 202.972656 198.640625 215.117188 186.507812 215.117188 171.523438 C 215.117188 156.546875 202.972656 144.414062 188 144.414062 " />
    <g clip-path="url(#clip68968)" clip-rule="nonzero">
      <path style=" stroke:none;fill-rule:nonzero;fill:rgb(100%,100%,100%);fill-opacity:1;"
        d="M 217.167969 195.242188 L 188 242.703125 L 158.792969 195.191406 C 153.550781 188.730469 150.398438 180.5 150.398438 171.523438 C 150.398438 150.761719 167.234375 133.925781 188 133.925781 C 208.769531 133.925781 225.601562 150.761719 225.601562 171.523438 C 225.601562 180.519531 222.433594 188.769531 217.167969 195.242188 Z M 187.519531 112.515625 C 146.097656 112.515625 112.515625 146.097656 112.515625 187.523438 C 112.515625 228.949219 146.097656 262.53125 187.519531 262.53125 C 228.949219 262.53125 262.53125 228.949219 262.53125 187.523438 C 262.53125 146.097656 228.949219 112.515625 187.519531 112.515625 " />
    </g>
  </g>
</svg>