<?xml version="1.0" encoding="UTF-8"?>
<svg xmlns="http://www.w3.org/2000/svg" xmlns:xlink="http://www.w3.org/1999/xlink" width="375pt" height="374.999991pt"
  viewBox="0 0 375 374.999991" version="1.2">
  <defs>
    <clipPath id="clip2">
      <path d="M 149 149.25 L 262.5 149.25 L 262.5 225.75 L 149 225.75 Z M 149 149.25 " />
    </clipPath>
    <clipPath id="clip22">
      <path d="M 112.5 185 L 134 185 L 134 190 L 112.5 190 Z M 112.5 185 " />
    </clipPath>
  </defs>
  <g id="surface2">
    <g clip-path="url(#clip2)" clip-rule="nonzero">
      <path style=" stroke:none;fill-rule:nonzero;fill:rgb(100%,100%,100%);fill-opacity:1;"
        d="M 262.433594 150.597656 C 262.421875 150.492188 262.40625 150.390625 262.367188 150.289062 C 262.332031 150.1875 262.285156 150.097656 262.226562 150.003906 C 262.195312 149.949219 262.183594 149.890625 262.144531 149.835938 C 262.125 149.8125 262.097656 149.800781 262.078125 149.777344 C 262.007812 149.695312 261.921875 149.632812 261.835938 149.566406 C 261.761719 149.511719 261.6875 149.453125 261.605469 149.414062 C 261.523438 149.371094 261.433594 149.351562 261.347656 149.328125 C 261.238281 149.300781 261.140625 149.269531 261.027344 149.265625 C 261 149.265625 260.96875 149.25 260.941406 149.25 L 150.78125 149.25 C 150.746094 149.25 150.71875 149.265625 150.6875 149.269531 C 150.585938 149.273438 150.488281 149.300781 150.386719 149.328125 C 150.289062 149.355469 150.199219 149.378906 150.109375 149.421875 C 150.03125 149.460938 149.964844 149.515625 149.894531 149.566406 C 149.800781 149.632812 149.714844 149.695312 149.640625 149.78125 C 149.621094 149.804688 149.59375 149.816406 149.574219 149.839844 C 149.535156 149.894531 149.523438 149.953125 149.492188 150.003906 C 149.4375 150.097656 149.386719 150.1875 149.351562 150.289062 C 149.316406 150.390625 149.300781 150.492188 149.289062 150.597656 C 149.28125 150.65625 149.25 150.714844 149.25 150.78125 L 149.25 224.21875 C 149.25 225.066406 149.933594 225.75 150.78125 225.75 L 260.941406 225.75 C 261.785156 225.75 262.46875 225.066406 262.46875 224.21875 L 262.46875 150.78125 C 262.46875 150.714844 262.4375 150.660156 262.433594 150.597656 Z M 256.480469 152.308594 L 205.859375 191.679688 L 155.238281 152.308594 Z M 152.308594 222.691406 L 152.308594 153.90625 L 204.921875 194.824219 C 205.195312 195.039062 205.527344 195.148438 205.859375 195.148438 C 206.195312 195.148438 206.523438 195.039062 206.800781 194.824219 L 259.410156 153.90625 L 259.410156 222.691406 Z M 152.308594 222.691406 " />
    </g>
    <path style=" stroke:none;fill-rule:nonzero;fill:rgb(100%,100%,100%);fill-opacity:1;"
      d="M 132.421875 161.488281 L 120.179688 161.488281 C 119.335938 161.488281 118.648438 162.175781 118.648438 163.019531 C 118.648438 163.863281 119.335938 164.550781 120.179688 164.550781 L 132.421875 164.550781 C 133.265625 164.550781 133.949219 163.863281 133.949219 163.019531 C 133.949219 162.175781 133.265625 161.488281 132.421875 161.488281 Z M 132.421875 161.488281 " />
    <g clip-path="url(#clip22)" clip-rule="nonzero">
      <path style=" stroke:none;fill-rule:nonzero;fill:rgb(100%,100%,100%);fill-opacity:1;"
        d="M 132.421875 185.96875 L 114.058594 185.96875 C 113.214844 185.96875 112.53125 186.65625 112.53125 187.5 C 112.53125 188.34375 113.214844 189.03125 114.058594 189.03125 L 132.421875 189.03125 C 133.265625 189.03125 133.949219 188.34375 133.949219 187.5 C 133.949219 186.65625 133.265625 185.96875 132.421875 185.96875 Z M 132.421875 185.96875 " />
    </g>
    <path style=" stroke:none;fill-rule:nonzero;fill:rgb(100%,100%,100%);fill-opacity:1;"
      d="M 132.421875 210.449219 L 126.300781 210.449219 C 125.457031 210.449219 124.769531 211.136719 124.769531 211.980469 C 124.769531 212.824219 125.457031 213.511719 126.300781 213.511719 L 132.421875 213.511719 C 133.265625 213.511719 133.949219 212.824219 133.949219 211.980469 C 133.949219 211.136719 133.265625 210.449219 132.421875 210.449219 Z M 132.421875 210.449219 " />
  </g>
</svg>