<?xml version="1.0" encoding="UTF-8"?>
<svg xmlns="http://www.w3.org/2000/svg" xmlns:xlink="http://www.w3.org/1999/xlink" width="375pt" height="374.999991pt"
  viewBox="0 0 375 374.999991" version="1.2">
  <defs>
    <clipPath id="clip9551">
      <path d="M 112.5 112.5 L 262.5 112.5 L 262.5 262.5 L 112.5 262.5 Z M 112.5 112.5 " />
    </clipPath>
  </defs>
  <g id="surface9551">
    <g clip-path="url(#clip9551)" clip-rule="nonzero">
      <path style=" stroke:none;fill-rule:nonzero;fill:rgb(100%,100%,100%);fill-opacity:1;"
        d="M 248.863281 112.5 L 126.136719 112.5 C 118.601562 112.5 112.5 118.601562 112.5 126.136719 L 112.5 248.863281 C 112.5 256.398438 118.601562 262.5 126.136719 262.5 L 248.863281 262.5 C 256.398438 262.5 262.5 256.398438 262.5 248.863281 L 262.5 126.136719 C 262.5 118.601562 256.398438 112.5 248.863281 112.5 Z M 238.921875 228.410156 L 198.484375 228.410156 L 198.484375 226.136719 L 207.953125 217.808594 L 207.953125 170.25 L 184.699219 228.410156 L 181.0625 228.410156 L 155.113281 169.792969 L 155.113281 211.296875 L 166.976562 226.136719 L 166.976562 228.410156 L 136.078125 228.410156 L 136.078125 226.136719 L 148.34375 211.296875 L 148.34375 161.917969 L 137.441406 148.289062 C 137.441406 148.289062 137.441406 146.316406 137.441406 146.625 L 167.277344 146.625 L 190.453125 196.757812 L 210.441406 146.625 L 238.765625 146.625 L 238.765625 148.289062 L 228.410156 156.996094 L 228.410156 217.808594 L 238.921875 226.136719 Z M 238.921875 228.410156 " />
    </g>
  </g>
</svg>