<?xml version="1.0" encoding="UTF-8"?>
<svg xmlns="http://www.w3.org/2000/svg" xmlns:xlink="http://www.w3.org/1999/xlink" viewBox="0 0 375 374.999991"
  version="1.2">
  <defs>
    <clipPath id="clip21">
      <path d="M 113 196 L 175 196 L 175 226.78125 L 113 226.78125 Z M 113 196 " />
    </clipPath>
  </defs>
  <g id="surface21">
    <path style=" stroke:none;fill-rule:nonzero;fill:rgb(0%,0%,0%);fill-opacity:1;"
      d="M 187.5 84.375 C 185.8125 84.375 184.125 84.417969 182.441406 84.5 C 180.753906 84.582031 179.070312 84.707031 177.390625 84.871094 C 175.710938 85.035156 174.039062 85.242188 172.367188 85.492188 C 170.699219 85.738281 169.035156 86.027344 167.382812 86.355469 C 165.726562 86.6875 164.078125 87.054688 162.441406 87.464844 C 160.804688 87.875 159.179688 88.324219 157.5625 88.816406 C 155.949219 89.304688 154.347656 89.835938 152.757812 90.402344 C 151.167969 90.972656 149.59375 91.578125 148.035156 92.226562 C 146.476562 92.871094 144.933594 93.554688 143.410156 94.277344 C 141.882812 94.996094 140.375 95.757812 138.886719 96.550781 C 137.398438 97.347656 135.929688 98.179688 134.484375 99.046875 C 133.035156 99.914062 131.609375 100.816406 130.207031 101.753906 C 128.804688 102.691406 127.425781 103.664062 126.070312 104.667969 C 124.714844 105.675781 123.382812 106.710938 122.078125 107.785156 C 120.773438 108.855469 119.496094 109.957031 118.246094 111.089844 C 116.996094 112.222656 115.773438 113.386719 114.578125 114.578125 C 113.386719 115.773438 112.222656 116.996094 111.089844 118.246094 C 109.957031 119.496094 108.855469 120.773438 107.785156 122.078125 C 106.710938 123.382812 105.675781 124.714844 104.667969 126.070312 C 103.664062 127.425781 102.691406 128.804688 101.753906 130.207031 C 100.816406 131.609375 99.914062 133.035156 99.046875 134.484375 C 98.179688 135.929688 97.347656 137.398438 96.550781 138.886719 C 95.757812 140.375 94.996094 141.882812 94.277344 143.410156 C 93.554688 144.933594 92.871094 146.476562 92.226562 148.035156 C 91.578125 149.59375 90.972656 151.167969 90.402344 152.757812 C 89.835938 154.347656 89.304688 155.949219 88.816406 157.5625 C 88.324219 159.179688 87.875 160.804688 87.464844 162.441406 C 87.054688 164.078125 86.6875 165.726562 86.355469 167.382812 C 86.027344 169.035156 85.738281 170.699219 85.492188 172.367188 C 85.242188 174.039062 85.035156 175.710938 84.871094 177.390625 C 84.707031 179.070312 84.582031 180.753906 84.5 182.441406 C 84.417969 184.125 84.375 185.8125 84.375 187.5 C 84.375 189.1875 84.417969 190.875 84.5 192.558594 C 84.582031 194.246094 84.707031 195.929688 84.871094 197.609375 C 85.035156 199.289062 85.242188 200.960938 85.492188 202.632812 C 85.738281 204.300781 86.027344 205.964844 86.355469 207.617188 C 86.6875 209.273438 87.054688 210.921875 87.464844 212.558594 C 87.875 214.195312 88.324219 215.820312 88.816406 217.4375 C 89.304688 219.050781 89.835938 220.652344 90.402344 222.242188 C 90.972656 223.832031 91.578125 225.40625 92.226562 226.964844 C 92.871094 228.523438 93.554688 230.066406 94.277344 231.589844 C 94.996094 233.117188 95.757812 234.625 96.550781 236.113281 C 97.347656 237.601562 98.179688 239.070312 99.046875 240.515625 C 99.914062 241.964844 100.816406 243.390625 101.753906 244.792969 C 102.691406 246.195312 103.664062 247.574219 104.667969 248.929688 C 105.675781 250.285156 106.710938 251.617188 107.785156 252.921875 C 108.855469 254.226562 109.957031 255.503906 111.089844 256.753906 C 112.222656 258.003906 113.386719 259.226562 114.578125 260.421875 C 115.773438 261.613281 116.996094 262.777344 118.246094 263.910156 C 119.496094 265.042969 120.773438 266.144531 122.078125 267.214844 C 123.382812 268.289062 124.714844 269.324219 126.070312 270.332031 C 127.425781 271.335938 128.804688 272.308594 130.207031 273.246094 C 131.609375 274.183594 133.035156 275.085938 134.484375 275.953125 C 135.929688 276.820312 137.398438 277.652344 138.886719 278.449219 C 140.375 279.242188 141.882812 280.003906 143.410156 280.722656 C 144.933594 281.445312 146.476562 282.128906 148.035156 282.773438 C 149.59375 283.421875 151.167969 284.027344 152.757812 284.597656 C 154.347656 285.164062 155.949219 285.695312 157.5625 286.183594 C 159.179688 286.675781 160.804688 287.125 162.441406 287.535156 C 164.078125 287.945312 165.726562 288.3125 167.382812 288.644531 C 169.035156 288.972656 170.699219 289.261719 172.367188 289.507812 C 174.039062 289.757812 175.710938 289.964844 177.390625 290.128906 C 179.070312 290.292969 180.753906 290.417969 182.441406 290.5 C 184.125 290.582031 185.8125 290.625 187.5 290.625 C 189.1875 290.625 190.875 290.582031 192.558594 290.5 C 194.246094 290.417969 195.929688 290.292969 197.609375 290.128906 C 199.289062 289.964844 200.960938 289.757812 202.632812 289.507812 C 204.300781 289.261719 205.964844 288.972656 207.617188 288.644531 C 209.273438 288.3125 210.921875 287.945312 212.558594 287.535156 C 214.195312 287.125 215.820312 286.675781 217.4375 286.183594 C 219.050781 285.695312 220.652344 285.164062 222.242188 284.597656 C 223.832031 284.027344 225.40625 283.421875 226.964844 282.773438 C 228.523438 282.128906 230.066406 281.445312 231.589844 280.722656 C 233.117188 280.003906 234.625 279.242188 236.113281 278.449219 C 237.601562 277.652344 239.070312 276.820312 240.515625 275.953125 C 241.964844 275.085938 243.390625 274.183594 244.792969 273.246094 C 246.195312 272.308594 247.574219 271.335938 248.929688 270.332031 C 250.285156 269.324219 251.617188 268.289062 252.921875 267.214844 C 254.226562 266.144531 255.503906 265.042969 256.753906 263.910156 C 258.003906 262.777344 259.226562 261.613281 260.421875 260.421875 C 261.613281 259.226562 262.777344 258.003906 263.910156 256.753906 C 265.042969 255.503906 266.144531 254.226562 267.214844 252.921875 C 268.289062 251.617188 269.324219 250.285156 270.332031 248.929688 C 271.335938 247.574219 272.308594 246.195312 273.246094 244.792969 C 274.183594 243.390625 275.085938 241.964844 275.953125 240.515625 C 276.820312 239.070312 277.652344 237.601562 278.449219 236.113281 C 279.242188 234.625 280.003906 233.117188 280.722656 231.589844 C 281.445312 230.066406 282.128906 228.523438 282.773438 226.964844 C 283.421875 225.40625 284.027344 223.832031 284.597656 222.242188 C 285.164062 220.652344 285.695312 219.050781 286.183594 217.4375 C 286.675781 215.820312 287.125 214.195312 287.535156 212.558594 C 287.945312 210.921875 288.3125 209.273438 288.644531 207.617188 C 288.972656 205.964844 289.261719 204.300781 289.507812 202.632812 C 289.757812 200.960938 289.964844 199.289062 290.128906 197.609375 C 290.292969 195.929688 290.417969 194.246094 290.5 192.558594 C 290.582031 190.875 290.625 189.1875 290.625 187.5 C 290.625 185.8125 290.582031 184.125 290.5 182.441406 C 290.417969 180.753906 290.292969 179.070312 290.128906 177.390625 C 289.964844 175.710938 289.757812 174.039062 289.507812 172.367188 C 289.261719 170.699219 288.972656 169.035156 288.644531 167.382812 C 288.3125 165.726562 287.945312 164.078125 287.535156 162.441406 C 287.125 160.804688 286.675781 159.179688 286.183594 157.5625 C 285.695312 155.949219 285.164062 154.347656 284.597656 152.757812 C 284.027344 151.167969 283.421875 149.59375 282.773438 148.035156 C 282.128906 146.476562 281.445312 144.933594 280.722656 143.410156 C 280.003906 141.882812 279.242188 140.375 278.449219 138.886719 C 277.652344 137.398438 276.820312 135.929688 275.953125 134.484375 C 275.085938 133.035156 274.183594 131.609375 273.246094 130.207031 C 272.308594 128.804688 271.335938 127.425781 270.332031 126.070312 C 269.324219 124.714844 268.289062 123.382812 267.214844 122.078125 C 266.144531 120.773438 265.042969 119.496094 263.910156 118.246094 C 262.777344 116.996094 261.613281 115.773438 260.421875 114.578125 C 259.226562 113.386719 258.003906 112.222656 256.753906 111.089844 C 255.503906 109.957031 254.226562 108.855469 252.921875 107.785156 C 251.617188 106.710938 250.285156 105.675781 248.929688 104.667969 C 247.574219 103.664062 246.195312 102.691406 244.792969 101.753906 C 243.390625 100.816406 241.964844 99.914062 240.515625 99.046875 C 239.070312 98.179688 237.601562 97.347656 236.113281 96.550781 C 234.625 95.757812 233.117188 94.996094 231.589844 94.277344 C 230.066406 93.554688 228.523438 92.871094 226.964844 92.226562 C 225.40625 91.578125 223.832031 90.972656 222.242188 90.402344 C 220.652344 89.835938 219.050781 89.304688 217.4375 88.816406 C 215.820312 88.324219 214.195312 87.875 212.558594 87.464844 C 210.921875 87.054688 209.273438 86.6875 207.617188 86.355469 C 205.964844 86.027344 204.300781 85.738281 202.632812 85.492188 C 200.960938 85.242188 199.289062 85.035156 197.609375 84.871094 C 195.929688 84.707031 194.246094 84.582031 192.558594 84.5 C 190.875 84.417969 189.1875 84.375 187.5 84.375 Z M 187.5 84.375 " />
    <g clip-path="url(#clip21)" clip-rule="nonzero">
      <path style=" stroke:none;fill-rule:nonzero;fill:rgb(0%,38.038635%,54.119873%);fill-opacity:1;"
        d="M 113.054688 219.984375 L 117.957031 219.984375 L 117.957031 200.648438 L 125.550781 217.511719 C 126.449219 219.542969 127.675781 220.273438 130.082031 220.273438 C 132.484375 220.273438 133.664062 219.550781 134.5625 217.511719 L 142.15625 200.648438 L 142.15625 219.992188 L 147.0625 219.992188 L 147.0625 200.679688 C 147.0625 198.796875 146.304688 197.886719 144.75 197.414062 C 141.023438 196.253906 138.523438 197.257812 137.390625 199.769531 L 129.941406 216.410156 L 122.722656 199.761719 C 121.636719 197.25 119.089844 196.246094 115.367188 197.40625 C 113.808594 197.878906 113.054688 198.789062 113.054688 200.671875 Z M 151.140625 204.242188 L 156.042969 204.242188 L 156.042969 214.898438 C 155.996094 215.476562 156.230469 216.835938 158.914062 216.875 C 160.285156 216.898438 169.496094 216.875 169.582031 216.875 L 169.582031 204.1875 L 174.496094 204.1875 C 174.519531 204.1875 174.492188 221.488281 174.492188 221.5625 C 174.519531 225.832031 169.191406 226.757812 166.734375 226.828125 L 151.246094 226.828125 L 151.246094 223.535156 L 166.761719 223.53125 C 169.917969 223.199219 169.546875 221.632812 169.546875 221.105469 L 169.546875 219.820312 L 159.121094 219.820312 C 154.269531 219.777344 151.183594 217.664062 151.144531 215.230469 C 151.140625 215.011719 151.246094 204.34375 151.140625 204.238281 Z M 151.140625 204.242188 " />
    </g>
    <path style=" stroke:none;fill-rule:nonzero;fill:rgb(89.408875%,55.688477%,0%);fill-opacity:1;"
      d="M 178.277344 219.984375 L 192.382812 219.984375 C 194.03125 219.984375 195.636719 219.636719 196.910156 219.039062 C 199.035156 218.066406 200.070312 216.75 200.070312 215.023438 L 200.070312 211.441406 C 200.070312 210.03125 198.890625 208.710938 196.582031 207.832031 C 195.355469 207.359375 193.84375 207.109375 192.382812 207.109375 L 186.441406 207.109375 C 184.460938 207.109375 183.515625 206.511719 183.28125 205.195312 C 183.234375 205.039062 183.234375 204.90625 183.234375 204.753906 L 183.234375 202.527344 C 183.234375 202.402344 183.234375 202.273438 183.28125 202.117188 C 183.515625 201.113281 184.035156 200.832031 185.78125 200.667969 C 185.921875 200.667969 186.109375 200.632812 186.253906 200.632812 L 200.261719 200.632812 L 200.261719 197.371094 L 186.488281 197.371094 C 184.507812 197.371094 183.46875 197.496094 182.527344 197.777344 C 179.597656 198.6875 178.324219 200.140625 178.324219 202.652344 L 178.324219 205.507812 C 178.324219 207.707031 180.824219 209.589844 185.019531 210.03125 C 185.492188 210.0625 185.964844 210.09375 186.4375 210.09375 L 191.53125 210.09375 C 191.71875 210.09375 191.90625 210.09375 192.050781 210.125 C 193.605469 210.25 194.265625 210.53125 194.738281 211.097656 C 195.027344 211.386719 195.117188 211.664062 195.117188 211.96875 L 195.117188 214.824219 C 195.117188 215.171875 194.878906 215.613281 194.40625 215.988281 C 193.984375 216.363281 193.277344 216.617188 192.332031 216.679688 C 192.144531 216.679688 192.003906 216.710938 191.8125 216.710938 L 178.277344 216.710938 Z M 230.671875 214.300781 C 230.671875 217.660156 233.167969 219.542969 238.214844 219.921875 C 238.6875 219.957031 239.160156 219.976562 239.632812 219.984375 L 252.414062 219.984375 L 252.414062 216.71875 L 239.535156 216.71875 C 236.660156 216.71875 235.574219 215.996094 235.574219 214.269531 L 235.574219 197.375 L 230.667969 197.375 L 230.667969 214.300781 Z M 203.199219 214.46875 L 203.199219 202.828125 C 203.199219 199.871094 205.277344 198.078125 209.390625 197.511719 C 209.832031 197.449219 210.273438 197.417969 210.714844 197.417969 L 220.027344 197.417969 C 220.484375 197.417969 220.941406 197.449219 221.398438 197.511719 C 225.507812 198.078125 227.589844 199.871094 227.589844 202.828125 L 227.589844 214.46875 C 227.589844 216.871094 226.707031 218.152344 224.667969 218.992188 L 229.5 223.347656 L 223.804688 223.347656 L 219.898438 219.824219 L 215.960938 220.070312 L 210.714844 220.070312 C 209.816406 220.070312 208.871094 219.945312 207.832031 219.664062 C 204.707031 218.8125 203.199219 217.175781 203.199219 214.46875 Z M 208.496094 214.179688 C 208.496094 214.335938 208.542969 214.496094 208.589844 214.683594 C 208.878906 216.035156 210.148438 216.792969 212.078125 216.792969 L 216.535156 216.792969 L 212.441406 213.101562 L 218.136719 213.101562 L 221.699219 216.320312 C 222.359375 215.96875 222.789062 215.433594 222.9375 214.746094 C 222.984375 214.589844 222.984375 214.433594 222.984375 214.273438 L 222.984375 203.113281 C 222.984375 202.988281 222.984375 202.824219 222.9375 202.671875 C 222.644531 201.414062 221.375 200.691406 219.484375 200.691406 L 212.09375 200.691406 C 209.910156 200.691406 208.5 201.636719 208.5 203.113281 L 208.5 214.1875 Z M 208.496094 214.179688 " />
    <path style=" stroke:none;fill-rule:nonzero;fill:rgb(0%,38.038635%,54.119873%);fill-opacity:1;"
      d="M 256.726562 191.960938 C 253.710938 191.878906 251.40625 192.15625 249.4375 192.988281 C 248.878906 193.222656 247.988281 193.226562 247.894531 193.929688 C 248.203125 194.25 248.25 194.730469 248.496094 195.125 C 248.964844 195.886719 249.761719 196.90625 250.46875 197.4375 C 251.242188 198.019531 252.039062 198.644531 252.867188 199.152344 C 254.34375 200.050781 255.992188 200.5625 257.414062 201.460938 C 258.25 201.992188 259.082031 202.660156 259.898438 203.261719 C 260.300781 203.554688 260.574219 204.015625 261.097656 204.203125 L 261.097656 204.117188 C 260.824219 203.765625 260.753906 203.28125 260.5 202.917969 L 259.382812 201.804688 C 258.292969 200.351562 256.910156 199.09375 255.441406 198.039062 C 254.269531 197.195312 251.640625 196.0625 251.152344 194.699219 L 251.066406 194.613281 C 251.898438 194.519531 252.871094 194.21875 253.640625 194.011719 C 254.929688 193.667969 256.082031 193.757812 257.414062 193.414062 L 259.214844 192.902344 L 259.214844 192.558594 C 258.542969 191.867188 258.0625 190.957031 257.328125 190.332031 C 255.410156 188.699219 253.3125 187.070312 251.15625 185.707031 C 249.960938 184.953125 248.480469 184.464844 247.210938 183.824219 C 246.785156 183.609375 246.035156 183.496094 245.753906 183.140625 C 245.089844 182.292969 244.726562 181.214844 244.210938 180.234375 C 243.136719 178.167969 242.078125 175.90625 241.125 173.730469 C 240.472656 172.246094 240.046875 170.78125 239.238281 169.449219 C 235.34375 163.058594 231.15625 159.199219 224.664062 155.410156 C 223.28125 154.601562 221.621094 154.28125 219.863281 153.867188 L 217.03125 153.695312 C 216.457031 153.457031 215.855469 152.753906 215.316406 152.410156 C 213.164062 151.054688 207.648438 148.105469 206.058594 151.976562 C 205.050781 154.425781 207.558594 156.8125 208.457031 158.054688 C 209.085938 158.925781 209.894531 159.902344 210.34375 160.878906 C 210.640625 161.523438 210.691406 162.167969 210.945312 162.847656 C 211.566406 164.519531 212.109375 166.351562 212.914062 167.898438 C 213.324219 168.683594 213.773438 169.511719 214.289062 170.210938 C 214.605469 170.640625 215.144531 170.832031 215.230469 171.496094 C 214.703125 172.238281 214.671875 173.382812 214.371094 174.320312 C 213.03125 178.539062 213.539062 183.785156 215.488281 186.90625 C 216.085938 187.867188 217.492188 189.921875 219.429688 189.132812 C 221.125 188.445312 220.738281 186.308594 221.230469 184.425781 C 221.339844 183.996094 221.273438 183.683594 221.488281 183.398438 L 221.488281 183.484375 L 223.03125 186.566406 C 224.175781 188.402344 226.203125 190.320312 227.917969 191.617188 C 228.808594 192.289062 229.519531 193.449219 230.664062 193.84375 L 230.664062 193.757812 L 230.578125 193.757812 C 230.355469 193.410156 230.003906 193.265625 229.71875 192.988281 C 229.050781 192.332031 228.300781 191.515625 227.746094 190.761719 C 226.183594 188.644531 224.804688 186.328125 223.546875 183.914062 C 222.945312 182.761719 222.421875 181.488281 221.917969 180.316406 C 221.722656 179.863281 221.726562 179.183594 221.320312 178.949219 C 220.765625 179.808594 219.945312 180.5 219.519531 181.515625 C 218.832031 183.136719 218.742188 185.113281 218.488281 187.167969 C 218.339844 187.21875 218.40625 187.183594 218.316406 187.253906 C 217.125 186.964844 216.703125 185.738281 216.261719 184.683594 C 215.136719 182.019531 214.929688 177.730469 215.917969 174.667969 C 216.171875 173.875 217.328125 171.375 216.859375 170.644531 C 216.636719 169.914062 215.898438 169.480469 215.488281 168.929688 C 214.980469 168.242188 214.46875 167.332031 214.117188 166.535156 C 213.195312 164.457031 212.769531 162.125 211.800781 160.027344 C 211.339844 159.023438 210.558594 158.007812 209.914062 157.121094 C 209.203125 156.136719 208.410156 155.40625 207.859375 154.21875 C 207.660156 153.792969 207.394531 153.117188 207.6875 152.679688 C 207.75 152.398438 207.917969 152.226562 208.199219 152.164062 C 208.699219 151.78125 210.085938 152.292969 210.601562 152.507812 C 211.976562 153.078125 213.125 153.621094 214.289062 154.390625 C 214.847656 154.753906 215.414062 155.476562 216.089844 155.675781 L 216.859375 155.675781 C 218.066406 155.953125 219.417969 155.761719 220.546875 156.105469 C 222.539062 156.707031 224.324219 157.648438 225.949219 158.671875 C 230.890625 161.789062 234.929688 166.222656 237.695312 171.519531 C 238.140625 172.371094 238.332031 173.1875 238.722656 174.089844 C 239.511719 175.90625 240.507812 177.785156 241.292969 179.566406 C 242.078125 181.347656 242.84375 183.140625 243.953125 184.621094 C 244.535156 185.394531 246.789062 185.8125 247.8125 186.246094 C 248.527344 186.546875 249.703125 186.863281 250.382812 187.273438 C 251.679688 188.054688 252.9375 188.984375 254.15625 189.84375 C 254.765625 190.269531 256.636719 191.210938 256.730469 191.980469 Z M 256.726562 191.960938 " />
    <path style=" stroke:none;fill-rule:evenodd;fill:rgb(0%,38.038635%,54.119873%);fill-opacity:1;"
      d="M 218.40625 159.339844 C 217.777344 159.328125 217.332031 159.410156 216.863281 159.511719 L 216.863281 159.597656 L 216.949219 159.597656 C 217.246094 160.214844 217.777344 160.609375 218.148438 161.140625 L 219.003906 162.9375 L 219.089844 162.851562 C 219.621094 162.476562 219.867188 161.878906 219.863281 160.96875 C 219.648438 160.742188 219.617188 160.464844 219.433594 160.195312 C 219.1875 159.839844 218.707031 159.640625 218.402344 159.339844 Z M 218.40625 159.339844 " />
    <path style=" stroke:none;fill-rule:evenodd;fill:rgb(89.408875%,55.688477%,0%);fill-opacity:1;"
      d="M 254.71875 216.625 C 254.71875 218.78125 256.425781 220.234375 258.335938 220.234375 C 260.242188 220.234375 261.949219 218.78125 261.949219 216.625 C 261.949219 214.46875 260.242188 213.015625 258.335938 213.015625 C 256.425781 213.015625 254.71875 214.46875 254.71875 216.625 Z M 261.140625 216.625 C 261.140625 218.261719 259.886719 219.484375 258.332031 219.484375 C 256.761719 219.484375 255.527344 218.261719 255.527344 216.625 C 255.527344 214.988281 256.761719 213.765625 258.332031 213.765625 C 259.886719 213.765625 261.140625 214.988281 261.140625 216.625 Z M 259.308594 218.683594 L 260.117188 218.683594 L 258.929688 216.875 C 259.566406 216.808594 260.050781 216.5 260.050781 215.75 C 260.050781 214.910156 259.519531 214.566406 258.496094 214.566406 L 256.886719 214.566406 L 256.886719 218.6875 L 257.582031 218.6875 L 257.582031 216.90625 L 258.226562 216.90625 L 259.308594 218.6875 Z M 257.582031 216.324219 L 257.582031 215.144531 L 258.382812 215.144531 C 258.796875 215.144531 259.296875 215.21875 259.296875 215.703125 C 259.296875 216.277344 258.84375 216.328125 258.324219 216.328125 L 257.582031 216.328125 Z M 257.582031 216.324219 " />
  </g>
</svg>