<?xml version="1.0" encoding="UTF-8"?>
<svg xmlns="http://www.w3.org/2000/svg" xmlns:xlink="http://www.w3.org/1999/xlink" viewBox="0 0 375 374.999991"
  version="1.2">
  <defs>
    <clipPath id="clip23">
      <path d="M 112.5 142.265625 L 262.5 142.265625 L 262.5 233.015625 L 112.5 233.015625 Z M 112.5 142.265625 " />
    </clipPath>
  </defs>
  <g id="surface23">
    <path style=" stroke:none;fill-rule:nonzero;fill:rgb(0%,0%,0%);fill-opacity:1;"
      d="M 187.5 84.375 C 185.8125 84.375 184.125 84.417969 182.441406 84.5 C 180.753906 84.582031 179.070312 84.707031 177.390625 84.871094 C 175.710938 85.035156 174.039062 85.242188 172.367188 85.492188 C 170.699219 85.738281 169.035156 86.027344 167.382812 86.355469 C 165.726562 86.6875 164.078125 87.054688 162.441406 87.464844 C 160.804688 87.875 159.179688 88.324219 157.5625 88.816406 C 155.949219 89.304688 154.347656 89.835938 152.757812 90.402344 C 151.167969 90.972656 149.59375 91.578125 148.035156 92.226562 C 146.476562 92.871094 144.933594 93.554688 143.410156 94.277344 C 141.882812 94.996094 140.375 95.757812 138.886719 96.550781 C 137.398438 97.347656 135.929688 98.179688 134.484375 99.046875 C 133.035156 99.914062 131.609375 100.816406 130.207031 101.753906 C 128.804688 102.691406 127.425781 103.664062 126.070312 104.667969 C 124.714844 105.675781 123.382812 106.710938 122.078125 107.785156 C 120.773438 108.855469 119.496094 109.957031 118.246094 111.089844 C 116.996094 112.222656 115.773438 113.386719 114.578125 114.578125 C 113.386719 115.773438 112.222656 116.996094 111.089844 118.246094 C 109.957031 119.496094 108.855469 120.773438 107.785156 122.078125 C 106.710938 123.382812 105.675781 124.714844 104.667969 126.070312 C 103.664062 127.425781 102.691406 128.804688 101.753906 130.207031 C 100.816406 131.609375 99.914062 133.035156 99.046875 134.484375 C 98.179688 135.929688 97.347656 137.398438 96.550781 138.886719 C 95.757812 140.375 94.996094 141.882812 94.277344 143.410156 C 93.554688 144.933594 92.871094 146.476562 92.226562 148.035156 C 91.578125 149.59375 90.972656 151.167969 90.402344 152.757812 C 89.835938 154.347656 89.304688 155.949219 88.816406 157.5625 C 88.324219 159.179688 87.875 160.804688 87.464844 162.441406 C 87.054688 164.078125 86.6875 165.726562 86.355469 167.382812 C 86.027344 169.035156 85.738281 170.699219 85.492188 172.367188 C 85.242188 174.039062 85.035156 175.710938 84.871094 177.390625 C 84.707031 179.070312 84.582031 180.753906 84.5 182.441406 C 84.417969 184.125 84.375 185.8125 84.375 187.5 C 84.375 189.1875 84.417969 190.875 84.5 192.558594 C 84.582031 194.246094 84.707031 195.929688 84.871094 197.609375 C 85.035156 199.289062 85.242188 200.960938 85.492188 202.632812 C 85.738281 204.300781 86.027344 205.964844 86.355469 207.617188 C 86.6875 209.273438 87.054688 210.921875 87.464844 212.558594 C 87.875 214.195312 88.324219 215.820312 88.816406 217.4375 C 89.304688 219.050781 89.835938 220.652344 90.402344 222.242188 C 90.972656 223.832031 91.578125 225.40625 92.226562 226.964844 C 92.871094 228.523438 93.554688 230.066406 94.277344 231.589844 C 94.996094 233.117188 95.757812 234.625 96.550781 236.113281 C 97.347656 237.601562 98.179688 239.070312 99.046875 240.515625 C 99.914062 241.964844 100.816406 243.390625 101.753906 244.792969 C 102.691406 246.195312 103.664062 247.574219 104.667969 248.929688 C 105.675781 250.285156 106.710938 251.617188 107.785156 252.921875 C 108.855469 254.226562 109.957031 255.503906 111.089844 256.753906 C 112.222656 258.003906 113.386719 259.226562 114.578125 260.421875 C 115.773438 261.613281 116.996094 262.777344 118.246094 263.910156 C 119.496094 265.042969 120.773438 266.144531 122.078125 267.214844 C 123.382812 268.289062 124.714844 269.324219 126.070312 270.332031 C 127.425781 271.335938 128.804688 272.308594 130.207031 273.246094 C 131.609375 274.183594 133.035156 275.085938 134.484375 275.953125 C 135.929688 276.820312 137.398438 277.652344 138.886719 278.449219 C 140.375 279.242188 141.882812 280.003906 143.410156 280.722656 C 144.933594 281.445312 146.476562 282.128906 148.035156 282.773438 C 149.59375 283.421875 151.167969 284.027344 152.757812 284.597656 C 154.347656 285.164062 155.949219 285.695312 157.5625 286.183594 C 159.179688 286.675781 160.804688 287.125 162.441406 287.535156 C 164.078125 287.945312 165.726562 288.3125 167.382812 288.644531 C 169.035156 288.972656 170.699219 289.261719 172.367188 289.507812 C 174.039062 289.757812 175.710938 289.964844 177.390625 290.128906 C 179.070312 290.292969 180.753906 290.417969 182.441406 290.5 C 184.125 290.582031 185.8125 290.625 187.5 290.625 C 189.1875 290.625 190.875 290.582031 192.558594 290.5 C 194.246094 290.417969 195.929688 290.292969 197.609375 290.128906 C 199.289062 289.964844 200.960938 289.757812 202.632812 289.507812 C 204.300781 289.261719 205.964844 288.972656 207.617188 288.644531 C 209.273438 288.3125 210.921875 287.945312 212.558594 287.535156 C 214.195312 287.125 215.820312 286.675781 217.4375 286.183594 C 219.050781 285.695312 220.652344 285.164062 222.242188 284.597656 C 223.832031 284.027344 225.40625 283.421875 226.964844 282.773438 C 228.523438 282.128906 230.066406 281.445312 231.589844 280.722656 C 233.117188 280.003906 234.625 279.242188 236.113281 278.449219 C 237.601562 277.652344 239.070312 276.820312 240.515625 275.953125 C 241.964844 275.085938 243.390625 274.183594 244.792969 273.246094 C 246.195312 272.308594 247.574219 271.335938 248.929688 270.332031 C 250.285156 269.324219 251.617188 268.289062 252.921875 267.214844 C 254.226562 266.144531 255.503906 265.042969 256.753906 263.910156 C 258.003906 262.777344 259.226562 261.613281 260.421875 260.421875 C 261.613281 259.226562 262.777344 258.003906 263.910156 256.753906 C 265.042969 255.503906 266.144531 254.226562 267.214844 252.921875 C 268.289062 251.617188 269.324219 250.285156 270.332031 248.929688 C 271.335938 247.574219 272.308594 246.195312 273.246094 244.792969 C 274.183594 243.390625 275.085938 241.964844 275.953125 240.515625 C 276.820312 239.070312 277.652344 237.601562 278.449219 236.113281 C 279.242188 234.625 280.003906 233.117188 280.722656 231.589844 C 281.445312 230.066406 282.128906 228.523438 282.773438 226.964844 C 283.421875 225.40625 284.027344 223.832031 284.597656 222.242188 C 285.164062 220.652344 285.695312 219.050781 286.183594 217.4375 C 286.675781 215.820312 287.125 214.195312 287.535156 212.558594 C 287.945312 210.921875 288.3125 209.273438 288.644531 207.617188 C 288.972656 205.964844 289.261719 204.300781 289.507812 202.632812 C 289.757812 200.960938 289.964844 199.289062 290.128906 197.609375 C 290.292969 195.929688 290.417969 194.246094 290.5 192.558594 C 290.582031 190.875 290.625 189.1875 290.625 187.5 C 290.625 185.8125 290.582031 184.125 290.5 182.441406 C 290.417969 180.753906 290.292969 179.070312 290.128906 177.390625 C 289.964844 175.710938 289.757812 174.039062 289.507812 172.367188 C 289.261719 170.699219 288.972656 169.035156 288.644531 167.382812 C 288.3125 165.726562 287.945312 164.078125 287.535156 162.441406 C 287.125 160.804688 286.675781 159.179688 286.183594 157.5625 C 285.695312 155.949219 285.164062 154.347656 284.597656 152.757812 C 284.027344 151.167969 283.421875 149.59375 282.773438 148.035156 C 282.128906 146.476562 281.445312 144.933594 280.722656 143.410156 C 280.003906 141.882812 279.242188 140.375 278.449219 138.886719 C 277.652344 137.398438 276.820312 135.929688 275.953125 134.484375 C 275.085938 133.035156 274.183594 131.609375 273.246094 130.207031 C 272.308594 128.804688 271.335938 127.425781 270.332031 126.070312 C 269.324219 124.714844 268.289062 123.382812 267.214844 122.078125 C 266.144531 120.773438 265.042969 119.496094 263.910156 118.246094 C 262.777344 116.996094 261.613281 115.773438 260.421875 114.578125 C 259.226562 113.386719 258.003906 112.222656 256.753906 111.089844 C 255.503906 109.957031 254.226562 108.855469 252.921875 107.785156 C 251.617188 106.710938 250.285156 105.675781 248.929688 104.667969 C 247.574219 103.664062 246.195312 102.691406 244.792969 101.753906 C 243.390625 100.816406 241.964844 99.914062 240.515625 99.046875 C 239.070312 98.179688 237.601562 97.347656 236.113281 96.550781 C 234.625 95.757812 233.117188 94.996094 231.589844 94.277344 C 230.066406 93.554688 228.523438 92.871094 226.964844 92.226562 C 225.40625 91.578125 223.832031 90.972656 222.242188 90.402344 C 220.652344 89.835938 219.050781 89.304688 217.4375 88.816406 C 215.820312 88.324219 214.195312 87.875 212.558594 87.464844 C 210.921875 87.054688 209.273438 86.6875 207.617188 86.355469 C 205.964844 86.027344 204.300781 85.738281 202.632812 85.492188 C 200.960938 85.242188 199.289062 85.035156 197.609375 84.871094 C 195.929688 84.707031 194.246094 84.582031 192.558594 84.5 C 190.875 84.417969 189.1875 84.375 187.5 84.375 Z M 187.5 84.375 " />
    <g clip-path="url(#clip23)" clip-rule="nonzero">
      <path style=" stroke:none;fill-rule:nonzero;fill:rgb(100%,100%,100%);fill-opacity:1;"
        d="M 147.90625 165.933594 L 176.1875 165.933594 L 176.1875 168.1875 L 150.5 168.1875 L 150.5 185.15625 L 174.65625 185.15625 L 174.65625 187.414062 L 150.5 187.414062 L 150.5 206.046875 L 176.480469 206.046875 L 176.480469 208.300781 L 147.90625 208.300781 Z M 178.722656 165.933594 L 181.726562 165.933594 L 195.042969 184.566406 L 208.652344 165.933594 L 227.167969 142.265625 L 196.75 186.523438 L 212.425781 208.300781 L 209.300781 208.300781 L 195.042969 188.480469 L 180.726562 208.300781 L 177.664062 208.300781 L 193.453125 186.523438 Z M 213.546875 168.1875 L 213.546875 165.933594 L 245.777344 165.933594 L 245.777344 168.1875 L 230.925781 168.1875 L 230.925781 208.300781 L 228.335938 208.300781 L 228.335938 168.1875 Z M 112.523438 165.933594 L 115.765625 165.933594 L 160.453125 233.011719 L 141.984375 208.304688 L 115.234375 169.136719 L 115.117188 208.304688 L 112.527344 208.304688 L 112.527344 165.933594 Z M 245.511719 205.367188 C 244.984375 205.367188 244.585938 204.953125 244.585938 204.421875 C 244.585938 203.890625 244.984375 203.480469 245.511719 203.480469 C 246.046875 203.480469 246.441406 203.890625 246.441406 204.421875 C 246.441406 204.953125 246.046875 205.367188 245.511719 205.367188 Z M 248.058594 202.882812 L 249.449219 202.882812 C 249.464844 203.636719 250.015625 204.144531 250.820312 204.144531 C 251.722656 204.144531 252.234375 203.597656 252.234375 202.578125 L 252.234375 196.121094 L 253.648438 196.121094 L 253.648438 202.585938 C 253.648438 204.421875 252.589844 205.480469 250.835938 205.480469 C 249.191406 205.480469 248.058594 204.453125 248.058594 202.882812 Z M 255.496094 202.800781 L 256.894531 202.800781 C 257.011719 203.667969 257.859375 204.21875 259.078125 204.21875 C 260.210938 204.21875 261.042969 203.632812 261.042969 202.820312 C 261.042969 202.125 260.511719 201.703125 259.308594 201.417969 L 258.136719 201.132812 C 256.492188 200.75 255.742188 199.949219 255.742188 198.609375 C 255.742188 196.980469 257.066406 195.898438 259.050781 195.898438 C 260.898438 195.898438 262.246094 196.980469 262.328125 198.519531 L 260.957031 198.519531 C 260.824219 197.675781 260.089844 197.152344 259.03125 197.152344 C 257.914062 197.152344 257.171875 197.691406 257.171875 198.515625 C 257.171875 199.167969 257.652344 199.539062 258.839844 199.816406 L 259.839844 200.066406 C 261.707031 200.503906 262.476562 201.265625 262.476562 202.636719 C 262.476562 204.382812 261.125 205.480469 258.96875 205.480469 C 256.953125 205.480469 255.597656 204.4375 255.496094 202.800781 Z M 255.496094 202.800781 " />
    </g>
  </g>
</svg>