<?xml version="1.0" encoding="UTF-8"?>
<svg xmlns="http://www.w3.org/2000/svg" xmlns:xlink="http://www.w3.org/1999/xlink" width="375pt" height="374.999991pt"
  viewBox="0 0 375 374.999991" version="1.2">
  <defs>
    <clipPath id="clip31">
      <path d="M 148 112.5 L 227 112.5 L 227 191 L 148 191 Z M 148 112.5 " />
    </clipPath>
    <clipPath id="clip32">
      <path d="M 112.5 195 L 262.5 195 L 262.5 262.5 L 112.5 262.5 Z M 112.5 195 " />
    </clipPath>
  </defs>
  <g id="surface3">
    <g clip-path="url(#clip33)" clip-rule="nonzero">
      <path style=" stroke:none;fill-rule:nonzero;fill:rgb(100%,100%,100%);fill-opacity:1;"
        d="M 187.5 190.5 C 209.003906 190.5 226.5 173.003906 226.5 151.5 C 226.5 129.996094 209.003906 112.5 187.5 112.5 C 165.996094 112.5 148.5 129.996094 148.5 151.5 C 148.5 173.003906 165.996094 190.5 187.5 190.5 Z M 187.5 118.5 C 205.695312 118.5 220.5 133.304688 220.5 151.5 C 220.5 169.695312 205.695312 184.5 187.5 184.5 C 169.304688 184.5 154.5 169.695312 154.5 151.5 C 154.5 133.304688 169.304688 118.5 187.5 118.5 Z M 187.5 118.5 " />
    </g>
    <g clip-path="url(#clip34)" clip-rule="nonzero">
      <path style=" stroke:none;fill-rule:nonzero;fill:rgb(100%,100%,100%);fill-opacity:1;"
        d="M 226.765625 195.597656 C 225.6875 194.929688 224.304688 195.019531 223.308594 195.820312 C 213.054688 204.113281 200.671875 208.5 187.5 208.5 C 174.328125 208.5 161.949219 204.113281 151.695312 195.820312 C 150.707031 195.019531 149.320312 194.929688 148.234375 195.597656 C 125.859375 209.375 112.5 233.265625 112.5 259.5 C 112.5 261.160156 113.84375 262.5 115.5 262.5 L 259.5 262.5 C 261.160156 262.5 262.5 261.160156 262.5 259.5 C 262.5 233.265625 249.140625 209.375 226.765625 195.597656 Z M 118.5625 256.5 C 119.507812 234.238281 130.933594 214.097656 149.632812 201.820312 C 160.511719 210.011719 173.875 214.5 187.5 214.5 C 201.128906 214.5 214.492188 210.011719 225.367188 201.820312 C 244.066406 214.097656 255.492188 234.238281 256.4375 256.5 Z M 118.5625 256.5 " />
    </g>
  </g>
</svg>