<?xml version="1.0" encoding="UTF-8"?>
<svg xmlns="http://www.w3.org/2000/svg" xmlns:xlink="http://www.w3.org/1999/xlink" viewBox="0 0 375 374.999991"
  version="1.2">
  <defs>
    <clipPath id="clip6896">
      <path d="M 112.5 112.5 L 262.5 112.5 L 262.5 262.5 L 112.5 262.5 Z M 112.5 112.5 " />
    </clipPath>
  </defs>
  <g id="surface6896">
    <g clip-path="url(#clip6896)" clip-rule="nonzero">
      <path style=" stroke:none;fill-rule:nonzero;fill:rgb(100%,100%,100%);fill-opacity:1;"
        d="M 187.5 112.5 C 146.082031 112.5 112.5 146.082031 112.5 187.5 C 112.5 228.917969 146.082031 262.5 187.5 262.5 C 228.917969 262.5 262.5 228.917969 262.5 187.5 C 262.5 146.082031 228.917969 112.5 187.5 112.5 Z M 227.105469 221.933594 L 221.101562 227.9375 C 220.027344 229.011719 216.886719 229.679688 216.789062 229.679688 C 197.789062 229.84375 179.5 222.382812 166.058594 208.941406 C 152.582031 195.457031 145.109375 177.097656 145.3125 158.039062 C 145.3125 158.03125 146 154.980469 147.070312 153.917969 L 153.074219 147.914062 C 155.273438 145.707031 159.492188 144.707031 162.449219 145.695312 L 163.714844 146.117188 C 166.664062 147.105469 169.757812 150.367188 170.570312 153.367188 L 173.59375 164.457031 C 174.40625 167.46875 173.308594 171.753906 171.113281 173.949219 L 167.101562 177.960938 C 171.039062 192.535156 182.472656 203.96875 197.050781 207.917969 L 201.058594 203.90625 C 203.265625 201.699219 207.550781 200.601562 210.554688 201.414062 L 221.640625 204.445312 C 224.644531 205.269531 227.902344 208.347656 228.890625 211.292969 L 229.3125 212.578125 C 230.292969 215.523438 229.304688 219.746094 227.105469 221.933594 Z M 227.105469 221.933594 " />
    </g>
  </g>
</svg>