<?xml version="1.0" encoding="UTF-8"?>
<svg xmlns="http://www.w3.org/2000/svg" xmlns:xlink="http://www.w3.org/1999/xlink" viewBox="0 0 375 374.999991"
  version="1.2">
  <defs>
    <clipPath id="clip9491">
      <path d="M 112.5 151 L 262.5 151 L 262.5 262.5 L 112.5 262.5 Z M 112.5 151 " />
    </clipPath>
    <clipPath id="clip9490">
      <path d="M 133 112.5 L 242 112.5 L 242 236 L 133 236 Z M 133 112.5 " />
    </clipPath>
  </defs>
  <g id="surface1">
    <g clip-path="url(#clip9491)" clip-rule="nonzero">
      <path style=" stroke:none;fill-rule:nonzero;fill:rgb(100%,100%,100%);fill-opacity:1;"
        d="M 253.074219 151.960938 L 246.632812 151.960938 L 246.632812 156.644531 L 253.074219 156.644531 C 255.648438 156.644531 257.757812 158.753906 257.757812 161.328125 L 257.757812 239.667969 L 117.242188 239.667969 L 117.242188 161.328125 C 117.242188 158.753906 119.351562 156.644531 121.925781 156.644531 L 128.367188 156.644531 L 128.367188 151.960938 L 121.925781 151.960938 C 116.773438 151.960938 112.558594 156.175781 112.558594 161.328125 L 112.558594 245.519531 C 112.558594 250.671875 116.773438 254.890625 121.925781 254.890625 L 171.105469 254.890625 L 171.105469 257.816406 L 165.25 257.816406 C 163.964844 257.816406 162.910156 258.871094 162.910156 260.15625 C 162.910156 261.445312 163.964844 262.5 165.25 262.5 L 207.40625 262.5 C 208.695312 262.5 209.75 261.445312 209.75 260.15625 C 209.75 258.871094 208.695312 257.816406 207.40625 257.816406 L 201.550781 257.816406 L 201.550781 254.890625 L 253.074219 254.890625 C 258.226562 254.890625 262.441406 250.671875 262.441406 245.519531 L 262.441406 161.328125 C 262.441406 156.175781 258.226562 151.960938 253.074219 151.960938 Z M 196.867188 257.699219 L 175.789062 257.699219 L 175.789062 254.773438 L 196.867188 254.773438 Z M 257.757812 245.402344 C 257.757812 247.980469 255.648438 250.085938 253.074219 250.085938 L 121.925781 250.085938 C 119.351562 250.085938 117.242188 247.980469 117.242188 245.402344 L 117.242188 244.234375 L 257.757812 244.234375 Z M 257.757812 245.402344 " />
    </g>
    <g clip-path="url(#clip9490)" clip-rule="nonzero">
      <path style=" stroke:none;fill-rule:nonzero;fill:rgb(100%,100%,100%);fill-opacity:1;"
        d="M 133.050781 114.84375 L 133.050781 232.875 C 133.050781 234.164062 134.105469 235.214844 135.390625 235.214844 L 239.609375 235.214844 C 240.894531 235.214844 241.949219 234.164062 241.949219 232.875 L 241.949219 114.84375 C 241.949219 113.554688 240.894531 112.5 239.609375 112.5 L 135.390625 112.5 C 134.105469 112.5 133.050781 113.554688 133.050781 114.84375 Z M 137.734375 117.183594 L 237.265625 117.183594 L 237.265625 230.53125 L 137.734375 230.53125 Z M 137.734375 117.183594 " />
    </g>
    <path style=" stroke:none;fill-rule:nonzero;fill:rgb(100%,100%,100%);fill-opacity:1;"
      d="M 187.5 142.828125 C 193.355469 142.828125 198.039062 138.144531 198.039062 132.289062 C 198.039062 126.433594 193.355469 121.75 187.5 121.75 C 181.644531 121.75 176.960938 126.433594 176.960938 132.289062 C 176.960938 138.144531 181.644531 142.828125 187.5 142.828125 Z M 187.5 126.550781 C 190.777344 126.550781 193.355469 129.128906 193.355469 132.40625 C 193.355469 135.683594 190.777344 138.261719 187.5 138.261719 C 184.222656 138.261719 181.644531 135.683594 181.644531 132.40625 C 181.644531 129.128906 184.222656 126.550781 187.5 126.550781 Z M 187.5 126.550781 " />
    <path style=" stroke:none;fill-rule:nonzero;fill:rgb(100%,100%,100%);fill-opacity:1;"
      d="M 168.882812 170.34375 L 206.117188 170.34375 C 206.703125 170.34375 207.40625 170.109375 207.757812 169.644531 C 208.226562 169.175781 208.460938 168.589844 208.460938 167.886719 C 208.109375 156.527344 198.859375 147.628906 187.5 147.628906 C 176.140625 147.628906 166.890625 156.527344 166.539062 167.886719 C 166.539062 168.472656 166.773438 169.175781 167.242188 169.644531 C 167.59375 170.109375 168.296875 170.34375 168.882812 170.34375 Z M 187.5 152.3125 C 195.578125 152.3125 202.136719 158.050781 203.542969 165.660156 L 171.457031 165.660156 C 172.863281 158.050781 179.421875 152.3125 187.5 152.3125 Z M 187.5 152.3125 " />
    <path style=" stroke:none;fill-rule:nonzero;fill:rgb(100%,100%,100%);fill-opacity:1;"
      d="M 169.9375 174.445312 L 144.175781 174.445312 C 142.886719 174.445312 141.832031 175.496094 141.832031 176.785156 L 141.832031 195.519531 C 141.832031 196.808594 142.886719 197.863281 144.175781 197.863281 L 169.9375 197.863281 C 171.222656 197.863281 172.277344 196.808594 172.277344 195.519531 L 172.277344 176.785156 C 172.277344 175.496094 171.222656 174.445312 169.9375 174.445312 Z M 167.59375 193.179688 L 146.515625 193.179688 L 146.515625 179.128906 L 167.59375 179.128906 Z M 167.59375 193.179688 " />
    <path style=" stroke:none;fill-rule:nonzero;fill:rgb(100%,100%,100%);fill-opacity:1;"
      d="M 169.9375 202.429688 L 144.175781 202.429688 C 142.886719 202.429688 141.832031 203.484375 141.832031 204.773438 L 141.832031 223.507812 C 141.832031 224.796875 142.886719 225.847656 144.175781 225.847656 L 169.9375 225.847656 C 171.222656 225.847656 172.277344 224.796875 172.277344 223.507812 L 172.277344 204.773438 C 172.277344 203.484375 171.222656 202.429688 169.9375 202.429688 Z M 167.59375 221.164062 L 146.515625 221.164062 L 146.515625 207.113281 L 167.59375 207.113281 Z M 167.59375 221.164062 " />
    <path style=" stroke:none;fill-rule:nonzero;fill:rgb(100%,100%,100%);fill-opacity:1;"
      d="M 221.457031 177.957031 L 179.304688 177.957031 C 178.015625 177.957031 176.960938 179.011719 176.960938 180.296875 C 176.960938 181.585938 178.015625 182.640625 179.304688 182.640625 L 221.457031 182.640625 C 222.746094 182.640625 223.800781 181.585938 223.800781 180.296875 C 223.800781 179.011719 222.746094 177.957031 221.457031 177.957031 Z M 221.457031 177.957031 " />
    <path style=" stroke:none;fill-rule:nonzero;fill:rgb(100%,100%,100%);fill-opacity:1;"
      d="M 179.304688 192.007812 L 202.722656 192.007812 C 204.011719 192.007812 205.0625 190.953125 205.0625 189.667969 C 205.0625 188.378906 204.011719 187.324219 202.722656 187.324219 L 179.304688 187.324219 C 178.015625 187.324219 176.960938 188.378906 176.960938 189.667969 C 176.960938 190.953125 178.015625 192.007812 179.304688 192.007812 Z M 179.304688 192.007812 " />
    <path style=" stroke:none;fill-rule:nonzero;fill:rgb(100%,100%,100%);fill-opacity:1;"
      d="M 221.457031 205.941406 L 179.304688 205.941406 C 178.015625 205.941406 176.960938 206.996094 176.960938 208.285156 C 176.960938 209.574219 178.015625 210.625 179.304688 210.625 L 221.457031 210.625 C 222.746094 210.625 223.800781 209.574219 223.800781 208.285156 C 223.800781 206.996094 222.746094 205.941406 221.457031 205.941406 Z M 221.457031 205.941406 " />
    <path style=" stroke:none;fill-rule:nonzero;fill:rgb(100%,100%,100%);fill-opacity:1;"
      d="M 202.722656 215.308594 L 179.304688 215.308594 C 178.015625 215.308594 176.960938 216.363281 176.960938 217.652344 C 176.960938 218.941406 178.015625 219.992188 179.304688 219.992188 L 202.722656 219.992188 C 204.011719 219.992188 205.0625 218.941406 205.0625 217.652344 C 205.0625 216.363281 204.011719 215.308594 202.722656 215.308594 Z M 202.722656 215.308594 " />
  </g>
</svg>