<?xml version="1.0" encoding="UTF-8"?>
<svg xmlns="http://www.w3.org/2000/svg" xmlns:xlink="http://www.w3.org/1999/xlink" viewBox="0 0 375 374.999991"
  version="1.2">
  <defs>
    <clipPath id="clip24">
      <path d="M 131 125.667969 L 244 125.667969 L 244 249.417969 L 131 249.417969 Z M 131 125.667969 " />
    </clipPath>
  </defs>
  <g id="surface24">
    <path style=" stroke:none;fill-rule:nonzero;fill:rgb(0%,0%,0%);fill-opacity:1;"
      d="M 187.5 84.375 C 185.8125 84.375 184.125 84.417969 182.441406 84.5 C 180.753906 84.582031 179.070312 84.707031 177.390625 84.871094 C 175.710938 85.035156 174.039062 85.242188 172.367188 85.492188 C 170.699219 85.738281 169.035156 86.027344 167.382812 86.355469 C 165.726562 86.6875 164.078125 87.054688 162.441406 87.464844 C 160.804688 87.875 159.179688 88.324219 157.5625 88.816406 C 155.949219 89.304688 154.347656 89.835938 152.757812 90.402344 C 151.167969 90.972656 149.59375 91.578125 148.035156 92.226562 C 146.476562 92.871094 144.933594 93.554688 143.410156 94.277344 C 141.882812 94.996094 140.375 95.757812 138.886719 96.550781 C 137.398438 97.347656 135.929688 98.179688 134.484375 99.046875 C 133.035156 99.914062 131.609375 100.816406 130.207031 101.753906 C 128.804688 102.691406 127.425781 103.664062 126.070312 104.667969 C 124.714844 105.675781 123.382812 106.710938 122.078125 107.785156 C 120.773438 108.855469 119.496094 109.957031 118.246094 111.089844 C 116.996094 112.222656 115.773438 113.386719 114.578125 114.578125 C 113.386719 115.773438 112.222656 116.996094 111.089844 118.246094 C 109.957031 119.496094 108.855469 120.773438 107.785156 122.078125 C 106.710938 123.382812 105.675781 124.714844 104.667969 126.070312 C 103.664062 127.425781 102.691406 128.804688 101.753906 130.207031 C 100.816406 131.609375 99.914062 133.035156 99.046875 134.484375 C 98.179688 135.929688 97.347656 137.398438 96.550781 138.886719 C 95.757812 140.375 94.996094 141.882812 94.277344 143.410156 C 93.554688 144.933594 92.871094 146.476562 92.226562 148.035156 C 91.578125 149.59375 90.972656 151.167969 90.402344 152.757812 C 89.835938 154.347656 89.304688 155.949219 88.816406 157.5625 C 88.324219 159.179688 87.875 160.804688 87.464844 162.441406 C 87.054688 164.078125 86.6875 165.726562 86.355469 167.382812 C 86.027344 169.035156 85.738281 170.699219 85.492188 172.367188 C 85.242188 174.039062 85.035156 175.710938 84.871094 177.390625 C 84.707031 179.070312 84.582031 180.753906 84.5 182.441406 C 84.417969 184.125 84.375 185.8125 84.375 187.5 C 84.375 189.1875 84.417969 190.875 84.5 192.558594 C 84.582031 194.246094 84.707031 195.929688 84.871094 197.609375 C 85.035156 199.289062 85.242188 200.960938 85.492188 202.632812 C 85.738281 204.300781 86.027344 205.964844 86.355469 207.617188 C 86.6875 209.273438 87.054688 210.921875 87.464844 212.558594 C 87.875 214.195312 88.324219 215.820312 88.816406 217.4375 C 89.304688 219.050781 89.835938 220.652344 90.402344 222.242188 C 90.972656 223.832031 91.578125 225.40625 92.226562 226.964844 C 92.871094 228.523438 93.554688 230.066406 94.277344 231.589844 C 94.996094 233.117188 95.757812 234.625 96.550781 236.113281 C 97.347656 237.601562 98.179688 239.070312 99.046875 240.515625 C 99.914062 241.964844 100.816406 243.390625 101.753906 244.792969 C 102.691406 246.195312 103.664062 247.574219 104.667969 248.929688 C 105.675781 250.285156 106.710938 251.617188 107.785156 252.921875 C 108.855469 254.226562 109.957031 255.503906 111.089844 256.753906 C 112.222656 258.003906 113.386719 259.226562 114.578125 260.421875 C 115.773438 261.613281 116.996094 262.777344 118.246094 263.910156 C 119.496094 265.042969 120.773438 266.144531 122.078125 267.214844 C 123.382812 268.289062 124.714844 269.324219 126.070312 270.332031 C 127.425781 271.335938 128.804688 272.308594 130.207031 273.246094 C 131.609375 274.183594 133.035156 275.085938 134.484375 275.953125 C 135.929688 276.820312 137.398438 277.652344 138.886719 278.449219 C 140.375 279.242188 141.882812 280.003906 143.410156 280.722656 C 144.933594 281.445312 146.476562 282.128906 148.035156 282.773438 C 149.59375 283.421875 151.167969 284.027344 152.757812 284.597656 C 154.347656 285.164062 155.949219 285.695312 157.5625 286.183594 C 159.179688 286.675781 160.804688 287.125 162.441406 287.535156 C 164.078125 287.945312 165.726562 288.3125 167.382812 288.644531 C 169.035156 288.972656 170.699219 289.261719 172.367188 289.507812 C 174.039062 289.757812 175.710938 289.964844 177.390625 290.128906 C 179.070312 290.292969 180.753906 290.417969 182.441406 290.5 C 184.125 290.582031 185.8125 290.625 187.5 290.625 C 189.1875 290.625 190.875 290.582031 192.558594 290.5 C 194.246094 290.417969 195.929688 290.292969 197.609375 290.128906 C 199.289062 289.964844 200.960938 289.757812 202.632812 289.507812 C 204.300781 289.261719 205.964844 288.972656 207.617188 288.644531 C 209.273438 288.3125 210.921875 287.945312 212.558594 287.535156 C 214.195312 287.125 215.820312 286.675781 217.4375 286.183594 C 219.050781 285.695312 220.652344 285.164062 222.242188 284.597656 C 223.832031 284.027344 225.40625 283.421875 226.964844 282.773438 C 228.523438 282.128906 230.066406 281.445312 231.589844 280.722656 C 233.117188 280.003906 234.625 279.242188 236.113281 278.449219 C 237.601562 277.652344 239.070312 276.820312 240.515625 275.953125 C 241.964844 275.085938 243.390625 274.183594 244.792969 273.246094 C 246.195312 272.308594 247.574219 271.335938 248.929688 270.332031 C 250.285156 269.324219 251.617188 268.289062 252.921875 267.214844 C 254.226562 266.144531 255.503906 265.042969 256.753906 263.910156 C 258.003906 262.777344 259.226562 261.613281 260.421875 260.421875 C 261.613281 259.226562 262.777344 258.003906 263.910156 256.753906 C 265.042969 255.503906 266.144531 254.226562 267.214844 252.921875 C 268.289062 251.617188 269.324219 250.285156 270.332031 248.929688 C 271.335938 247.574219 272.308594 246.195312 273.246094 244.792969 C 274.183594 243.390625 275.085938 241.964844 275.953125 240.515625 C 276.820312 239.070312 277.652344 237.601562 278.449219 236.113281 C 279.242188 234.625 280.003906 233.117188 280.722656 231.589844 C 281.445312 230.066406 282.128906 228.523438 282.773438 226.964844 C 283.421875 225.40625 284.027344 223.832031 284.597656 222.242188 C 285.164062 220.652344 285.695312 219.050781 286.183594 217.4375 C 286.675781 215.820312 287.125 214.195312 287.535156 212.558594 C 287.945312 210.921875 288.3125 209.273438 288.644531 207.617188 C 288.972656 205.964844 289.261719 204.300781 289.507812 202.632812 C 289.757812 200.960938 289.964844 199.289062 290.128906 197.609375 C 290.292969 195.929688 290.417969 194.246094 290.5 192.558594 C 290.582031 190.875 290.625 189.1875 290.625 187.5 C 290.625 185.8125 290.582031 184.125 290.5 182.441406 C 290.417969 180.753906 290.292969 179.070312 290.128906 177.390625 C 289.964844 175.710938 289.757812 174.039062 289.507812 172.367188 C 289.261719 170.699219 288.972656 169.035156 288.644531 167.382812 C 288.3125 165.726562 287.945312 164.078125 287.535156 162.441406 C 287.125 160.804688 286.675781 159.179688 286.183594 157.5625 C 285.695312 155.949219 285.164062 154.347656 284.597656 152.757812 C 284.027344 151.167969 283.421875 149.59375 282.773438 148.035156 C 282.128906 146.476562 281.445312 144.933594 280.722656 143.410156 C 280.003906 141.882812 279.242188 140.375 278.449219 138.886719 C 277.652344 137.398438 276.820312 135.929688 275.953125 134.484375 C 275.085938 133.035156 274.183594 131.609375 273.246094 130.207031 C 272.308594 128.804688 271.335938 127.425781 270.332031 126.070312 C 269.324219 124.714844 268.289062 123.382812 267.214844 122.078125 C 266.144531 120.773438 265.042969 119.496094 263.910156 118.246094 C 262.777344 116.996094 261.613281 115.773438 260.421875 114.578125 C 259.226562 113.386719 258.003906 112.222656 256.753906 111.089844 C 255.503906 109.957031 254.226562 108.855469 252.921875 107.785156 C 251.617188 106.710938 250.285156 105.675781 248.929688 104.667969 C 247.574219 103.664062 246.195312 102.691406 244.792969 101.753906 C 243.390625 100.816406 241.964844 99.914062 240.515625 99.046875 C 239.070312 98.179688 237.601562 97.347656 236.113281 96.550781 C 234.625 95.757812 233.117188 94.996094 231.589844 94.277344 C 230.066406 93.554688 228.523438 92.871094 226.964844 92.226562 C 225.40625 91.578125 223.832031 90.972656 222.242188 90.402344 C 220.652344 89.835938 219.050781 89.304688 217.4375 88.816406 C 215.820312 88.324219 214.195312 87.875 212.558594 87.464844 C 210.921875 87.054688 209.273438 86.6875 207.617188 86.355469 C 205.964844 86.027344 204.300781 85.738281 202.632812 85.492188 C 200.960938 85.242188 199.289062 85.035156 197.609375 84.871094 C 195.929688 84.707031 194.246094 84.582031 192.558594 84.5 C 190.875 84.417969 189.1875 84.375 187.5 84.375 Z M 187.5 84.375 " />
    <g clip-path="url(#clip24)" clip-rule="nonzero">
      <path style=" stroke:none;fill-rule:nonzero;fill:rgb(100%,100%,100%);fill-opacity:1;"
        d="M 214.398438 125.765625 C 208.910156 125.765625 204.164062 127.246094 200.875 128.703125 C 197.648438 127.621094 192.300781 125.777344 185.878906 127.109375 C 182.136719 127.757812 178.703125 129.300781 175.550781 131.660156 C 170.359375 129.164062 164.9375 127.632812 159.25 127.382812 C 155.753906 127.109375 141.492188 128.722656 136.375 136.234375 C 134.496094 139.195312 132.613281 142.949219 131.804688 147.515625 C 130.996094 151.542969 130.996094 156.117188 132.339844 165.519531 C 133.148438 171.960938 134.230469 176.261719 136.648438 185.117188 C 136.921875 185.925781 138.265625 190.226562 142.300781 202.050781 C 143.101562 204.191406 144.71875 208.222656 147.945312 211.976562 C 150.097656 214.664062 152.253906 216.277344 154.941406 216.277344 C 158.441406 216.277344 160.859375 213.867188 163.011719 211.179688 C 163.171875 211 163.339844 210.800781 163.496094 210.625 C 163.296875 210.9375 163.117188 211.285156 163.011719 211.714844 C 162.476562 214.402344 165.703125 216.550781 168.394531 217.621094 C 170.546875 218.691406 172.964844 218.964844 174.84375 218.964844 C 177.261719 218.964844 179.152344 218.429688 180.226562 218.167969 C 181.148438 217.851562 183.144531 216.992188 185.28125 215.578125 C 185.375 222.4375 185.4375 230.539062 185.605469 232.394531 C 186.414062 239.382812 188.296875 244.207031 191.792969 246.894531 C 194.484375 249.046875 199.328125 249.316406 199.601562 249.316406 C 204.433594 249.316406 211.96875 246.097656 215.195312 241 C 216.8125 238.574219 217.351562 236.421875 217.886719 233.464844 C 218.421875 231.859375 218.957031 222.457031 219.230469 220.582031 C 219.597656 217.613281 219.882812 214.683594 220.164062 211.839844 C 221.941406 212.304688 224.128906 212.796875 226.503906 212.796875 C 230.800781 212.796875 236.453125 209.835938 237.523438 209.292969 C 239.679688 207.6875 243.976562 203.929688 242.097656 200.710938 C 241.023438 198.820312 239.40625 198.820312 235.371094 199.367188 C 235.371094 199.367188 228.917969 200.164062 228.371094 199.890625 C 227.984375 199.742188 227.382812 199.367188 226.710938 198.875 C 228.109375 196.710938 229.351562 194.570312 230.800781 192.652344 C 234.027344 186.472656 235.917969 181.636719 237.261719 177.878906 C 239.679688 171.164062 241.023438 165.78125 241.824219 162.027344 C 243.714844 153.96875 244.25 150.210938 243.167969 145.910156 C 241.023438 138.386719 233.214844 131.945312 229.992188 130.066406 C 227.835938 128.988281 222.46875 125.765625 214.398438 125.765625 Z M 214.398438 131.136719 C 221.121094 131.136719 225.691406 133.824219 228.109375 134.894531 C 231.074219 136.507812 237.796875 141.882812 238.335938 146.980469 C 238.605469 149.9375 238.871094 152.898438 236.988281 160.683594 C 235.917969 164.4375 234.835938 169.273438 232.40625 175.988281 C 231.0625 179.746094 229.453125 184.320312 226.230469 189.964844 C 226.144531 190.101562 226.050781 190.25 225.964844 190.394531 C 226.28125 189.261719 226.503906 188.351562 226.503906 188.351562 C 227.039062 185.664062 227.039062 183.511719 226.765625 180.292969 C 226.492188 178.675781 226.230469 174.648438 226.230469 173.03125 C 226.230469 172.234375 227.027344 163.902344 227.300781 160.945312 C 227.574219 156.117188 224.609375 150.199219 223.8125 149.132812 C 219.777344 142.949219 217.621094 139.46875 213.316406 135.972656 C 212.242188 135.0625 210.402344 133.539062 207.902344 132.007812 C 209.878906 131.527344 212.0625 131.136719 214.398438 131.136719 Z M 190.628906 132.238281 C 194.136719 132.324219 197.113281 133.289062 199.328125 134.097656 C 204.980469 135.972656 208.46875 138.921875 210.089844 140.265625 C 213.585938 143.222656 215.46875 146.183594 219.503906 152.363281 C 219.796875 152.949219 220.566406 154.199219 221.175781 155.941406 C 215.667969 155.4375 212.011719 157.367188 209.816406 159.339844 C 206.589844 162.027344 206.851562 166.054688 207.125 169.003906 C 207.125 171.152344 207.671875 173.851562 211.707031 182.976562 C 213.316406 187.007812 214.921875 191.296875 216.539062 194.257812 C 217.382812 195.925781 218.410156 197.457031 219.515625 198.820312 C 218.875 199.144531 218.222656 199.566406 217.613281 200.164062 C 216.003906 202.042969 215.730469 203.929688 215.195312 207.425781 C 214.660156 210.109375 214.125 215.746094 213.851562 220.308594 C 213.851562 222.1875 213.050781 231.324219 212.777344 232.667969 C 211.96875 235.355469 211.695312 236.695312 210.625 238.3125 C 208.742188 241.261719 202.828125 243.683594 199.328125 243.410156 C 198.257812 243.410156 196.636719 243.410156 195.292969 242.339844 C 192.332031 240.191406 191.257812 235.355469 190.984375 231.597656 C 190.710938 228.910156 190.984375 209.5625 190.449219 205.261719 C 190.175781 204.191406 189.914062 201.507812 187.757812 199.628906 C 186.855469 198.875 184.984375 198.484375 183.21875 198.222656 C 183.242188 197.320312 183.292969 196.417969 183.460938 195.601562 C 183.722656 193.984375 184.261719 193.175781 184.808594 191.832031 C 185.070312 191.035156 185.605469 189.964844 186.152344 188.621094 C 188.570312 181.101562 188.023438 171.152344 186.675781 164.972656 C 186.414062 164.4375 185.332031 160.148438 181.570312 157.734375 C 177.535156 155.3125 173.226562 156.652344 170.808594 157.460938 C 169.8125 157.734375 168.824219 158.164062 167.835938 158.667969 C 168.003906 157.546875 168.152344 156.414062 168.394531 155.3125 C 169.464844 149.9375 170.546875 145.375 174.046875 140.8125 C 177.808594 136.234375 182.105469 133.289062 186.949219 132.480469 C 188.230469 132.28125 189.460938 132.207031 190.628906 132.238281 Z M 157.414062 132.710938 C 158.042969 132.699219 158.578125 132.710938 158.976562 132.753906 C 163.179688 132.972656 167.207031 133.960938 171.199219 135.636719 C 170.707031 136.183594 170.210938 136.730469 169.738281 137.316406 C 165.167969 142.6875 164.085938 148.324219 163.011719 153.96875 C 161.667969 160.683594 161.394531 167.660156 162.46875 174.648438 L 161.941406 179.746094 C 161.667969 182.433594 161.121094 187.542969 164.085938 192.914062 C 165.125 194.699219 166.269531 196.207031 167.53125 197.5 C 164.800781 201.109375 161.898438 204.519531 158.976562 207.6875 C 157.359375 209.5625 156.015625 210.90625 154.941406 210.90625 C 154.671875 210.90625 153.597656 210.371094 151.980469 208.496094 C 149.015625 205.273438 147.945312 201.78125 147.410156 200.4375 C 144.183594 190.761719 142.300781 184.582031 142.027344 183.773438 C 139.875 175.183594 138.804688 170.890625 137.722656 164.710938 C 136.375 156.117188 136.375 151.816406 137.183594 148.332031 C 137.992188 144.566406 139.339844 141.609375 140.683594 139.46875 C 143.984375 134.296875 153.042969 132.828125 157.414062 132.710938 Z M 219.136719 161.019531 C 219.996094 161.019531 220.933594 161.125 221.921875 161.332031 C 221.890625 163.839844 220.847656 171.710938 220.847656 172.769531 C 220.847656 174.921875 221.382812 179.210938 221.382812 180.828125 C 221.65625 183.785156 221.65625 185.390625 221.382812 187.542969 C 221.382812 187.542969 220.984375 189.460938 220.574219 190.824219 C 219.324219 188.003906 217.9375 184.636719 216.265625 180.828125 C 212.230469 171.699219 211.96875 169.820312 211.96875 168.476562 C 211.96875 166.589844 211.96875 164.175781 213.578125 163.105469 C 215.089844 161.761719 216.929688 161.039062 219.136719 161.019531 Z M 177.378906 161.804688 C 177.914062 161.867188 178.40625 162.027344 178.878906 162.289062 C 181.035156 163.367188 181.570312 166.054688 181.570312 166.054688 C 182.914062 171.960938 183.453125 180.828125 181.296875 186.734375 C 181.035156 187.804688 180.5 188.613281 180.226562 189.417969 C 179.6875 190.761719 179.152344 192.105469 178.605469 194.519531 C 178.46875 195.515625 178.40625 196.5 178.375 197.488281 C 176.515625 197.101562 174.761719 196.4375 173.5 195.601562 C 171.347656 194.53125 169.738281 192.640625 168.667969 190.488281 C 166.773438 186.460938 167.046875 182.703125 167.320312 180.566406 L 167.847656 174.375 C 167.46875 171.351562 167.289062 168.320312 167.332031 165.308594 C 168.570312 164.25 170.191406 163.167969 172.429688 162.558594 C 174.046875 162.160156 175.8125 161.605469 177.378906 161.804688 Z M 217.046875 163.609375 C 216.339844 163.640625 215.59375 163.765625 215.195312 163.902344 C 214.125 164.175781 213.851562 164.175781 213.578125 164.710938 C 213.316406 165.246094 214.125 166.054688 214.398438 166.589844 C 214.660156 166.589844 215.46875 167.398438 216.539062 167.136719 C 217.351562 166.863281 217.886719 166.328125 218.160156 166.054688 C 218.433594 165.78125 219.503906 164.4375 218.695312 163.902344 C 218.421875 163.628906 217.75 163.566406 217.046875 163.609375 Z M 176.769531 165.5625 C 176.472656 165.582031 176.191406 165.65625 175.917969 165.792969 C 175.65625 165.792969 175.117188 166.054688 174.84375 166.589844 C 174.570312 167.125 174.84375 167.660156 175.117188 167.933594 C 175.65625 168.742188 176.464844 169.546875 177.808594 169.546875 C 178.082031 169.546875 179.152344 169.546875 179.953125 168.742188 C 179.953125 168.742188 180.773438 167.933594 180.773438 167.136719 C 180.5 166.589844 179.960938 166.328125 179.152344 166.054688 C 178.542969 165.855469 177.640625 165.5 176.769531 165.5625 Z M 171.820312 200.710938 C 173.46875 201.589844 175.453125 202.304688 177.628906 202.796875 C 177.050781 203.953125 176.222656 204.90625 175.390625 205.535156 C 173.5 206.878906 171.082031 207.6875 168.667969 208.222656 C 168.121094 208.222656 167.859375 208.496094 167.320312 208.496094 C 166.019531 208.863281 164.757812 209.269531 163.894531 210.164062 C 166.535156 207.234375 169.179688 204.003906 171.820312 200.710938 Z M 223.6875 202.859375 C 224.863281 203.742188 226.019531 204.390625 227.027344 204.738281 C 228.644531 205.273438 229.992188 205.273438 234.835938 204.738281 C 234.027344 205.535156 231.609375 206.878906 228.109375 207.425781 C 225.859375 207.644531 223.066406 207.109375 220.796875 206.457031 C 221.007812 204.9375 221.25 204.066406 221.648438 203.65625 C 221.792969 203.519531 222.6875 203.25 223.6875 202.859375 Z M 183.179688 203.667969 C 183.734375 203.761719 184.175781 203.835938 184.261719 203.917969 C 184.796875 204.464844 185.070312 205.808594 185.070312 206.34375 C 185.101562 206.804688 185.121094 207.96875 185.144531 208.777344 C 182.925781 211.367188 179.363281 212.804688 178.605469 213.058594 C 177.535156 213.59375 174.308594 214.128906 171.082031 213.058594 C 173.773438 212.25 176.464844 211.453125 178.605469 209.835938 C 180.488281 208.496094 182.105469 206.355469 183.179688 203.667969 Z M 183.179688 203.667969 " />
    </g>
  </g>
</svg>