<?xml version="1.0" encoding="UTF-8"?>
<svg xmlns="http://www.w3.org/2000/svg" xmlns:xlink="http://www.w3.org/1999/xlink" viewBox="0 0 375 374.999991"
  version="1.2">
  <defs>
    <clipPath id="clip14">
      <path d="M 112.5 120 L 262.5 120 L 262.5 255 L 112.5 255 Z M 112.5 120 " />
    </clipPath>
  </defs>
  <g id="surface14">
    <path style=" stroke:none;fill-rule:nonzero;fill:rgb(0%,0%,0%);fill-opacity:1;"
      d="M 187.5 84.375 C 185.8125 84.375 184.125 84.417969 182.441406 84.5 C 180.753906 84.582031 179.070312 84.707031 177.390625 84.871094 C 175.710938 85.035156 174.039062 85.242188 172.367188 85.492188 C 170.699219 85.738281 169.035156 86.027344 167.382812 86.355469 C 165.726562 86.6875 164.078125 87.054688 162.441406 87.464844 C 160.804688 87.875 159.179688 88.324219 157.5625 88.816406 C 155.949219 89.304688 154.347656 89.835938 152.757812 90.402344 C 151.167969 90.972656 149.59375 91.578125 148.035156 92.226562 C 146.476562 92.871094 144.933594 93.554688 143.410156 94.277344 C 141.882812 94.996094 140.375 95.757812 138.886719 96.550781 C 137.398438 97.347656 135.929688 98.179688 134.484375 99.046875 C 133.035156 99.914062 131.609375 100.816406 130.207031 101.753906 C 128.804688 102.691406 127.425781 103.664062 126.070312 104.667969 C 124.714844 105.675781 123.382812 106.710938 122.078125 107.785156 C 120.773438 108.855469 119.496094 109.957031 118.246094 111.089844 C 116.996094 112.222656 115.773438 113.386719 114.578125 114.578125 C 113.386719 115.773438 112.222656 116.996094 111.089844 118.246094 C 109.957031 119.496094 108.855469 120.773438 107.785156 122.078125 C 106.710938 123.382812 105.675781 124.714844 104.667969 126.070312 C 103.664062 127.425781 102.691406 128.804688 101.753906 130.207031 C 100.816406 131.609375 99.914062 133.035156 99.046875 134.484375 C 98.179688 135.929688 97.347656 137.398438 96.550781 138.886719 C 95.757812 140.375 94.996094 141.882812 94.277344 143.410156 C 93.554688 144.933594 92.871094 146.476562 92.226562 148.035156 C 91.578125 149.59375 90.972656 151.167969 90.402344 152.757812 C 89.835938 154.347656 89.304688 155.949219 88.816406 157.5625 C 88.324219 159.179688 87.875 160.804688 87.464844 162.441406 C 87.054688 164.078125 86.6875 165.726562 86.355469 167.382812 C 86.027344 169.035156 85.738281 170.699219 85.492188 172.367188 C 85.242188 174.039062 85.035156 175.710938 84.871094 177.390625 C 84.707031 179.070312 84.582031 180.753906 84.5 182.441406 C 84.417969 184.125 84.375 185.8125 84.375 187.5 C 84.375 189.1875 84.417969 190.875 84.5 192.558594 C 84.582031 194.246094 84.707031 195.929688 84.871094 197.609375 C 85.035156 199.289062 85.242188 200.960938 85.492188 202.632812 C 85.738281 204.300781 86.027344 205.964844 86.355469 207.617188 C 86.6875 209.273438 87.054688 210.921875 87.464844 212.558594 C 87.875 214.195312 88.324219 215.820312 88.816406 217.4375 C 89.304688 219.050781 89.835938 220.652344 90.402344 222.242188 C 90.972656 223.832031 91.578125 225.40625 92.226562 226.964844 C 92.871094 228.523438 93.554688 230.066406 94.277344 231.589844 C 94.996094 233.117188 95.757812 234.625 96.550781 236.113281 C 97.347656 237.601562 98.179688 239.070312 99.046875 240.515625 C 99.914062 241.964844 100.816406 243.390625 101.753906 244.792969 C 102.691406 246.195312 103.664062 247.574219 104.667969 248.929688 C 105.675781 250.285156 106.710938 251.617188 107.785156 252.921875 C 108.855469 254.226562 109.957031 255.503906 111.089844 256.753906 C 112.222656 258.003906 113.386719 259.226562 114.578125 260.421875 C 115.773438 261.613281 116.996094 262.777344 118.246094 263.910156 C 119.496094 265.042969 120.773438 266.144531 122.078125 267.214844 C 123.382812 268.289062 124.714844 269.324219 126.070312 270.332031 C 127.425781 271.335938 128.804688 272.308594 130.207031 273.246094 C 131.609375 274.183594 133.035156 275.085938 134.484375 275.953125 C 135.929688 276.820312 137.398438 277.652344 138.886719 278.449219 C 140.375 279.242188 141.882812 280.003906 143.410156 280.722656 C 144.933594 281.445312 146.476562 282.128906 148.035156 282.773438 C 149.59375 283.421875 151.167969 284.027344 152.757812 284.597656 C 154.347656 285.164062 155.949219 285.695312 157.5625 286.183594 C 159.179688 286.675781 160.804688 287.125 162.441406 287.535156 C 164.078125 287.945312 165.726562 288.3125 167.382812 288.644531 C 169.035156 288.972656 170.699219 289.261719 172.367188 289.507812 C 174.039062 289.757812 175.710938 289.964844 177.390625 290.128906 C 179.070312 290.292969 180.753906 290.417969 182.441406 290.5 C 184.125 290.582031 185.8125 290.625 187.5 290.625 C 189.1875 290.625 190.875 290.582031 192.558594 290.5 C 194.246094 290.417969 195.929688 290.292969 197.609375 290.128906 C 199.289062 289.964844 200.960938 289.757812 202.632812 289.507812 C 204.300781 289.261719 205.964844 288.972656 207.617188 288.644531 C 209.273438 288.3125 210.921875 287.945312 212.558594 287.535156 C 214.195312 287.125 215.820312 286.675781 217.4375 286.183594 C 219.050781 285.695312 220.652344 285.164062 222.242188 284.597656 C 223.832031 284.027344 225.40625 283.421875 226.964844 282.773438 C 228.523438 282.128906 230.066406 281.445312 231.589844 280.722656 C 233.117188 280.003906 234.625 279.242188 236.113281 278.449219 C 237.601562 277.652344 239.070312 276.820312 240.515625 275.953125 C 241.964844 275.085938 243.390625 274.183594 244.792969 273.246094 C 246.195312 272.308594 247.574219 271.335938 248.929688 270.332031 C 250.285156 269.324219 251.617188 268.289062 252.921875 267.214844 C 254.226562 266.144531 255.503906 265.042969 256.753906 263.910156 C 258.003906 262.777344 259.226562 261.613281 260.421875 260.421875 C 261.613281 259.226562 262.777344 258.003906 263.910156 256.753906 C 265.042969 255.503906 266.144531 254.226562 267.214844 252.921875 C 268.289062 251.617188 269.324219 250.285156 270.332031 248.929688 C 271.335938 247.574219 272.308594 246.195312 273.246094 244.792969 C 274.183594 243.390625 275.085938 241.964844 275.953125 240.515625 C 276.820312 239.070312 277.652344 237.601562 278.449219 236.113281 C 279.242188 234.625 280.003906 233.117188 280.722656 231.589844 C 281.445312 230.066406 282.128906 228.523438 282.773438 226.964844 C 283.421875 225.40625 284.027344 223.832031 284.597656 222.242188 C 285.164062 220.652344 285.695312 219.050781 286.183594 217.4375 C 286.675781 215.820312 287.125 214.195312 287.535156 212.558594 C 287.945312 210.921875 288.3125 209.273438 288.644531 207.617188 C 288.972656 205.964844 289.261719 204.300781 289.507812 202.632812 C 289.757812 200.960938 289.964844 199.289062 290.128906 197.609375 C 290.292969 195.929688 290.417969 194.246094 290.5 192.558594 C 290.582031 190.875 290.625 189.1875 290.625 187.5 C 290.625 185.8125 290.582031 184.125 290.5 182.441406 C 290.417969 180.753906 290.292969 179.070312 290.128906 177.390625 C 289.964844 175.710938 289.757812 174.039062 289.507812 172.367188 C 289.261719 170.699219 288.972656 169.035156 288.644531 167.382812 C 288.3125 165.726562 287.945312 164.078125 287.535156 162.441406 C 287.125 160.804688 286.675781 159.179688 286.183594 157.5625 C 285.695312 155.949219 285.164062 154.347656 284.597656 152.757812 C 284.027344 151.167969 283.421875 149.59375 282.773438 148.035156 C 282.128906 146.476562 281.445312 144.933594 280.722656 143.410156 C 280.003906 141.882812 279.242188 140.375 278.449219 138.886719 C 277.652344 137.398438 276.820312 135.929688 275.953125 134.484375 C 275.085938 133.035156 274.183594 131.609375 273.246094 130.207031 C 272.308594 128.804688 271.335938 127.425781 270.332031 126.070312 C 269.324219 124.714844 268.289062 123.382812 267.214844 122.078125 C 266.144531 120.773438 265.042969 119.496094 263.910156 118.246094 C 262.777344 116.996094 261.613281 115.773438 260.421875 114.578125 C 259.226562 113.386719 258.003906 112.222656 256.753906 111.089844 C 255.503906 109.957031 254.226562 108.855469 252.921875 107.785156 C 251.617188 106.710938 250.285156 105.675781 248.929688 104.667969 C 247.574219 103.664062 246.195312 102.691406 244.792969 101.753906 C 243.390625 100.816406 241.964844 99.914062 240.515625 99.046875 C 239.070312 98.179688 237.601562 97.347656 236.113281 96.550781 C 234.625 95.757812 233.117188 94.996094 231.589844 94.277344 C 230.066406 93.554688 228.523438 92.871094 226.964844 92.226562 C 225.40625 91.578125 223.832031 90.972656 222.242188 90.402344 C 220.652344 89.835938 219.050781 89.304688 217.4375 88.816406 C 215.820312 88.324219 214.195312 87.875 212.558594 87.464844 C 210.921875 87.054688 209.273438 86.6875 207.617188 86.355469 C 205.964844 86.027344 204.300781 85.738281 202.632812 85.492188 C 200.960938 85.242188 199.289062 85.035156 197.609375 84.871094 C 195.929688 84.707031 194.246094 84.582031 192.558594 84.5 C 190.875 84.417969 189.1875 84.375 187.5 84.375 Z M 187.5 84.375 " />
    <g clip-path="url(#clip14)" clip-rule="nonzero">
      <path style=" stroke:none;fill-rule:nonzero;fill:rgb(100%,100%,100%);fill-opacity:1;"
        d="M 235.726562 164.042969 C 234.175781 163.507812 232.570312 163.003906 230.910156 162.523438 C 231.183594 161.414062 231.433594 160.316406 231.65625 159.238281 C 235.300781 141.542969 232.917969 127.285156 224.773438 122.589844 C 216.964844 118.089844 204.191406 122.78125 191.292969 134.003906 C 190.054688 135.082031 188.808594 136.222656 187.570312 137.421875 C 186.738281 136.628906 185.914062 135.863281 185.089844 135.128906 C 171.574219 123.132812 158.023438 118.078125 149.886719 122.785156 C 142.085938 127.300781 139.777344 140.703125 143.058594 157.476562 C 143.375 159.097656 143.746094 160.75 144.164062 162.433594 C 142.25 162.976562 140.398438 163.558594 138.625 164.175781 C 122.777344 169.695312 112.65625 178.351562 112.65625 187.332031 C 112.65625 196.601562 123.523438 205.90625 140.027344 211.546875 C 141.332031 211.988281 142.683594 212.410156 144.074219 212.808594 C 143.625 214.625 143.230469 216.40625 142.902344 218.148438 C 139.769531 234.632812 142.214844 247.71875 149.996094 252.199219 C 158.03125 256.835938 171.519531 252.070312 184.652344 240.597656 C 185.691406 239.691406 186.734375 238.730469 187.773438 237.722656 C 189.132812 239.019531 190.480469 240.253906 191.820312 241.410156 C 204.542969 252.351562 217.109375 256.769531 224.878906 252.277344 C 232.90625 247.628906 235.523438 233.566406 232.128906 216.464844 C 231.875 215.15625 231.570312 213.824219 231.234375 212.46875 C 232.183594 212.1875 233.113281 211.894531 234.019531 211.597656 C 251.179688 205.910156 262.34375 196.730469 262.34375 187.332031 C 262.34375 178.320312 251.894531 169.605469 235.726562 164.042969 Z M 232.007812 205.53125 C 231.1875 205.800781 230.347656 206.0625 229.492188 206.316406 C 227.597656 200.324219 225.042969 193.949219 221.910156 187.359375 C 224.898438 180.933594 227.351562 174.640625 229.195312 168.683594 C 230.726562 169.125 232.210938 169.59375 233.644531 170.085938 C 247.496094 174.851562 255.945312 181.902344 255.945312 187.332031 C 255.945312 193.113281 246.824219 200.621094 232.007812 205.53125 Z M 225.855469 217.707031 C 227.359375 225.269531 227.570312 232.105469 226.574219 237.453125 C 225.6875 242.257812 223.890625 245.460938 221.675781 246.742188 C 216.957031 249.472656 206.871094 245.921875 195.996094 236.566406 C 194.746094 235.492188 193.488281 234.34375 192.230469 233.136719 C 196.445312 228.523438 200.660156 223.164062 204.777344 217.207031 C 212.011719 216.570312 218.847656 215.519531 225.050781 214.089844 C 225.355469 215.320312 225.621094 216.523438 225.855469 217.707031 Z M 163.691406 246.269531 C 159.082031 247.898438 155.410156 247.945312 153.191406 246.664062 C 148.472656 243.941406 146.507812 233.433594 149.183594 219.34375 C 149.492188 217.730469 149.855469 216.070312 150.277344 214.375 C 156.410156 215.730469 163.195312 216.707031 170.449219 217.289062 C 174.59375 223.117188 178.929688 228.472656 183.296875 233.160156 C 182.34375 234.082031 181.390625 234.957031 180.445312 235.78125 C 174.640625 240.863281 168.820312 244.460938 163.691406 246.269531 Z M 142.097656 205.496094 C 134.800781 203 128.773438 199.761719 124.640625 196.222656 C 120.929688 193.046875 119.054688 189.890625 119.054688 187.332031 C 119.054688 181.882812 127.179688 174.933594 140.734375 170.210938 C 142.378906 169.636719 144.097656 169.097656 145.886719 168.589844 C 147.757812 174.679688 150.214844 181.046875 153.179688 187.484375 C 150.175781 194.019531 147.683594 200.488281 145.792969 206.652344 C 144.519531 206.285156 143.285156 205.898438 142.097656 205.496094 Z M 149.335938 156.25 C 146.523438 141.878906 148.390625 131.039062 153.09375 128.316406 C 158.101562 125.421875 169.175781 129.550781 180.84375 139.910156 C 181.589844 140.574219 182.339844 141.265625 183.09375 141.980469 C 178.742188 146.648438 174.445312 151.964844 170.339844 157.753906 C 163.300781 158.40625 156.5625 159.457031 150.367188 160.859375 C 149.976562 159.292969 149.632812 157.753906 149.335938 156.25 Z M 213.898438 172.183594 C 212.421875 169.628906 210.902344 167.132812 209.351562 164.703125 C 214.128906 165.304688 218.699219 166.109375 222.996094 167.085938 C 221.710938 171.21875 220.105469 175.542969 218.210938 179.972656 C 216.851562 177.394531 215.414062 174.796875 213.898438 172.183594 Z M 187.570312 146.550781 C 190.523438 149.746094 193.476562 153.308594 196.382812 157.179688 C 193.453125 157.042969 190.488281 156.96875 187.5 156.96875 C 184.542969 156.96875 181.601562 157.039062 178.6875 157.175781 C 181.59375 153.34375 184.578125 149.78125 187.570312 146.550781 Z M 161.074219 172.230469 C 159.59375 174.792969 158.183594 177.378906 156.847656 179.96875 C 154.984375 175.550781 153.390625 171.210938 152.089844 167.019531 C 156.363281 166.066406 160.917969 165.285156 165.660156 164.691406 C 164.089844 167.144531 162.554688 169.65625 161.074219 172.230469 Z M 165.796875 210.421875 C 160.894531 209.878906 156.273438 209.136719 152.003906 208.207031 C 153.324219 203.941406 154.953125 199.511719 156.855469 195 C 158.195312 197.589844 159.609375 200.171875 161.097656 202.742188 C 162.613281 205.363281 164.1875 207.921875 165.796875 210.421875 Z M 187.746094 228.558594 C 184.71875 225.292969 181.695312 221.675781 178.742188 217.789062 C 181.605469 217.898438 184.53125 217.957031 187.5 217.957031 C 190.550781 217.957031 193.570312 217.886719 196.535156 217.757812 C 193.621094 221.714844 190.675781 225.339844 187.746094 228.558594 Z M 218.269531 194.773438 C 220.265625 199.332031 221.957031 203.738281 223.296875 207.933594 C 218.957031 208.921875 214.269531 209.714844 209.332031 210.3125 C 210.890625 207.851562 212.421875 205.308594 213.929688 202.695312 C 215.457031 200.054688 216.898438 197.40625 218.269531 194.773438 Z M 208.386719 199.503906 C 206.046875 203.5625 203.644531 207.429688 201.207031 211.082031 C 196.769531 211.398438 192.179688 211.5625 187.5 211.5625 C 182.839844 211.5625 178.308594 211.421875 173.945312 211.136719 C 171.410156 207.4375 168.957031 203.554688 166.632812 199.539062 C 164.3125 195.539062 162.179688 191.5 160.246094 187.484375 C 162.179688 183.460938 164.308594 179.417969 166.613281 175.421875 C 168.925781 171.417969 171.355469 167.550781 173.871094 163.875 C 178.320312 163.535156 182.886719 163.359375 187.5 163.359375 C 192.136719 163.359375 196.703125 163.539062 201.152344 163.878906 C 203.632812 167.53125 206.046875 171.378906 208.367188 175.386719 C 210.714844 179.441406 212.871094 183.457031 214.816406 187.394531 C 212.875 191.398438 210.726562 195.457031 208.386719 199.503906 Z M 221.578125 128.125 C 226.59375 131.015625 228.539062 142.667969 225.390625 157.949219 C 225.191406 158.921875 224.960938 159.917969 224.71875 160.921875 C 218.507812 159.492188 211.765625 158.425781 204.707031 157.761719 C 200.59375 151.90625 196.328125 146.585938 192.050781 141.976562 C 193.203125 140.871094 194.351562 139.816406 195.492188 138.820312 C 206.542969 129.210938 216.875 125.414062 221.578125 128.125 Z M 187.5 173.96875 C 194.878906 173.96875 200.867188 179.949219 200.867188 187.328125 C 200.867188 194.707031 194.878906 200.691406 187.5 200.691406 C 180.121094 200.691406 174.132812 194.707031 174.132812 187.328125 C 174.132812 179.949219 180.121094 173.96875 187.5 173.96875 Z M 187.5 173.96875 " />
    </g>
  </g>
</svg>