<?xml version="1.0" encoding="UTF-8"?>
<svg xmlns="http://www.w3.org/2000/svg" xmlns:xlink="http://www.w3.org/1999/xlink" viewBox="0 0 375 374.999991"
  version="1.2">
  <defs>
    <clipPath id="clip24">
      <path d="M 112.5 112.5 L 262.5 112.5 L 262.5 246 L 112.5 246 Z M 112.5 112.5 " />
    </clipPath>
    <clipPath id="clip2424">
      <path d="M 116 194 L 251 194 L 251 262.5 L 116 262.5 Z M 116 194 " />
    </clipPath>
  </defs>
  <g id="surface24">
    <path style=" stroke:none;fill-rule:nonzero;fill:rgb(0%,0%,0%);fill-opacity:1;"
      d="M 187.5 84.375 C 185.8125 84.375 184.125 84.417969 182.441406 84.5 C 180.753906 84.582031 179.070312 84.707031 177.390625 84.871094 C 175.710938 85.035156 174.039062 85.242188 172.367188 85.492188 C 170.699219 85.738281 169.035156 86.027344 167.382812 86.355469 C 165.726562 86.6875 164.078125 87.054688 162.441406 87.464844 C 160.804688 87.875 159.179688 88.324219 157.5625 88.816406 C 155.949219 89.304688 154.347656 89.835938 152.757812 90.402344 C 151.167969 90.972656 149.59375 91.578125 148.035156 92.226562 C 146.476562 92.871094 144.933594 93.554688 143.410156 94.277344 C 141.882812 94.996094 140.375 95.757812 138.886719 96.550781 C 137.398438 97.347656 135.929688 98.179688 134.484375 99.046875 C 133.035156 99.914062 131.609375 100.816406 130.207031 101.753906 C 128.804688 102.691406 127.425781 103.664062 126.070312 104.667969 C 124.714844 105.675781 123.382812 106.710938 122.078125 107.785156 C 120.773438 108.855469 119.496094 109.957031 118.246094 111.089844 C 116.996094 112.222656 115.773438 113.386719 114.578125 114.578125 C 113.386719 115.773438 112.222656 116.996094 111.089844 118.246094 C 109.957031 119.496094 108.855469 120.773438 107.785156 122.078125 C 106.710938 123.382812 105.675781 124.714844 104.667969 126.070312 C 103.664062 127.425781 102.691406 128.804688 101.753906 130.207031 C 100.816406 131.609375 99.914062 133.035156 99.046875 134.484375 C 98.179688 135.929688 97.347656 137.398438 96.550781 138.886719 C 95.757812 140.375 94.996094 141.882812 94.277344 143.410156 C 93.554688 144.933594 92.871094 146.476562 92.226562 148.035156 C 91.578125 149.59375 90.972656 151.167969 90.402344 152.757812 C 89.835938 154.347656 89.304688 155.949219 88.816406 157.5625 C 88.324219 159.179688 87.875 160.804688 87.464844 162.441406 C 87.054688 164.078125 86.6875 165.726562 86.355469 167.382812 C 86.027344 169.035156 85.738281 170.699219 85.492188 172.367188 C 85.242188 174.039062 85.035156 175.710938 84.871094 177.390625 C 84.707031 179.070312 84.582031 180.753906 84.5 182.441406 C 84.417969 184.125 84.375 185.8125 84.375 187.5 C 84.375 189.1875 84.417969 190.875 84.5 192.558594 C 84.582031 194.246094 84.707031 195.929688 84.871094 197.609375 C 85.035156 199.289062 85.242188 200.960938 85.492188 202.632812 C 85.738281 204.300781 86.027344 205.964844 86.355469 207.617188 C 86.6875 209.273438 87.054688 210.921875 87.464844 212.558594 C 87.875 214.195312 88.324219 215.820312 88.816406 217.4375 C 89.304688 219.050781 89.835938 220.652344 90.402344 222.242188 C 90.972656 223.832031 91.578125 225.40625 92.226562 226.964844 C 92.871094 228.523438 93.554688 230.066406 94.277344 231.589844 C 94.996094 233.117188 95.757812 234.625 96.550781 236.113281 C 97.347656 237.601562 98.179688 239.070312 99.046875 240.515625 C 99.914062 241.964844 100.816406 243.390625 101.753906 244.792969 C 102.691406 246.195312 103.664062 247.574219 104.667969 248.929688 C 105.675781 250.285156 106.710938 251.617188 107.785156 252.921875 C 108.855469 254.226562 109.957031 255.503906 111.089844 256.753906 C 112.222656 258.003906 113.386719 259.226562 114.578125 260.421875 C 115.773438 261.613281 116.996094 262.777344 118.246094 263.910156 C 119.496094 265.042969 120.773438 266.144531 122.078125 267.214844 C 123.382812 268.289062 124.714844 269.324219 126.070312 270.332031 C 127.425781 271.335938 128.804688 272.308594 130.207031 273.246094 C 131.609375 274.183594 133.035156 275.085938 134.484375 275.953125 C 135.929688 276.820312 137.398438 277.652344 138.886719 278.449219 C 140.375 279.242188 141.882812 280.003906 143.410156 280.722656 C 144.933594 281.445312 146.476562 282.128906 148.035156 282.773438 C 149.59375 283.421875 151.167969 284.027344 152.757812 284.597656 C 154.347656 285.164062 155.949219 285.695312 157.5625 286.183594 C 159.179688 286.675781 160.804688 287.125 162.441406 287.535156 C 164.078125 287.945312 165.726562 288.3125 167.382812 288.644531 C 169.035156 288.972656 170.699219 289.261719 172.367188 289.507812 C 174.039062 289.757812 175.710938 289.964844 177.390625 290.128906 C 179.070312 290.292969 180.753906 290.417969 182.441406 290.5 C 184.125 290.582031 185.8125 290.625 187.5 290.625 C 189.1875 290.625 190.875 290.582031 192.558594 290.5 C 194.246094 290.417969 195.929688 290.292969 197.609375 290.128906 C 199.289062 289.964844 200.960938 289.757812 202.632812 289.507812 C 204.300781 289.261719 205.964844 288.972656 207.617188 288.644531 C 209.273438 288.3125 210.921875 287.945312 212.558594 287.535156 C 214.195312 287.125 215.820312 286.675781 217.4375 286.183594 C 219.050781 285.695312 220.652344 285.164062 222.242188 284.597656 C 223.832031 284.027344 225.40625 283.421875 226.964844 282.773438 C 228.523438 282.128906 230.066406 281.445312 231.589844 280.722656 C 233.117188 280.003906 234.625 279.242188 236.113281 278.449219 C 237.601562 277.652344 239.070312 276.820312 240.515625 275.953125 C 241.964844 275.085938 243.390625 274.183594 244.792969 273.246094 C 246.195312 272.308594 247.574219 271.335938 248.929688 270.332031 C 250.285156 269.324219 251.617188 268.289062 252.921875 267.214844 C 254.226562 266.144531 255.503906 265.042969 256.753906 263.910156 C 258.003906 262.777344 259.226562 261.613281 260.421875 260.421875 C 261.613281 259.226562 262.777344 258.003906 263.910156 256.753906 C 265.042969 255.503906 266.144531 254.226562 267.214844 252.921875 C 268.289062 251.617188 269.324219 250.285156 270.332031 248.929688 C 271.335938 247.574219 272.308594 246.195312 273.246094 244.792969 C 274.183594 243.390625 275.085938 241.964844 275.953125 240.515625 C 276.820312 239.070312 277.652344 237.601562 278.449219 236.113281 C 279.242188 234.625 280.003906 233.117188 280.722656 231.589844 C 281.445312 230.066406 282.128906 228.523438 282.773438 226.964844 C 283.421875 225.40625 284.027344 223.832031 284.597656 222.242188 C 285.164062 220.652344 285.695312 219.050781 286.183594 217.4375 C 286.675781 215.820312 287.125 214.195312 287.535156 212.558594 C 287.945312 210.921875 288.3125 209.273438 288.644531 207.617188 C 288.972656 205.964844 289.261719 204.300781 289.507812 202.632812 C 289.757812 200.960938 289.964844 199.289062 290.128906 197.609375 C 290.292969 195.929688 290.417969 194.246094 290.5 192.558594 C 290.582031 190.875 290.625 189.1875 290.625 187.5 C 290.625 185.8125 290.582031 184.125 290.5 182.441406 C 290.417969 180.753906 290.292969 179.070312 290.128906 177.390625 C 289.964844 175.710938 289.757812 174.039062 289.507812 172.367188 C 289.261719 170.699219 288.972656 169.035156 288.644531 167.382812 C 288.3125 165.726562 287.945312 164.078125 287.535156 162.441406 C 287.125 160.804688 286.675781 159.179688 286.183594 157.5625 C 285.695312 155.949219 285.164062 154.347656 284.597656 152.757812 C 284.027344 151.167969 283.421875 149.59375 282.773438 148.035156 C 282.128906 146.476562 281.445312 144.933594 280.722656 143.410156 C 280.003906 141.882812 279.242188 140.375 278.449219 138.886719 C 277.652344 137.398438 276.820312 135.929688 275.953125 134.484375 C 275.085938 133.035156 274.183594 131.609375 273.246094 130.207031 C 272.308594 128.804688 271.335938 127.425781 270.332031 126.070312 C 269.324219 124.714844 268.289062 123.382812 267.214844 122.078125 C 266.144531 120.773438 265.042969 119.496094 263.910156 118.246094 C 262.777344 116.996094 261.613281 115.773438 260.421875 114.578125 C 259.226562 113.386719 258.003906 112.222656 256.753906 111.089844 C 255.503906 109.957031 254.226562 108.855469 252.921875 107.785156 C 251.617188 106.710938 250.285156 105.675781 248.929688 104.667969 C 247.574219 103.664062 246.195312 102.691406 244.792969 101.753906 C 243.390625 100.816406 241.964844 99.914062 240.515625 99.046875 C 239.070312 98.179688 237.601562 97.347656 236.113281 96.550781 C 234.625 95.757812 233.117188 94.996094 231.589844 94.277344 C 230.066406 93.554688 228.523438 92.871094 226.964844 92.226562 C 225.40625 91.578125 223.832031 90.972656 222.242188 90.402344 C 220.652344 89.835938 219.050781 89.304688 217.4375 88.816406 C 215.820312 88.324219 214.195312 87.875 212.558594 87.464844 C 210.921875 87.054688 209.273438 86.6875 207.617188 86.355469 C 205.964844 86.027344 204.300781 85.738281 202.632812 85.492188 C 200.960938 85.242188 199.289062 85.035156 197.609375 84.871094 C 195.929688 84.707031 194.246094 84.582031 192.558594 84.5 C 190.875 84.417969 189.1875 84.375 187.5 84.375 Z M 187.5 84.375 " />
    <g clip-path="url(#clip1)" clip-rule="nonzero">
      <path style=" stroke:none;fill-rule:nonzero;fill:rgb(0%,0%,0%);fill-opacity:1;"
        d="M 250.464844 228.269531 C 247.574219 227.601562 244.503906 227.191406 241.40625 227.191406 C 236.101562 227.191406 231.273438 228.105469 227.710938 229.585938 C 227.320312 229.78125 227.042969 230.191406 227.042969 230.660156 C 227.042969 230.824219 227.085938 231 227.148438 231.144531 C 227.570312 232.363281 226.878906 233.6875 223.433594 234.445312 C 218.324219 235.570312 215.101562 240.835938 213.25 242.589844 C 211.089844 244.644531 204.964844 245.910156 205.886719 244.6875 C 206.605469 243.726562 209.367188 240.738281 211.042969 237.503906 C 212.535156 234.609375 213.871094 233.789062 215.707031 231.035156 C 216.25 230.226562 218.34375 227.382812 218.945312 225.132812 C 219.632812 222.941406 219.398438 220.1875 219.660156 219.058594 C 220.035156 217.421875 221.582031 213.871094 221.695312 211.875 C 221.765625 210.738281 216.964844 213.484375 214.695312 213.484375 C 212.421875 213.484375 210.199219 212.125 208.167969 212.027344 C 205.652344 211.910156 204.035156 213.964844 201.757812 213.609375 C 200.457031 213.402344 199.359375 212.253906 197.085938 212.167969 C 193.851562 212.050781 189.902344 213.964844 182.480469 213.730469 C 175.171875 213.492188 168.425781 204.503906 167.503906 203.074219 C 166.425781 201.390625 165.109375 201.390625 163.671875 202.710938 C 162.234375 204.023438 160.464844 202.992188 159.960938 202.113281 C 159 200.429688 156.441406 195.53125 152.472656 194.507812 C 146.988281 193.082031 144.210938 197.542969 144.570312 201.09375 C 144.9375 204.695312 147.265625 205.703125 148.34375 207.613281 C 149.421875 209.53125 149.972656 210.773438 152 211.617188 C 153.4375 212.214844 153.972656 213.105469 153.546875 214.28125 C 153.171875 215.3125 151.671875 215.550781 150.691406 215.597656 C 148.601562 215.695312 147.136719 215.125 146.066406 214.445312 C 144.824219 213.65625 143.8125 212.554688 142.730469 210.6875 C 141.472656 208.621094 139.5 207.726562 137.195312 207.726562 C 136.097656 207.726562 135.070312 208.019531 134.160156 208.488281 C 130.550781 210.363281 126.253906 211.476562 121.628906 211.476562 L 116.414062 211.476562 C 113.875 203.949219 112.5 195.886719 112.5 187.5 C 112.5 146.078125 146.082031 112.5 187.5 112.5 C 228.925781 112.5 262.5 146.078125 262.5 187.5 C 262.5 202.53125 258.082031 216.535156 250.464844 228.269531 " />
    </g>
    <g clip-path="url(#clip2424)" clip-rule="nonzero">
      <path style=" stroke:none;fill-rule:nonzero;fill:rgb(100%,100%,100%);fill-opacity:1;"
        d="M 250.464844 228.269531 C 247.574219 227.601562 244.503906 227.179688 241.40625 227.179688 C 236.101562 227.179688 231.273438 228.105469 227.710938 229.582031 C 227.320312 229.78125 227.042969 230.191406 227.042969 230.652344 C 227.042969 230.824219 227.085938 231 227.148438 231.144531 C 227.570312 232.363281 226.878906 233.683594 223.433594 234.445312 C 218.324219 235.570312 215.101562 240.835938 213.25 242.582031 C 211.089844 244.644531 204.964844 245.910156 205.886719 244.679688 C 206.605469 243.726562 209.367188 240.730469 211.042969 237.503906 C 212.535156 234.609375 213.871094 233.789062 215.707031 231.027344 C 216.25 230.226562 218.34375 227.382812 218.945312 225.132812 C 219.632812 222.941406 219.398438 220.1875 219.660156 219.050781 C 220.035156 217.417969 221.582031 213.871094 221.695312 211.867188 C 221.765625 210.738281 216.964844 213.484375 214.695312 213.484375 C 212.421875 213.484375 210.199219 212.121094 208.167969 212.027344 C 205.652344 211.902344 204.035156 213.964844 201.757812 213.609375 C 200.457031 213.398438 199.359375 212.25 197.085938 212.167969 C 193.851562 212.050781 189.902344 213.964844 182.480469 213.726562 C 175.171875 213.492188 168.425781 204.496094 167.503906 203.066406 C 166.425781 201.390625 165.109375 201.390625 163.671875 202.703125 C 162.234375 204.023438 160.464844 202.992188 159.960938 202.105469 C 159 200.429688 156.441406 195.53125 152.472656 194.5 C 146.988281 193.082031 144.210938 197.542969 144.570312 201.09375 C 144.9375 204.691406 147.265625 205.699219 148.34375 207.613281 C 149.421875 209.53125 149.972656 210.765625 152 211.617188 C 153.4375 212.214844 153.972656 213.097656 153.546875 214.28125 C 153.171875 215.308594 151.671875 215.542969 150.691406 215.589844 C 148.601562 215.695312 147.136719 215.121094 146.066406 214.445312 C 144.824219 213.648438 143.8125 212.554688 142.730469 210.679688 C 141.472656 208.617188 139.5 207.71875 137.195312 207.71875 C 136.097656 207.71875 135.070312 208.011719 134.160156 208.480469 C 130.550781 210.363281 126.253906 211.46875 121.628906 211.46875 L 116.414062 211.476562 C 126.414062 241.136719 154.464844 262.5 187.5 262.5 C 213.890625 262.5 237.101562 248.871094 250.464844 228.269531 " />
    </g>
    <path style=" stroke:none;fill-rule:nonzero;fill:rgb(0%,0%,0%);fill-opacity:1;"
      d="M 204.015625 221.390625 C 204.402344 221.765625 205.070312 223.03125 204.257812 224.636719 C 203.800781 225.492188 203.308594 226.089844 202.433594 226.792969 C 201.378906 227.636719 199.316406 228.609375 196.488281 226.816406 C 194.964844 225.855469 194.878906 225.527344 192.773438 225.800781 C 191.273438 225.996094 190.679688 224.484375 191.222656 223.222656 C 191.761719 221.96875 193.976562 220.949219 196.730469 222.566406 C 197.964844 223.292969 199.898438 224.828125 201.59375 223.46875 C 202.296875 222.90625 202.710938 222.53125 203.683594 221.40625 C 203.730469 221.359375 203.789062 221.332031 203.859375 221.332031 C 203.917969 221.332031 203.976562 221.355469 204.019531 221.390625 " />
    <path style=" stroke:none;fill-rule:nonzero;fill:rgb(79.998779%,0%,0%);fill-opacity:1;"
      d="M 229.820312 167.546875 C 229.082031 170.035156 228.027344 173.226562 223.339844 175.632812 C 222.65625 175.980469 222.398438 175.40625 222.714844 174.867188 C 224.484375 171.855469 224.800781 171.097656 225.316406 169.910156 C 226.03125 168.171875 226.410156 165.699219 224.976562 160.542969 C 222.15625 150.390625 216.269531 136.824219 211.996094 132.421875 C 207.867188 128.175781 200.390625 126.980469 193.628906 128.714844 C 191.144531 129.351562 186.269531 131.886719 177.234375 129.851562 C 161.605469 126.328125 159.289062 134.15625 158.390625 137.566406 C 157.492188 140.976562 155.339844 150.671875 155.339844 150.671875 C 154.621094 154.617188 153.683594 161.480469 177.953125 166.101562 C 189.261719 168.257812 189.835938 171.179688 190.335938 173.285156 C 191.238281 177.050781 192.667969 179.207031 194.285156 180.28125 C 195.902344 181.359375 194.285156 182.25 192.492188 182.4375 C 187.675781 182.933594 169.878906 177.832031 159.347656 171.847656 C 150.734375 166.582031 150.589844 161.839844 152.558594 157.820312 C 139.546875 156.414062 129.78125 159.042969 128.011719 165.203125 C 124.972656 175.773438 151.257812 193.832031 181.183594 202.890625 C 212.597656 212.40625 244.898438 205.769531 248.492188 186.023438 C 250.121094 177.050781 242.566406 170.417969 229.824219 167.546875 M 181.664062 148.214844 C 173.003906 148.839844 172.101562 149.777344 170.480469 151.503906 C 168.191406 153.941406 165.175781 148.34375 165.175781 148.34375 C 163.367188 147.960938 161.175781 145.046875 162.359375 142.324219 C 163.523438 139.628906 165.675781 140.4375 166.351562 141.277344 C 167.171875 142.296875 168.921875 143.964844 171.199219 143.90625 C 173.472656 143.847656 176.09375 143.367188 179.753906 143.367188 C 183.457031 143.367188 185.953125 144.75 186.09375 145.941406 C 186.210938 146.957031 185.796875 147.914062 181.664062 148.214844 M 190.769531 133.898438 C 190.753906 133.902344 190.742188 133.902344 190.726562 133.902344 C 190.59375 133.902344 190.484375 133.796875 190.484375 133.671875 C 190.484375 133.582031 190.542969 133.503906 190.625 133.46875 C 192.300781 132.582031 194.808594 131.875 197.671875 131.582031 C 198.535156 131.496094 199.378906 131.449219 200.183594 131.441406 C 200.328125 131.441406 200.464844 131.441406 200.613281 131.445312 C 205.417969 131.554688 209.265625 133.464844 209.214844 135.710938 C 209.15625 137.960938 205.210938 139.695312 200.40625 139.585938 C 198.847656 139.550781 197.390625 139.328125 196.128906 138.964844 C 195.984375 138.925781 195.871094 138.796875 195.871094 138.648438 C 195.871094 138.496094 195.984375 138.371094 196.136719 138.332031 C 199.136719 137.640625 201.15625 136.503906 201.015625 135.433594 C 200.824219 134.011719 196.902344 133.238281 192.25 133.707031 C 191.742188 133.757812 191.242188 133.824219 190.769531 133.898438 " />
  </g>
</svg>