<?xml version="1.0" encoding="UTF-8"?>
<svg xmlns="http://www.w3.org/2000/svg" xmlns:xlink="http://www.w3.org/1999/xlink" viewBox="0 0 375 374.999991"
  version="1.2">
  <defs>
    <clipPath id="clip10">
      <path d="M 112.5 136.3125 L 262.5 136.3125 L 262.5 239.0625 L 112.5 239.0625 Z M 112.5 136.3125 " />
    </clipPath>
  </defs>
  <g id="surface10">
    <g clip-path="url(#clip10)" clip-rule="nonzero">
      <path style=" stroke:none;fill-rule:nonzero;fill:rgb(100%,100%,100%);fill-opacity:1;"
        d="M 261.953125 186.550781 C 261.953125 186.550781 261.953125 186.300781 261.703125 186.300781 C 261.703125 186.046875 231.519531 149.945312 218.4375 137.070312 C 217.683594 136.3125 216.425781 136.3125 215.671875 137.070312 C 214.917969 137.828125 214.917969 139.089844 215.671875 139.847656 C 226.488281 150.703125 248.875 176.957031 256.421875 185.792969 L 114.554688 185.792969 C 113.546875 185.792969 112.542969 186.550781 112.542969 187.8125 C 112.542969 189.074219 113.296875 189.832031 114.554688 189.832031 L 256.421875 189.832031 C 248.875 198.921875 226.488281 225.175781 215.921875 235.78125 C 215.167969 236.539062 215.167969 237.800781 215.921875 238.558594 C 216.175781 238.808594 216.679688 239.0625 217.179688 239.0625 C 217.683594 239.0625 218.1875 238.808594 218.4375 238.558594 C 231.519531 225.429688 261.703125 189.582031 261.953125 189.074219 C 261.953125 189.074219 261.953125 188.824219 262.207031 188.824219 C 262.207031 188.824219 262.207031 188.570312 262.457031 188.570312 C 262.457031 187.8125 262.457031 187.308594 261.953125 186.550781 C 262.207031 186.804688 262.207031 186.804688 261.953125 186.550781 Z M 261.953125 186.550781 " />
    </g>
  </g>
</svg>