<?xml version="1.0" encoding="UTF-8"?>
<svg xmlns="http://www.w3.org/2000/svg" xmlns:xlink="http://www.w3.org/1999/xlink" width="375pt" height="374.999991pt"
  viewBox="0 0 375 374.999991" version="1.2">
  <defs>
    <clipPath id="clip8">
      <path d="M 130.40625 112.5 L 244.40625 112.5 L 244.40625 262.5 L 130.40625 262.5 Z M 130.40625 112.5 " />
    </clipPath>
  </defs>
  <g id="surface8">
    <g clip-path="url(#clip8)" clip-rule="nonzero">
      <path style=" stroke:none;fill-rule:evenodd;fill:rgb(100%,100%,100%);fill-opacity:1;"
        d="M 234.269531 112.46875 L 224.304688 114.183594 L 235.117188 173.425781 L 244.355469 172.21875 Z M 198.675781 126.984375 L 189.359375 132.601562 L 222.492188 181.269531 L 230.675781 176.210938 Z M 168.878906 155.226562 L 163.410156 163.921875 L 213.394531 194.171875 L 217.949219 186.289062 Z M 154.515625 185.71875 L 152.09375 195.480469 L 209.6875 210.097656 L 210.601562 201.339844 Z M 130.558594 200.679688 L 130.558594 262.449219 L 227.695312 262.5 L 227.695312 262.449219 C 227.796875 262.449219 228.011719 200.679688 228.011719 200.679688 L 218.265625 200.679688 L 218.265625 252.738281 L 140.304688 252.738281 L 140.304688 200.679688 Z M 150.542969 211.597656 L 149.730469 221.304688 L 208.519531 226.707031 L 209.179688 218.574219 Z M 149.730469 233.214844 L 150.050781 242.976562 L 208.519531 242.75 L 208.519531 233.214844 Z M 149.730469 233.214844 " />
    </g>
  </g>
</svg>