<?xml version="1.0" encoding="UTF-8"?>
<svg xmlns="http://www.w3.org/2000/svg" xmlns:xlink="http://www.w3.org/1999/xlink" width="375pt" height="374.999991pt"
  viewBox="0 0 375 374.999991" version="1.2">
  <defs>
    <clipPath id="clip4">
      <path d="M 112.5 128.90625 L 262.5 128.90625 L 262.5 245.90625 L 112.5 245.90625 Z M 112.5 128.90625 " />
    </clipPath>
  </defs>
  <g id="surface4">
    <g clip-path="url(#clip4)" clip-rule="nonzero">
      <path style=" stroke:none;fill-rule:nonzero;fill:rgb(100%,100%,100%);fill-opacity:1;"
        d="M 253.125 147.625 L 212.109375 147.625 L 212.109375 138.265625 C 212.109375 133.117188 207.890625 128.90625 202.734375 128.90625 L 172.265625 128.90625 C 167.109375 128.90625 162.890625 133.117188 162.890625 138.265625 L 162.890625 147.625 L 121.875 147.625 C 116.71875 147.625 112.5 151.839844 112.5 156.984375 L 112.5 236.546875 C 112.5 241.695312 116.71875 245.90625 121.875 245.90625 L 253.125 245.90625 C 258.28125 245.90625 262.5 241.695312 262.5 236.546875 L 262.5 156.984375 C 262.5 151.839844 258.28125 147.625 253.125 147.625 Z M 226.171875 152.304688 L 235.546875 152.304688 L 235.546875 220.167969 C 235.546875 221.453125 234.492188 222.507812 233.203125 222.507812 L 228.515625 222.507812 C 227.226562 222.507812 226.171875 221.453125 226.171875 220.167969 Z M 167.578125 138.265625 C 167.578125 135.691406 169.6875 133.585938 172.265625 133.585938 L 202.734375 133.585938 C 205.3125 133.585938 207.421875 135.691406 207.421875 138.265625 L 207.421875 147.625 L 167.578125 147.625 Z M 153.515625 152.304688 L 221.484375 152.304688 L 221.484375 168.6875 L 153.515625 168.6875 Z M 153.515625 173.367188 L 221.484375 173.367188 L 221.484375 180.386719 L 153.515625 180.386719 Z M 153.515625 185.066406 L 221.484375 185.066406 L 221.484375 206.125 L 206.25 206.125 L 206.25 200.859375 C 206.25 199.574219 205.195312 198.519531 203.90625 198.519531 L 169.335938 198.519531 C 168.046875 198.519531 166.992188 199.574219 166.992188 200.859375 L 166.992188 206.125 L 153.515625 206.125 Z M 201.5625 203.203125 L 201.5625 213.730469 L 171.679688 213.730469 L 171.679688 203.203125 Z M 139.453125 152.304688 L 148.828125 152.304688 L 148.828125 220.167969 C 148.828125 221.453125 147.773438 222.507812 146.484375 222.507812 L 141.796875 222.507812 C 140.507812 222.507812 139.453125 221.453125 139.453125 220.167969 Z M 117.1875 156.984375 C 117.1875 154.414062 119.296875 152.304688 121.875 152.304688 L 134.765625 152.304688 L 134.765625 206.125 L 121.875 206.125 C 119.296875 206.125 117.1875 204.019531 117.1875 201.445312 Z M 257.8125 236.546875 C 257.8125 239.121094 255.703125 241.226562 253.125 241.226562 L 121.875 241.226562 C 119.296875 241.226562 117.1875 239.121094 117.1875 236.546875 L 117.1875 209.519531 C 118.59375 210.339844 120.117188 210.804688 121.875 210.804688 L 134.765625 210.804688 L 134.765625 220.167969 C 134.765625 224.027344 137.929688 227.1875 141.796875 227.1875 L 146.484375 227.1875 C 150.351562 227.1875 153.515625 224.027344 153.515625 220.167969 L 153.515625 210.804688 L 166.992188 210.804688 L 166.992188 216.070312 C 166.992188 217.359375 168.046875 218.410156 169.335938 218.410156 L 203.90625 218.410156 C 205.195312 218.410156 206.25 217.359375 206.25 216.070312 L 206.25 210.804688 L 221.484375 210.804688 L 221.484375 220.167969 C 221.484375 224.027344 224.648438 227.1875 228.515625 227.1875 L 233.203125 227.1875 C 237.070312 227.1875 240.234375 224.027344 240.234375 220.167969 L 240.234375 210.804688 L 253.125 210.804688 C 254.882812 210.804688 256.40625 210.339844 257.8125 209.519531 Z M 257.8125 201.445312 C 257.8125 204.019531 255.703125 206.125 253.125 206.125 L 240.234375 206.125 L 240.234375 152.304688 L 253.125 152.304688 C 255.703125 152.304688 257.8125 154.414062 257.8125 156.984375 Z M 257.8125 201.445312 " />
    </g>
  </g>
</svg>