<?xml version="1.0" encoding="UTF-8"?>
<svg xmlns="http://www.w3.org/2000/svg" xmlns:xlink="http://www.w3.org/1999/xlink" width="375pt" height="374.999991pt"
  viewBox="0 0 375 374.999991" version="1.2">
  <defs>
    <clipPath id="clip5">
      <path d="M 112.5 112.5 L 262.5 112.5 L 262.5 262.5 L 112.5 262.5 Z M 112.5 112.5 " />
    </clipPath>
  </defs>
  <g id="surface5">
    <g clip-path="url(#clip5)" clip-rule="nonzero">
      <path style=" stroke:none;fill-rule:nonzero;fill:rgb(100%,100%,100%);fill-opacity:1;"
        d="M 160.355469 160.355469 C 161.175781 160.941406 162.109375 161.175781 163.046875 161.175781 C 163.632812 161.175781 164.214844 161.058594 164.683594 160.824219 L 169.246094 159.066406 C 172.875 157.664062 174.628906 153.570312 173.34375 149.941406 L 168.777344 137.65625 C 167.726562 134.964844 165.152344 133.09375 162.226562 133.09375 C 161.40625 133.09375 160.472656 133.210938 159.652344 133.5625 L 154.738281 135.433594 C 153.453125 135.902344 152.515625 136.953125 152.046875 138.242188 C 151.34375 137.890625 150.644531 137.65625 149.824219 137.65625 C 149.238281 137.65625 148.65625 137.773438 148.1875 138.007812 L 127.125 146.199219 C 125.136719 146.78125 112.96875 151.8125 112.5 169.832031 C 112.5 171.9375 113.785156 173.808594 115.777344 174.394531 C 116.246094 174.511719 116.710938 174.628906 117.179688 174.628906 C 118.703125 174.628906 120.222656 173.808594 121.160156 172.523438 C 122.679688 170.183594 127.242188 164.683594 132.507812 163.398438 L 136.367188 167.960938 C 137.304688 169.011719 138.59375 169.597656 139.878906 169.597656 C 140.464844 169.597656 141.050781 169.480469 141.515625 169.246094 L 141.867188 169.128906 L 147.484375 184.222656 L 137.070312 184.222656 C 135.667969 184.222656 134.261719 184.925781 133.328125 185.980469 C 132.390625 187.148438 132.15625 188.554688 132.507812 189.957031 L 134.847656 199.316406 C 135.199219 200.488281 135.902344 201.539062 136.953125 202.125 L 144.089844 258.289062 C 144.441406 260.628906 146.429688 262.382812 148.769531 262.382812 L 225.996094 262.382812 C 228.335938 262.382812 230.324219 260.628906 230.675781 258.289062 L 237.8125 202.125 C 238.863281 201.539062 239.566406 200.488281 239.917969 199.316406 L 242.257812 189.957031 C 242.609375 188.554688 242.257812 187.03125 241.4375 185.980469 C 240.503906 184.808594 239.214844 184.222656 237.695312 184.222656 L 235.472656 184.222656 L 237.578125 178.492188 C 238.046875 178.609375 238.632812 178.609375 239.097656 178.609375 C 242.492188 178.609375 245.535156 176.617188 246.703125 173.460938 L 248.808594 168.078125 C 249.277344 166.90625 249.277344 165.621094 248.695312 164.449219 C 248.109375 163.28125 247.289062 162.460938 246.121094 161.992188 C 246.121094 161.992188 246.003906 161.992188 246.003906 161.992188 C 246.003906 161.992188 245.886719 161.992188 245.886719 161.875 C 245.886719 161.875 245.886719 161.757812 245.886719 161.757812 C 245.886719 161.640625 246.121094 161.640625 246.121094 161.640625 C 246.121094 161.640625 246.121094 161.640625 246.238281 161.640625 C 246.238281 161.640625 246.351562 161.640625 246.351562 161.640625 C 246.9375 161.875 247.40625 161.992188 247.992188 161.992188 C 249.863281 161.992188 251.617188 160.824219 252.320312 159.066406 L 261.328125 136.25 C 262.5 133.328125 262.382812 130.167969 261.097656 127.359375 C 259.808594 124.550781 257.46875 122.328125 254.542969 121.160156 L 247.992188 118.703125 C 246.585938 118.234375 245.183594 117.882812 243.777344 117.882812 C 238.863281 117.882812 234.652344 120.808594 232.78125 125.253906 L 223.769531 148.070312 C 222.835938 150.410156 224.003906 153.101562 226.34375 154.152344 C 226.460938 154.152344 226.578125 154.269531 226.460938 154.386719 C 226.460938 154.503906 226.230469 154.503906 226.230469 154.503906 C 226.230469 154.503906 226.113281 154.503906 226.113281 154.503906 C 225.644531 154.269531 225.058594 154.269531 224.589844 154.269531 C 222.71875 154.269531 220.964844 155.441406 220.261719 157.195312 L 218.15625 162.578125 C 217.335938 164.566406 217.453125 166.789062 218.273438 168.777344 C 219.089844 170.652344 220.496094 172.054688 222.367188 172.875 L 218.15625 184.222656 L 206.105469 184.222656 L 206.105469 149.121094 C 212.539062 145.378906 216.632812 138.59375 216.632812 131.222656 C 216.632812 123.734375 212.65625 117.0625 205.871094 113.203125 C 205.167969 112.734375 204.347656 112.617188 203.53125 112.617188 C 202.710938 112.617188 201.890625 112.851562 201.191406 113.203125 C 199.785156 114.019531 198.847656 115.542969 198.847656 117.296875 L 198.847656 127.828125 L 194.050781 130.050781 L 189.371094 127.828125 L 189.371094 117.648438 C 189.371094 116.011719 188.4375 114.371094 186.914062 113.554688 C 186.214844 113.203125 185.394531 112.96875 184.691406 112.96875 C 183.871094 112.96875 182.9375 113.203125 182.234375 113.671875 C 175.917969 117.53125 172.171875 124.199219 172.171875 131.335938 C 172.171875 138.710938 176.265625 145.496094 182.703125 149.238281 L 182.703125 184.222656 L 166.789062 184.222656 L 158.71875 162.695312 C 159.535156 161.992188 160.121094 161.175781 160.355469 160.355469 Z M 225.996094 257.703125 L 148.769531 257.703125 L 141.75 202.828125 L 233.015625 202.828125 Z M 222.71875 164.214844 L 224.824219 158.832031 C 225.410156 159.066406 225.996094 159.066406 226.460938 159.066406 C 228.453125 159.066406 230.324219 157.898438 231.144531 155.910156 C 232.078125 153.453125 230.910156 150.644531 228.453125 149.589844 L 237.460938 126.773438 C 238.515625 123.964844 241.207031 122.328125 244.011719 122.328125 C 244.832031 122.328125 245.769531 122.445312 246.585938 122.796875 L 253.140625 125.253906 C 256.765625 126.65625 258.640625 130.636719 257.234375 134.261719 L 248.226562 157.078125 C 248.226562 157.078125 248.109375 157.078125 248.109375 157.078125 C 247.523438 156.84375 246.9375 156.726562 246.351562 156.726562 C 244.363281 156.726562 242.492188 157.898438 241.671875 159.886719 C 240.738281 162.34375 241.90625 165.269531 244.480469 166.207031 C 244.480469 166.207031 244.597656 166.207031 244.597656 166.207031 L 242.492188 171.585938 C 241.90625 172.992188 240.621094 173.808594 239.214844 173.808594 C 238.746094 173.808594 238.398438 173.695312 237.929688 173.578125 L 224.707031 168.546875 C 222.953125 167.960938 222.015625 165.972656 222.71875 164.214844 Z M 233.25 176.96875 L 230.558594 184.222656 L 223.304688 184.222656 L 226.929688 174.628906 Z M 176.851562 131.222656 C 176.851562 125.488281 180.011719 120.457031 184.691406 117.53125 L 184.691406 130.753906 L 194.167969 135.199219 L 203.648438 130.753906 L 203.648438 117.296875 C 208.679688 120.222656 212.070312 125.371094 212.070312 131.222656 C 212.070312 137.890625 207.742188 143.742188 201.539062 146.199219 L 201.539062 184.105469 L 187.382812 184.105469 L 187.382812 146.3125 C 181.183594 143.742188 176.851562 138.007812 176.851562 131.222656 Z M 237.695312 188.785156 L 235.355469 198.148438 L 139.410156 198.148438 L 137.070312 188.785156 Z M 155.910156 158.832031 L 152.867188 160.355469 L 161.757812 184.105469 L 152.515625 184.105469 L 144.675781 162.929688 L 139.878906 164.800781 L 134.378906 158.367188 C 124.550781 158.601562 117.179688 169.949219 117.179688 169.949219 C 117.53125 154.035156 128.648438 150.527344 128.648438 150.527344 L 149.824219 142.335938 L 154.035156 146.898438 L 156.960938 145.730469 L 156.375 139.761719 L 161.289062 137.890625 C 161.523438 137.773438 161.875 137.773438 162.109375 137.773438 C 163.046875 137.773438 163.980469 138.359375 164.332031 139.292969 L 168.894531 151.578125 C 169.363281 152.867188 168.777344 154.152344 167.492188 154.621094 L 162.929688 156.375 L 159.300781 152.164062 L 155.792969 153.570312 Z M 155.910156 158.832031 " />
    </g>
  </g>
</svg>