<?xml version="1.0" encoding="UTF-8"?>
<svg xmlns="http://www.w3.org/2000/svg" xmlns:xlink="http://www.w3.org/1999/xlink" viewBox="0 0 375 374.999991"
  version="1.2">
  <defs>
    <clipPath id="clip7">
      <path d="M 112.5 127.5 L 262.5 127.5 L 262.5 247.5 L 112.5 247.5 Z M 112.5 127.5 " />
    </clipPath>
  </defs>
  <g id="surface7">
    <g clip-path="url(#clip7)" clip-rule="nonzero">
      <path style=" stroke:none;fill-rule:nonzero;fill:rgb(100%,100%,100%);fill-opacity:1;"
        d="M 262.5 127.492188 C 256.648438 130.964844 244.914062 135.699219 238.011719 137.0625 C 237.808594 137.113281 237.644531 137.183594 237.449219 137.234375 C 231.351562 131.21875 222.996094 127.492188 213.75 127.492188 C 195.113281 127.492188 180 142.605469 180 161.242188 C 180 162.226562 179.917969 164.03125 180 164.992188 C 154.851562 164.992188 135.710938 151.824219 121.988281 134.992188 C 120.496094 138.742188 119.84375 144.667969 119.84375 150.234375 C 119.84375 160.738281 128.054688 171.058594 140.84375 177.457031 C 138.488281 178.066406 135.890625 178.5 133.191406 178.5 C 128.835938 178.5 124.222656 177.351562 120 173.871094 C 120 174 120 174.121094 120 174.253906 C 120 188.941406 135.585938 198.9375 149.445312 201.71875 C 146.632812 203.378906 140.960938 203.542969 138.195312 203.542969 C 136.246094 203.542969 129.34375 202.648438 127.5 202.304688 C 131.355469 214.34375 145.261719 221.109375 158.511719 221.347656 C 148.148438 229.476562 140.953125 232.492188 119.730469 232.492188 L 112.5 232.492188 C 125.910156 241.085938 142.988281 247.5 160.101562 247.5 C 215.828125 247.5 247.5 205.027344 247.5 164.992188 C 247.5 164.347656 247.484375 162.996094 247.460938 161.640625 C 247.460938 161.503906 247.5 161.378906 247.5 161.242188 C 247.5 161.039062 247.441406 160.84375 247.441406 160.640625 C 247.417969 159.621094 247.394531 158.671875 247.371094 158.175781 C 253.296875 153.898438 258.433594 148.566406 262.5 142.492188 C 257.0625 144.90625 251.226562 146.527344 245.101562 147.261719 C 251.355469 143.511719 260.242188 134.574219 262.5 127.492188 Z M 262.5 127.492188 " />
    </g>
  </g>
</svg>